<svg xmlns="http://www.w3.org/2000/svg" xmlns:xlink="http://www.w3.org/1999/xlink" width="108" height="108" viewBox="0 0 108 108">
  <defs>
    <filter id="Path_904820" x="0" y="0" width="108" height="108" filterUnits="userSpaceOnUse">
      <feOffset dy="3" input="SourceAlpha"/>
      <feGaussianBlur stdDeviation="3" result="blur"/>
      <feFlood flood-opacity="0.161"/>
      <feComposite operator="in" in2="blur"/>
      <feComposite in="SourceGraphic"/>
    </filter>
  </defs>
  <g id="Group_1220919" data-name="Group 1220919" transform="translate(-196 -1826.52)">
    <g id="Group_1220853" data-name="Group 1220853" transform="translate(0 27)">
      <g id="Group_1220634" data-name="Group 1220634" transform="translate(205 1805.52)">
        <g id="Group_1219701" data-name="Group 1219701" transform="translate(0 0)">
          <g id="Group_1173585" data-name="Group 1173585">
            <g id="Group_1173428" data-name="Group 1173428">
              <g id="Group_1171958" data-name="Group 1171958">
                <g id="Group_1167341" data-name="Group 1167341">
                  <g id="Group_1166792" data-name="Group 1166792">
                    <g transform="matrix(1, 0, 0, 1, -9, -6)" filter="url(#Path_904820)">
                      <g id="Path_904820-2" data-name="Path 904820" transform="translate(9 6)" fill="#f8ecfd">
                        <path d="M 44.99996566772461 88.5 C 39.1268424987793 88.5 33.43020248413086 87.35008239746094 28.06827735900879 85.08216857910156 C 22.88850402832031 82.89131927490234 18.23628997802734 79.75459289550781 14.24084091186523 75.75914001464844 C 10.24539089202881 71.76369476318359 7.108678340911865 67.11146545410156 4.917815685272217 61.93170547485352 C 2.64991569519043 56.56976699829102 1.499990701675415 50.87312698364258 1.499990701675415 45.00000381469727 C 1.499990701675415 39.12688064575195 2.64991569519043 33.43022918701172 4.917815685272217 28.06830406188965 C 7.108678340911865 22.88852882385254 10.24539089202881 18.23630332946777 14.24084091186523 14.24085426330566 C 18.23628997802734 10.24541664123535 22.88850402832031 7.108691215515137 28.06827735900879 4.917829036712646 C 33.43020248413086 2.64992880821228 39.1268424987793 1.500003814697266 44.99996566772461 1.500003814697266 C 50.87308883666992 1.500003814697266 56.56972885131836 2.64992880821228 61.9316520690918 4.917829036712646 C 67.11142730712891 7.108691215515137 71.76364135742188 10.24541664123535 75.75909423828125 14.24085426330566 C 79.75453948974609 18.23630332946777 82.89125061035156 22.88852882385254 85.08211517333984 28.06830406188965 C 87.35001373291016 33.43022918701172 88.49993896484375 39.12688064575195 88.49993896484375 45.00000381469727 C 88.49993896484375 50.87312698364258 87.35001373291016 56.56976699829102 85.08211517333984 61.93170547485352 C 82.89125061035156 67.11146545410156 79.75453948974609 71.76369476318359 75.75909423828125 75.75914001464844 C 71.76364135742188 79.75459289550781 67.11142730712891 82.89131927490234 61.9316520690918 85.08216857910156 C 56.56972885131836 87.35008239746094 50.87308883666992 88.5 44.99996566772461 88.5 Z" stroke="none"/>
                        <path d="M 44.99996566772461 3.000007629394531 C 39.32867813110352 3.000007629394531 33.82863616943359 4.110061645507812 28.65260696411133 6.299346923828125 C 23.65163421630859 8.414573669433594 19.15968322753906 11.44334411621094 15.30149078369141 15.30152130126953 C 11.44332122802734 19.15969085693359 8.414566040039062 23.65166473388672 6.299324035644531 28.65263366699219 C 4.110054016113281 33.82865905761719 2.999992370605469 39.32871627807617 2.999992370605469 45.00000381469727 C 2.999992370605469 50.67129135131836 4.110054016113281 56.17133331298828 6.299324035644531 61.34737396240234 C 8.414566040039062 66.34834289550781 11.44332122802734 70.84030151367188 15.30149078369141 74.698486328125 C 19.15968322753906 78.55666351318359 23.65163421630859 81.58543395996094 28.65260696411133 83.70066070556641 C 33.82863616943359 85.88994598388672 39.32867813110352 87 44.99996566772461 87 C 50.6712532043457 87 56.17129516601562 85.88994598388672 61.34732055664062 83.70066070556641 C 66.34829711914062 81.58543395996094 70.84025573730469 78.55666351318359 74.69844055175781 74.698486328125 C 78.55661010742188 70.84030151367188 81.58536529541016 66.34834289550781 83.70060729980469 61.34737396240234 C 85.88987731933594 56.17133331298828 86.99993896484375 50.67129135131836 86.99993896484375 45.00000381469727 C 86.99993896484375 39.32871627807617 85.88987731933594 33.82865905761719 83.70060729980469 28.65263366699219 C 81.58536529541016 23.65166473388672 78.55661010742188 19.15969085693359 74.69844055175781 15.30152130126953 C 70.84025573730469 11.44334411621094 66.34829711914062 8.414573669433594 61.34732055664062 6.299346923828125 C 56.17129516601562 4.110061645507812 50.6712532043457 3.000007629394531 44.99996566772461 3.000007629394531 M 44.99996566772461 7.62939453125e-06 C 69.85276794433594 7.62939453125e-06 89.99993896484375 20.14718627929688 89.99993896484375 45.00000381469727 C 89.99993896484375 69.85280609130859 69.85276794433594 90 44.99996566772461 90 C 20.14716339111328 90 -7.62939453125e-06 69.85280609130859 -7.62939453125e-06 45.00000381469727 C -7.62939453125e-06 20.14718627929688 20.14716339111328 7.62939453125e-06 44.99996566772461 7.62939453125e-06 Z" stroke="none" fill="#c252f0"/>
                      </g>
                    </g>
                  </g>
                </g>
              </g>
            </g>
          </g>
        </g>
      </g>
      <g id="mando" transform="translate(220.596 1821.929)">
        <g id="Group_1220851" data-name="Group 1220851" transform="translate(0.838 0.838)">
          <g id="Group_1220846" data-name="Group 1220846" transform="translate(21.934 36.843)">
            <path id="Path_1161253" data-name="Path 1161253" d="M237.473,349.075a8.289,8.289,0,0,1-1.755,5.507,4.325,4.325,0,0,1-1.908,1.271,4.492,4.492,0,0,1-2.89-.085,9.547,9.547,0,0,1-4.82-4.49H215.274c-1.95,3.466-5.061,5.431-7.712,4.575a4.328,4.328,0,0,1-1.906-1.271c-1.809-2.029-2.319-5.872-1.06-9.773,1.421-4.4,4.62-7.419,7.582-7.419h17c2.966-.011,6.176,3.012,7.6,7.419A13.979,13.979,0,0,1,237.473,349.075Z" transform="translate(-203.902 -337.39)" fill="#55d7ff"/>
          </g>
          <g id="Group_1220847" data-name="Group 1220847" transform="translate(44.102 36.843)">
            <path id="Path_1161254" data-name="Path 1161254" d="M413.1,344.809a13.98,13.98,0,0,1,.695,4.266,8.289,8.289,0,0,1-1.755,5.507,4.325,4.325,0,0,1-1.908,1.271,4.492,4.492,0,0,1-2.89-.085,4.366,4.366,0,0,0,1.671-1.186,8.289,8.289,0,0,0,1.755-5.507,13.978,13.978,0,0,0-.695-4.266c-1.421-4.4-4.62-7.419-7.582-7.419h3.11C408.47,337.379,411.679,340.4,413.1,344.809Z" transform="translate(-402.393 -337.39)" fill="#57bbff"/>
          </g>
          <g id="Group_1220850" data-name="Group 1220850">
            <path id="Path_1161255" data-name="Path 1161255" d="M391.246,307.394h4.02v3.35h-4.02Z" transform="translate(-348.389 -273.901)" fill="#466175"/>
            <g id="Group_1220849" data-name="Group 1220849">
              <path id="Path_1161256" data-name="Path 1161256" d="M27.2,11.545V37.038H10.227A2.725,2.725,0,0,1,7.5,34.313V7.5H23.151A4.046,4.046,0,0,1,27.2,11.545Z" transform="translate(-7.503 -7.5)" fill="#fff683"/>
              <path id="Path_1161257" data-name="Path 1161257" d="M27.2,11.545V37.038H10.228A2.725,2.725,0,0,1,7.5,34.313V30.35H23.165a1.33,1.33,0,0,0,1.35-1.321V11.545A4.046,4.046,0,0,0,20.47,7.5h2.68A4.045,4.045,0,0,1,27.2,11.545Z" transform="translate(-7.503 -7.5)" fill="#ffe45c"/>
              <path id="Path_1161258" data-name="Path 1161258" d="M203.527,7.5V34.313a2.725,2.725,0,0,1-2.725,2.725H183.834V11.545A4.045,4.045,0,0,1,187.878,7.5Z" transform="translate(-164.141 -7.5)" fill="#fff683"/>
              <path id="Path_1161259" data-name="Path 1161259" d="M203.527,7.5V34.313a2.725,2.725,0,0,1-2.725,2.725H183.834V34.4a4.044,4.044,0,0,1,4.044-4.045h11.876a1.322,1.322,0,0,0,1.322-1.322V7.5Z" transform="translate(-164.141 -7.5)" fill="#ffe45c"/>
              <g id="Group_1220848" data-name="Group 1220848" transform="translate(0 25.493)">
                <path id="Path_1161260" data-name="Path 1161260" d="M27.2,239.807H10.227A2.725,2.725,0,0,1,7.5,237.082v-1.32H23.151A4.045,4.045,0,0,1,27.2,239.807Z" transform="translate(-7.503 -235.762)" fill="#ffc35a"/>
                <path id="Path_1161261" data-name="Path 1161261" d="M203.527,235.762v1.32a2.725,2.725,0,0,1-2.725,2.725H183.834a4.044,4.044,0,0,1,4.044-4.045Z" transform="translate(-164.141 -235.762)" fill="#ffc35a"/>
              </g>
            </g>
          </g>
        </g>
        <g id="Group_1220852" data-name="Group 1220852" transform="translate(0 0)">
          <path id="Path_1161262" data-name="Path 1161262" d="M56.442,44.841c-1.45-4.491-4.644-7.686-7.893-7.977V34.33a.838.838,0,0,0-.838-.838H46.674a3.494,3.494,0,0,1,3.387-2.645,7.107,7.107,0,1,0,0-14.215H41.117v-5.42a.838.838,0,0,0-1.676,0v14.28H24.609A4.871,4.871,0,0,0,21.4,26.7V4.882a3.213,3.213,0,0,1,3.212-3.207H39.441V7.314a.838.838,0,0,0,1.676,0V.838A.838.838,0,0,0,40.279,0H24.609a4.889,4.889,0,0,0-4.05,2.151A4.884,4.884,0,0,0,16.512,0H.838A.838.838,0,0,0,0,.838V27.65a3.567,3.567,0,0,0,3.564,3.562H37.551a3.568,3.568,0,0,0,3.566-3.562V18.307h8.944a5.432,5.432,0,1,1,0,10.864,5.171,5.171,0,0,0-5.1,4.321H43.69a.838.838,0,0,0-.838.838v2.513H39.225a.838.838,0,1,0,0,1.675H48.05c2.654-.013,5.515,2.865,6.8,6.838,1.129,3.5.772,7.1-.888,8.959a3.494,3.494,0,0,1-1.539,1.031c-2.174.7-4.939-1.019-6.722-4.188a.838.838,0,0,0-.73-.427H34.142a.838.838,0,0,0-.73.427c-1.783,3.169-4.548,4.893-6.722,4.188a3.5,3.5,0,0,1-1.539-1.03c-1.66-1.862-2.016-5.463-.888-8.959,1.28-3.965,4.13-6.838,6.786-6.838H35.3a.838.838,0,1,0,0-1.675H31.046c-3.413,0-6.856,3.285-8.378,8C21.343,48.947,21.826,53.1,23.9,55.43a5.147,5.147,0,0,0,2.274,1.51c2.879.931,6.228-.884,8.449-4.534h9.864c1.833,3.013,4.435,4.776,6.906,4.775a5,5,0,0,0,1.543-.241,5.149,5.149,0,0,0,2.275-1.51c2.073-2.326,2.556-6.482,1.231-10.588ZM19.72,26.7a4.871,4.871,0,0,0-3.212-1.205H9.071a.838.838,0,1,0,0,1.675h7.437a3.217,3.217,0,0,1,3.1,2.369H3.564A1.889,1.889,0,0,1,1.676,27.65v-.482H5.2a.838.838,0,1,0,0-1.675H1.676V1.675H16.512A3.211,3.211,0,0,1,19.72,4.882Zm19.721.953a1.891,1.891,0,0,1-1.89,1.887H21.508a3.217,3.217,0,0,1,3.1-2.369H39.441Zm7.432,9.192H44.528V35.167h2.346Z" transform="translate(0 0)"/>
          <path id="Path_1161263" data-name="Path 1161263" d="M252.677,377.458a.838.838,0,0,0,.838-.838v-2.095h2.092a.838.838,0,1,0,0-1.675h-2.092v-2.095a.838.838,0,0,0-1.676,0v2.095h-2.091a.838.838,0,1,0,0,1.675h2.091v2.095A.838.838,0,0,0,252.677,377.458Z" transform="translate(-221.111 -328.605)"/>
          <path id="Path_1161264" data-name="Path 1161264" d="M46.751,48.5H35.967a.838.838,0,1,0,0,1.675H46.751a.838.838,0,1,0,0-1.675Z" transform="translate(-31.206 -43.083)"/>
          <path id="Path_1161265" data-name="Path 1161265" d="M46.751,92.734H35.967a.838.838,0,1,0,0,1.675H46.751a.838.838,0,1,0,0-1.675Z" transform="translate(-31.206 -82.377)"/>
          <path id="Path_1161266" data-name="Path 1161266" d="M46.751,136.967H35.967a.838.838,0,1,0,0,1.675H46.751a.838.838,0,1,0,0-1.675Z" transform="translate(-31.206 -121.67)"/>
          <path id="Path_1161267" data-name="Path 1161267" d="M46.751,181.2H35.967a.838.838,0,1,0,0,1.675H46.751a.838.838,0,1,0,0-1.675Z" transform="translate(-31.206 -160.963)"/>
          <path id="Path_1161268" data-name="Path 1161268" d="M233.045,48.5H222.261a.838.838,0,1,0,0,1.675h10.784a.838.838,0,1,0,0-1.675Z" transform="translate(-196.694 -43.083)"/>
          <path id="Path_1161269" data-name="Path 1161269" d="M233.045,92.734H222.261a.838.838,0,1,0,0,1.675h10.784a.838.838,0,1,0,0-1.675Z" transform="translate(-196.694 -82.377)"/>
          <path id="Path_1161270" data-name="Path 1161270" d="M233.045,136.967H222.261a.838.838,0,1,0,0,1.675h10.784a.838.838,0,1,0,0-1.675Z" transform="translate(-196.694 -121.67)"/>
          <path id="Path_1161271" data-name="Path 1161271" d="M233.045,181.2H222.261a.838.838,0,1,0,0,1.675h10.784a.838.838,0,1,0,0-1.675Z" transform="translate(-196.694 -160.963)"/>
          <ellipse id="Ellipse_12645" data-name="Ellipse 12645" cx="0.838" cy="0.838" rx="0.838" ry="0.838" transform="translate(43.776 44.246)"/>
          <ellipse id="Ellipse_12646" data-name="Ellipse 12646" cx="0.838" cy="0.838" rx="0.838" ry="0.838" transform="translate(49.635 44.246)"/>
          <ellipse id="Ellipse_12647" data-name="Ellipse 12647" cx="0.838" cy="0.838" rx="0.838" ry="0.838" transform="translate(46.75 41.358)"/>
          <ellipse id="Ellipse_12648" data-name="Ellipse 12648" cx="0.838" cy="0.838" rx="0.838" ry="0.838" transform="translate(46.75 47.133)"/>
        </g>
      </g>
    </g>
  </g>
</svg>
