<svg xmlns="http://www.w3.org/2000/svg" xmlns:xlink="http://www.w3.org/1999/xlink" width="113" height="113" viewBox="0 0 113 113">
  <defs>
    <filter id="Path_982547" x="0" y="0" width="113" height="113" filterUnits="userSpaceOnUse">
      <feOffset dy="3" input="SourceAlpha"/>
      <feGaussianBlur stdDeviation="3" result="blur"/>
      <feFlood flood-opacity="0.161"/>
      <feComposite operator="in" in2="blur"/>
      <feComposite in="SourceGraphic"/>
    </filter>
  </defs>
  <g id="Group_1220866" data-name="Group 1220866" transform="translate(-900.68 -990.187)">
    <g id="Group_1220765" data-name="Group 1220765" transform="translate(0 -16)">
      <g id="Group_1220475" data-name="Group 1220475" transform="translate(-0.32 62.918)">
        <g id="Group_1219625" data-name="Group 1219625" transform="translate(0 -5515.518)">
          <g id="Group_1203674" data-name="Group 1203674" transform="translate(0 557.5)">
            <g id="Group_1202434" data-name="Group 1202434" transform="translate(-0.56 1255.773)">
              <g id="Group_1202053" data-name="Group 1202053" transform="translate(0 3240.511)">
                <g id="Group_1177898" data-name="Group 1177898" transform="translate(910.561 1411.003)">
                  <g id="Group_1172010" data-name="Group 1172010" transform="translate(0)">
                    <g id="Group_1171046" data-name="Group 1171046">
                      <g id="Group_1148525" data-name="Group 1148525">
                        <g transform="matrix(1, 0, 0, 1, -9, -6)" filter="url(#Path_982547)">
                          <g id="Path_982547-2" data-name="Path 982547" transform="translate(9 6)" fill="#fdecc1">
                            <path d="M 47.5 93.5 C 41.28937149047852 93.5 35.26533508300781 92.28397369384766 29.59518623352051 89.88570404052734 C 24.11771965026855 87.56893157958984 19.19813346862793 84.25196075439453 14.97309303283691 80.02691650390625 C 10.74804019927979 75.80186462402344 7.431066513061523 70.88229370117188 5.114293098449707 65.40481567382812 C 2.716026782989502 59.73468017578125 1.5 53.71062850952148 1.5 47.5 C 1.5 41.28937149047852 2.716026782989502 35.26533508300781 5.114293098449707 29.59518623352051 C 7.431066513061523 24.11771965026855 10.74804019927979 19.19813346862793 14.97309303283691 14.97309303283691 C 19.19813346862793 10.74804019927979 24.11771965026855 7.431066513061523 29.59518623352051 5.114293098449707 C 35.26533508300781 2.716026782989502 41.28937149047852 1.5 47.5 1.5 C 53.71062850952148 1.5 59.73468017578125 2.716026782989502 65.40481567382812 5.114293098449707 C 70.88229370117188 7.431066513061523 75.80186462402344 10.74804019927979 80.02691650390625 14.97309303283691 C 84.25196075439453 19.19813346862793 87.56893157958984 24.11771965026855 89.88570404052734 29.59518623352051 C 92.28397369384766 35.26533508300781 93.5 41.28937149047852 93.5 47.5 C 93.5 53.71062850952148 92.28397369384766 59.73468017578125 89.88570404052734 65.40481567382812 C 87.56893157958984 70.88229370117188 84.25196075439453 75.80186462402344 80.02691650390625 80.02691650390625 C 75.80186462402344 84.25196075439453 70.88229370117188 87.56893157958984 65.40481567382812 89.88570404052734 C 59.73468017578125 92.28397369384766 53.71062850952148 93.5 47.5 93.5 Z" stroke="none"/>
                            <path d="M 47.5 3 C 41.49121475219727 3 35.66376876831055 4.176155090332031 30.17950439453125 6.495796203613281 C 24.88084411621094 8.736953735351562 20.12152099609375 11.94598388671875 16.03375244140625 16.03375244140625 C 11.94598388671875 20.12152099609375 8.736953735351562 24.88084411621094 6.495796203613281 30.17950439453125 C 4.176155090332031 35.66376876831055 3 41.49121475219727 3 47.5 C 3 53.50878524780273 4.176155090332031 59.33623123168945 6.495796203613281 64.82049560546875 C 8.736953735351562 70.11915588378906 11.94598388671875 74.87847900390625 16.03375244140625 78.96624755859375 C 20.12152099609375 83.05401611328125 24.88084411621094 86.26304626464844 30.17950439453125 88.50419616699219 C 35.66376876831055 90.82384490966797 41.49121475219727 92 47.5 92 C 53.50878524780273 92 59.33623123168945 90.82384490966797 64.82049560546875 88.50419616699219 C 70.11915588378906 86.26304626464844 74.87847900390625 83.05401611328125 78.96624755859375 78.96624755859375 C 83.05401611328125 74.87847900390625 86.26304626464844 70.11915588378906 88.50419616699219 64.82049560546875 C 90.82384490966797 59.33623123168945 92 53.50878524780273 92 47.5 C 92 41.49121475219727 90.82384490966797 35.66376876831055 88.50419616699219 30.17950439453125 C 86.26304626464844 24.88084411621094 83.05401611328125 20.12152099609375 78.96624755859375 16.03375244140625 C 74.87847900390625 11.94598388671875 70.11915588378906 8.736953735351562 64.82049560546875 6.495796203613281 C 59.33623123168945 4.176155090332031 53.50878524780273 3 47.5 3 M 47.5 0 C 73.7335205078125 0 95 21.2664794921875 95 47.5 C 95 73.7335205078125 73.7335205078125 95 47.5 95 C 21.2664794921875 95 0 73.7335205078125 0 47.5 C 0 21.2664794921875 21.2664794921875 0 47.5 0 Z" stroke="none" fill="#f8c234"/>
                          </g>
                        </g>
                      </g>
                    </g>
                  </g>
                </g>
              </g>
            </g>
          </g>
        </g>
      </g>
      <g id="graduacion" transform="translate(926.776 1029.465)">
        <g id="Group_1220749" data-name="Group 1220749" transform="translate(1.091 5.656)">
          <g id="Group_1220739" data-name="Group 1220739" transform="translate(14.939 49.443)">
            <path id="Path_1160582" data-name="Path 1160582" d="M162.573,471.215H134.684a.429.429,0,0,1-.429-.429v-2.232a1.8,1.8,0,0,1,1.8-1.8H161.2a1.8,1.8,0,0,1,1.8,1.8v2.232A.429.429,0,0,1,162.573,471.215Z" transform="translate(-134.255 -466.756)" fill="#c5d3dd"/>
          </g>
          <g id="Group_1220740" data-name="Group 1220740" transform="translate(39.527 49.443)">
            <path id="Path_1160583" data-name="Path 1160583" d="M346.706,468.553v2.233a.429.429,0,0,1-.429.429h-1.932v-2.662a1.8,1.8,0,0,0-1.8-1.8h2.361A1.8,1.8,0,0,1,346.706,468.553Z" transform="translate(-342.547 -466.755)" fill="#b6c4cf"/>
          </g>
          <g id="Group_1220741" data-name="Group 1220741" transform="translate(21.881 41.296)">
            <path id="Path_1160584" data-name="Path 1160584" d="M193.067,397.738h14.862v8.147H193.067Z" transform="translate(-193.067 -397.738)" fill="#8d9ca8"/>
          </g>
          <g id="Group_1220742" data-name="Group 1220742" transform="translate(34.383 41.296)">
            <path id="Path_1160585" data-name="Path 1160585" d="M298.967,397.738h2.361v8.147h-2.361Z" transform="translate(-298.967 -397.738)" fill="#7a8c98"/>
          </g>
          <g id="Group_1220743" data-name="Group 1220743" transform="translate(0 0)">
            <path id="Path_1160586" data-name="Path 1160586" d="M63.731,89.212H10.306a2.6,2.6,0,0,1-2.6-2.6v-36.1a2.6,2.6,0,0,1,2.6-2.6H63.731a2.6,2.6,0,0,1,2.6,2.6v36.1A2.6,2.6,0,0,1,63.731,89.212Z" transform="translate(-7.706 -47.917)" fill="#596c76"/>
          </g>
          <g id="Group_1220744" data-name="Group 1220744" transform="translate(53.509)">
            <path id="Path_1160587" data-name="Path 1160587" d="M466.1,50.514v36.1a2.6,2.6,0,0,1-2.6,2.6h-2.517a2.6,2.6,0,0,0,2.6-2.6v-36.1a2.6,2.6,0,0,0-2.6-2.6H463.5A2.6,2.6,0,0,1,466.1,50.514Z" transform="translate(-460.987 -47.915)" fill="#465a61"/>
          </g>
          <g id="Group_1220745" data-name="Group 1220745" transform="translate(0 35.501)">
            <path id="Path_1160588" data-name="Path 1160588" d="M63.731,354.443H10.306a2.6,2.6,0,0,1-2.6-2.6v-3.2H66.331v3.2A2.6,2.6,0,0,1,63.731,354.443Z" transform="translate(-7.706 -348.648)" fill="#c5d3dd"/>
          </g>
          <g id="Group_1220746" data-name="Group 1220746" transform="translate(53.509 35.5)">
            <path id="Path_1160589" data-name="Path 1160589" d="M466.1,348.645v3.2a2.6,2.6,0,0,1-2.6,2.6h-2.517a2.6,2.6,0,0,0,2.6-2.6v-3.2Z" transform="translate(-460.987 -348.645)" fill="#b6c4cf"/>
          </g>
          <g id="Group_1220747" data-name="Group 1220747" transform="translate(4.063 3.767)">
            <path id="Path_1160590" data-name="Path 1160590" d="M92.625,111.56h-50.5V80.607a.781.781,0,0,1,.781-.781H91.845a.781.781,0,0,1,.781.781Z" transform="translate(-42.127 -79.826)" fill="#f2fbff"/>
          </g>
          <g id="Group_1220748" data-name="Group 1220748" transform="translate(51.42 3.767)">
            <path id="Path_1160591" data-name="Path 1160591" d="M446.438,80.605v30.953h-2.361V80.605a.78.78,0,0,0-.78-.78h2.361A.78.78,0,0,1,446.438,80.605Z" transform="translate(-443.297 -79.825)" fill="#dff6fd"/>
          </g>
        </g>
        <g id="Group_1220750" data-name="Group 1220750" transform="translate(11.008 0.885)">
          <path id="Path_1160592" data-name="Path 1160592" d="M130.5,47.772H91.713V8.138a.638.638,0,0,1,.638-.638h37.516a.638.638,0,0,1,.638.638V47.772Z" transform="translate(-91.713 -7.5)" fill="#f9f7f8"/>
        </g>
        <g id="Group_1220751" data-name="Group 1220751" transform="translate(46.791 0.886)">
          <path id="Path_1160593" data-name="Path 1160593" d="M397.845,8.142V47.776h-2.37V8.142a.637.637,0,0,0-.637-.637h2.37A.637.637,0,0,1,397.845,8.142Z" transform="translate(-394.837 -7.505)" fill="#efedef"/>
        </g>
        <g id="Group_1220752" data-name="Group 1220752" transform="translate(11.008 0.885)">
          <path id="Path_1160594" data-name="Path 1160594" d="M130.5,13.391H91.713V8.138a.638.638,0,0,1,.638-.638h37.516a.638.638,0,0,1,.638.638v5.253Z" transform="translate(-91.713 -7.5)" fill="#c8effe"/>
        </g>
        <g id="Group_1220753" data-name="Group 1220753" transform="translate(46.791 0.886)">
          <path id="Path_1160595" data-name="Path 1160595" d="M397.845,8.142v5.252h-2.37V8.142a.637.637,0,0,0-.637-.637h2.37A.637.637,0,0,1,397.845,8.142Z" transform="translate(-394.837 -7.505)" fill="#99e6fc"/>
        </g>
        <g id="Group_1220755" data-name="Group 1220755" transform="translate(16.592 31.535)">
          <g id="Group_1220754" data-name="Group 1220754">
            <path id="Path_1160596" data-name="Path 1160596" d="M166.126,272.788H139.52a.509.509,0,0,1-.509-.509v-4.632a.509.509,0,0,1,.509-.509h26.606a.509.509,0,0,1,.509.509v4.632A.509.509,0,0,1,166.126,272.788Z" transform="translate(-139.011 -267.138)" fill="#fedba6"/>
          </g>
        </g>
        <g id="Group_1220757" data-name="Group 1220757" transform="translate(41.346 31.535)">
          <g id="Group_1220756" data-name="Group 1220756">
            <path id="Path_1160597" data-name="Path 1160597" d="M351.578,267.645v4.631a.51.51,0,0,1-.51.51h-2.361a.51.51,0,0,0,.51-.51v-4.631a.51.51,0,0,0-.51-.51h2.361A.51.51,0,0,1,351.578,267.645Z" transform="translate(-348.707 -267.135)" fill="#fece85"/>
          </g>
        </g>
        <g id="Group_1220763" data-name="Group 1220763" transform="translate(16.945 10.747)">
          <g id="Group_1220758" data-name="Group 1220758" transform="translate(5.159 7.022)">
            <path id="Path_1160598" data-name="Path 1160598" d="M193.277,150.525H185.7v6.31a.943.943,0,0,0,.665.9c.647.2,1.553.479,1.682.517,3.646,1.067,8.736,1.111,12.289-.651a.936.936,0,0,0,.514-.841v-6.236h-7.575Z" transform="translate(-185.702 -150.525)" fill="#8d9ca8"/>
          </g>
          <g id="Group_1220759" data-name="Group 1220759" transform="translate(17.816 7.022)">
            <path id="Path_1160599" data-name="Path 1160599" d="M295.419,150.525v6.236a.935.935,0,0,1-.514.84,11.946,11.946,0,0,1-1.978.76.951.951,0,0,0,.131-.482v-7.356Z" transform="translate(-292.927 -150.525)" fill="#7a8c98"/>
          </g>
          <g id="Group_1220760" data-name="Group 1220760">
            <path id="Path_1160600" data-name="Path 1160600" d="M154.28,91.134l-12.139,5.136a.227.227,0,0,0,0,.418l12.139,5.136a1.171,1.171,0,0,0,.912,0l12.139-5.136a.227.227,0,0,0,0-.418l-12.139-5.136A1.171,1.171,0,0,0,154.28,91.134Z" transform="translate(-142.002 -91.041)" fill="#596c76"/>
          </g>
          <g id="Group_1220761" data-name="Group 1220761" transform="translate(10.445 0)">
            <path id="Path_1160601" data-name="Path 1160601" d="M245.37,96.691l-12.139,5.135a1.166,1.166,0,0,1-.913,0l-1.832-.776,10.307-4.359a.227.227,0,0,0,0-.418l-10.307-4.361,1.832-.776a1.176,1.176,0,0,1,.913,0l12.139,5.136A.227.227,0,0,1,245.37,96.691Z" transform="translate(-230.487 -91.045)" fill="#465a61"/>
          </g>
          <g id="Group_1220762" data-name="Group 1220762" transform="translate(24.016 11.26)">
            <path id="Path_1160602" data-name="Path 1160602" d="M346.9,191.048a1.451,1.451,0,0,1-1.451-1.451v-1.721a1.451,1.451,0,1,1,2.9,0V189.6A1.451,1.451,0,0,1,346.9,191.048Z" transform="translate(-345.446 -186.425)" fill="#596c76"/>
          </g>
        </g>
        <g id="Group_1220764" data-name="Group 1220764" transform="translate(0.206 0)">
          <path id="Path_1160603" data-name="Path 1160603" d="M57.117,4.771H50.685V1.523A1.525,1.525,0,0,0,49.162,0H11.646a1.525,1.525,0,0,0-1.523,1.523V4.771H3.691A3.489,3.489,0,0,0,.206,8.256v7.473a.885.885,0,0,0,1.771,0V8.256A1.716,1.716,0,0,1,3.691,6.542h6.432v2H5.935A1.668,1.668,0,0,0,4.269,10.2V40.271H1.977V19.744a.885.885,0,0,0-1.771,0V44.352a3.489,3.489,0,0,0,3.485,3.485h18.4v6.377H17.828A2.687,2.687,0,0,0,15.145,56.9v2.232a1.316,1.316,0,0,0,1.315,1.315H44.348a1.316,1.316,0,0,0,1.315-1.315V56.9a2.687,2.687,0,0,0-2.683-2.684H38.72V47.837h18.4A3.489,3.489,0,0,0,60.6,44.352V8.256a3.489,3.489,0,0,0-3.485-3.485Zm-6.432,5.537h4.083V40.271H50.685ZM11.894,1.771h37.02V5.89H11.894Zm0,5.89h37.02v32.61H11.894ZM6.04,10.308h4.083V40.271H6.04ZM42.979,55.985a.914.914,0,0,1,.913.913v1.776H16.915V56.9a.914.914,0,0,1,.913-.913ZM23.858,54.214V47.837H36.949v6.377Zm34.973-9.862a1.716,1.716,0,0,1-1.714,1.714H3.691a1.716,1.716,0,0,1-1.714-1.714v-2.31H58.831Zm0-4.081H56.538V10.2a1.668,1.668,0,0,0-1.666-1.666H50.685v-2h6.432a1.716,1.716,0,0,1,1.714,1.714Z" transform="translate(-0.206 0)"/>
          <path id="Path_1160604" data-name="Path 1160604" d="M159.511,259.637h-3.525a.885.885,0,1,0,0,1.771h3.15v3.88H133.282v-3.88h18.53a.885.885,0,1,0,0-1.771H132.906a1.4,1.4,0,0,0-1.395,1.395v4.632a1.4,1.4,0,0,0,1.395,1.395h26.606a1.4,1.4,0,0,0,1.395-1.395v-4.632A1.4,1.4,0,0,0,159.511,259.637Z" transform="translate(-116.011 -228.988)"/>
          <path id="Path_1160605" data-name="Path 1160605" d="M135.181,90.9l4.48,1.9v4.975a1.82,1.82,0,0,0,1.289,1.747c1.036.32,1.591.49,1.695.521a20.946,20.946,0,0,0,5.739.782,16.427,16.427,0,0,0,7.192-1.489,1.833,1.833,0,0,0,1.006-1.634v-4.9l3.388-1.433v3.626a2.339,2.339,0,0,0-1.451,2.161v1.721a2.336,2.336,0,1,0,4.673,0V97.145a2.339,2.339,0,0,0-1.451-2.161s0-5.1,0-5.107,0,0,0-.006,0-.021,0-.031,0-.039,0-.058a1.108,1.108,0,0,0-.672-.935l-12.138-5.136a2.068,2.068,0,0,0-1.6,0l-12.139,5.136a1.112,1.112,0,0,0,0,2.049Zm25.108,6.249a.566.566,0,0,1,1.131,0v1.721a.566.566,0,1,1-1.131,0Zm-5.478.547a.056.056,0,0,1-.022.048c-3.487,1.73-8.481,1.521-11.647.594-.065-.019-.407-.123-1.669-.513a.058.058,0,0,1-.041-.056V93.54l5.888,2.491a2.068,2.068,0,0,0,1.6,0l5.888-2.491Zm-6.8-12.35a.287.287,0,0,1,.223,0L156.88,89h-8.013a.885.885,0,1,0,0,1.771h7.944L148.232,94.4a.286.286,0,0,1-.222,0L137.3,89.872Z" transform="translate(-118.649 -73.687)"/>
          <circle id="Ellipse_12639" data-name="Ellipse 12639" cx="0.885" cy="0.885" r="0.885" transform="translate(21.416 33.475)"/>
          <circle id="Ellipse_12640" data-name="Ellipse 12640" cx="0.885" cy="0.885" r="0.885" transform="translate(25.364 33.475)"/>
          <circle id="Ellipse_12641" data-name="Ellipse 12641" cx="0.885" cy="0.885" r="0.885" transform="translate(29.312 33.475)"/>
          <circle id="Ellipse_12642" data-name="Ellipse 12642" cx="0.885" cy="0.885" r="0.885" transform="translate(33.261 33.475)"/>
          <circle id="Ellipse_12643" data-name="Ellipse 12643" cx="0.885" cy="0.885" r="0.885" transform="translate(37.209 33.475)"/>
        </g>
      </g>
    </g>
  </g>
</svg>
