<svg xmlns="http://www.w3.org/2000/svg" xmlns:xlink="http://www.w3.org/1999/xlink" width="113" height="113" viewBox="0 0 113 113">
  <defs>
    <filter id="Path_982547" x="0" y="0" width="113" height="113" filterUnits="userSpaceOnUse">
      <feOffset dy="3" input="SourceAlpha"/>
      <feGaussianBlur stdDeviation="3" result="blur"/>
      <feFlood flood-opacity="0.161"/>
      <feComposite operator="in" in2="blur"/>
      <feComposite in="SourceGraphic"/>
    </filter>
  </defs>
  <g id="Group_1220865" data-name="Group 1220865" transform="translate(-586.68 -990.187)">
    <g id="Group_1220738" data-name="Group 1220738" transform="translate(0 -16)">
      <g id="Group_1220474" data-name="Group 1220474" transform="translate(1.255 62.918)">
        <g id="Group_1219624" data-name="Group 1219624" transform="translate(0 -5515.518)">
          <g id="Group_1203673" data-name="Group 1203673" transform="translate(-0.575 557.5)">
            <g id="Group_1202433" data-name="Group 1202433" transform="translate(-0.56 1255.773)">
              <g id="Group_1202054" data-name="Group 1202054" transform="translate(0 3240.511)">
                <g id="Group_1177897" data-name="Group 1177897" transform="translate(595.561 1411.003)">
                  <g id="Group_1172010" data-name="Group 1172010" transform="translate(0)">
                    <g id="Group_1171046" data-name="Group 1171046">
                      <g id="Group_1148525" data-name="Group 1148525">
                        <g transform="matrix(1, 0, 0, 1, -9, -6)" filter="url(#Path_982547)">
                          <g id="Path_982547-2" data-name="Path 982547" transform="translate(9 6)" fill="#fdecc1">
                            <path d="M 47.5 93.5 C 41.28937149047852 93.5 35.26533508300781 92.28397369384766 29.59518623352051 89.88570404052734 C 24.11771965026855 87.56893157958984 19.19813346862793 84.25196075439453 14.97309303283691 80.02691650390625 C 10.74804019927979 75.80186462402344 7.431066513061523 70.88229370117188 5.114293098449707 65.40481567382812 C 2.716026782989502 59.73468017578125 1.5 53.71062850952148 1.5 47.5 C 1.5 41.28937149047852 2.716026782989502 35.26533508300781 5.114293098449707 29.59518623352051 C 7.431066513061523 24.11771965026855 10.74804019927979 19.19813346862793 14.97309303283691 14.97309303283691 C 19.19813346862793 10.74804019927979 24.11771965026855 7.431066513061523 29.59518623352051 5.114293098449707 C 35.26533508300781 2.716026782989502 41.28937149047852 1.5 47.5 1.5 C 53.71062850952148 1.5 59.73468017578125 2.716026782989502 65.40481567382812 5.114293098449707 C 70.88229370117188 7.431066513061523 75.80186462402344 10.74804019927979 80.02691650390625 14.97309303283691 C 84.25196075439453 19.19813346862793 87.56893157958984 24.11771965026855 89.88570404052734 29.59518623352051 C 92.28397369384766 35.26533508300781 93.5 41.28937149047852 93.5 47.5 C 93.5 53.71062850952148 92.28397369384766 59.73468017578125 89.88570404052734 65.40481567382812 C 87.56893157958984 70.88229370117188 84.25196075439453 75.80186462402344 80.02691650390625 80.02691650390625 C 75.80186462402344 84.25196075439453 70.88229370117188 87.56893157958984 65.40481567382812 89.88570404052734 C 59.73468017578125 92.28397369384766 53.71062850952148 93.5 47.5 93.5 Z" stroke="none"/>
                            <path d="M 47.5 3 C 41.49121475219727 3 35.66376876831055 4.176155090332031 30.17950439453125 6.495796203613281 C 24.88084411621094 8.736953735351562 20.12152099609375 11.94598388671875 16.03375244140625 16.03375244140625 C 11.94598388671875 20.12152099609375 8.736953735351562 24.88084411621094 6.495796203613281 30.17950439453125 C 4.176155090332031 35.66376876831055 3 41.49121475219727 3 47.5 C 3 53.50878524780273 4.176155090332031 59.33623123168945 6.495796203613281 64.82049560546875 C 8.736953735351562 70.11915588378906 11.94598388671875 74.87847900390625 16.03375244140625 78.96624755859375 C 20.12152099609375 83.05401611328125 24.88084411621094 86.26304626464844 30.17950439453125 88.50419616699219 C 35.66376876831055 90.82384490966797 41.49121475219727 92 47.5 92 C 53.50878524780273 92 59.33623123168945 90.82384490966797 64.82049560546875 88.50419616699219 C 70.11915588378906 86.26304626464844 74.87847900390625 83.05401611328125 78.96624755859375 78.96624755859375 C 83.05401611328125 74.87847900390625 86.26304626464844 70.11915588378906 88.50419616699219 64.82049560546875 C 90.82384490966797 59.33623123168945 92 53.50878524780273 92 47.5 C 92 41.49121475219727 90.82384490966797 35.66376876831055 88.50419616699219 30.17950439453125 C 86.26304626464844 24.88084411621094 83.05401611328125 20.12152099609375 78.96624755859375 16.03375244140625 C 74.87847900390625 11.94598388671875 70.11915588378906 8.736953735351562 64.82049560546875 6.495796203613281 C 59.33623123168945 4.176155090332031 53.50878524780273 3 47.5 3 M 47.5 0 C 73.7335205078125 0 95 21.2664794921875 95 47.5 C 95 73.7335205078125 73.7335205078125 95 47.5 95 C 21.2664794921875 95 0 73.7335205078125 0 47.5 C 0 21.2664794921875 21.2664794921875 0 47.5 0 Z" stroke="none" fill="#f8c234"/>
                          </g>
                        </g>
                      </g>
                    </g>
                  </g>
                </g>
              </g>
            </g>
          </g>
        </g>
      </g>
      <g id="Layer_35" transform="translate(606.64 1025)">
        <g id="Group_1220737" data-name="Group 1220737" transform="translate(7.6 5)">
          <g id="Group_1220728" data-name="Group 1220728" transform="translate(1.023 5.113)">
            <path id="Path_1160562" data-name="Path 1160562" d="M50.891,12.5H20.076L9.1,23.817v43.9H50.891Z" transform="translate(-9.1 -12.5)" fill="#e3f3fa" fill-rule="evenodd"/>
          </g>
          <g id="Group_1220729" data-name="Group 1220729" transform="translate(1.023 5.113)">
            <path id="Path_1160563" data-name="Path 1160563" d="M20.076,12.5,9.1,23.817H20.076Z" transform="translate(-9.1 -12.5)" fill="#a8f1ff" fill-rule="evenodd"/>
          </g>
          <g id="Group_1220730" data-name="Group 1220730" transform="translate(36.746 5.113)">
            <path id="Path_1160564" data-name="Path 1160564" d="M61.5,12.5h6.068V67.721H61.5Z" transform="translate(-61.5 -12.5)" fill="#c9d9e0" fill-rule="evenodd"/>
          </g>
          <g id="Group_1220731" data-name="Group 1220731" transform="translate(27.133 1.023)">
            <path id="Path_1160565" data-name="Path 1160565" d="M77.056,26V9.022A2.561,2.561,0,0,0,74.533,6.5H49.922A2.561,2.561,0,0,0,47.4,9.022V26a2.561,2.561,0,0,0,2.522,2.522h5.045v7.022L63.08,28.52H74.6A2.5,2.5,0,0,0,77.056,26Z" transform="translate(-47.4 -6.5)" fill="#caeec2" fill-rule="evenodd"/>
          </g>
          <g id="Group_1220732" data-name="Group 1220732" transform="translate(48.199 1.023)">
            <path id="Path_1160566" data-name="Path 1160566" d="M86.89,26V9.022A2.561,2.561,0,0,0,84.368,6.5H78.3a2.561,2.561,0,0,1,2.522,2.522V26A2.561,2.561,0,0,1,78.3,28.52h6.068A2.517,2.517,0,0,0,86.89,26Z" transform="translate(-78.3 -6.5)" fill="#b7d4b0" fill-rule="evenodd"/>
          </g>
          <g id="Group_1220733" data-name="Group 1220733" transform="translate(8.045 22.975)">
            <path id="Path_1160567" data-name="Path 1160567" d="M19.4,38.7h6.477v6.477H19.4Z" transform="translate(-19.4 -38.7)" fill="#dff2d7" fill-rule="evenodd"/>
          </g>
          <g id="Group_1220734" data-name="Group 1220734" transform="translate(8.045 35.382)">
            <path id="Path_1160568" data-name="Path 1160568" d="M19.4,56.9h6.477v6.477H19.4Z" transform="translate(-19.4 -56.9)" fill="#dff2d7" fill-rule="evenodd"/>
          </g>
          <g id="Group_1220735" data-name="Group 1220735" transform="translate(8.045 47.722)">
            <path id="Path_1160569" data-name="Path 1160569" d="M19.4,75h6.477v6.477H19.4Z" transform="translate(-19.4 -75)" fill="#dff2d7" fill-rule="evenodd"/>
          </g>
          <g id="Group_1220736" data-name="Group 1220736">
            <path id="Path_1160570" data-name="Path 1160570" d="M36.623,40.345h3.545a1.023,1.023,0,1,0,0-2.045H36.623a1.023,1.023,0,1,0,0,2.045Z" transform="translate(-16.511 -15.598)"/>
            <path id="Path_1160571" data-name="Path 1160571" d="M36.623,47.645h8.249a1.023,1.023,0,0,0,0-2.045H36.623a1.023,1.023,0,1,0,0,2.045Z" transform="translate(-16.511 -17.921)"/>
            <path id="Path_1160572" data-name="Path 1160572" d="M51.621,63.7h-15a1.023,1.023,0,1,0,0,2.045h15a1.023,1.023,0,0,0,0-2.045Z" transform="translate(-16.511 -23.682)"/>
            <path id="Path_1160573" data-name="Path 1160573" d="M36.623,58.545h6.408a1.023,1.023,0,0,0,0-2.045H36.623a1.023,1.023,0,1,0,0,2.045Z" transform="translate(-16.511 -21.39)"/>
            <path id="Path_1160574" data-name="Path 1160574" d="M36.623,76.645h6.408a1.023,1.023,0,0,0,0-2.045H36.623a1.023,1.023,0,0,0,0,2.045Z" transform="translate(-16.511 -27.151)"/>
            <path id="Path_1160575" data-name="Path 1160575" d="M51.621,81.9h-15a1.023,1.023,0,1,0,0,2.045h15a1.023,1.023,0,1,0,0-2.045Z" transform="translate(-16.511 -29.474)"/>
            <path id="Path_1160576" data-name="Path 1160576" d="M61.867,5H37.256a3.521,3.521,0,0,0-3.545,3.545V9.09H19.6a1.1,1.1,0,0,0-.75.341L7.873,20.68a.977.977,0,0,0-.273.682v43.9a1.048,1.048,0,0,0,1.023,1.023H50.413a1.048,1.048,0,0,0,1.023-1.023v-36.2h10.5A3.521,3.521,0,0,0,65.48,25.52V8.545A3.623,3.623,0,0,0,61.867,5ZM18.576,12.636v7.772H11.009ZM9.645,64.312V22.453H19.6a1.048,1.048,0,0,0,1.023-1.023V11.136H33.711V25.52a3.521,3.521,0,0,0,3.545,3.545h4.022v6a1.028,1.028,0,0,0,.614.954.865.865,0,0,0,.409.068.875.875,0,0,0,.682-.273l6.408-5.522V64.312ZM63.366,25.52a1.513,1.513,0,0,1-1.5,1.5H50.413a.875.875,0,0,0-.682.273l-6.408,5.522V28.043A1.048,1.048,0,0,0,42.3,27.02H37.256a1.513,1.513,0,0,1-1.5-1.5V8.545a1.513,1.513,0,0,1,1.5-1.5H61.867a1.513,1.513,0,0,1,1.5,1.5Z" transform="translate(-7.6 -5)"/>
            <path id="Path_1160577" data-name="Path 1160577" d="M62.686,13.114a1.069,1.069,0,0,0-.954-.614,1.155,1.155,0,0,0-.954.614L55.664,24.976a1.038,1.038,0,0,0,1.909.818l1.5-3.409h5.386l1.5,3.409a.965.965,0,0,0,.954.614.865.865,0,0,0,.409-.068,1.028,1.028,0,0,0,.545-1.363Zm-2.727,7.158L61.8,16.045l1.841,4.227Z" transform="translate(-22.872 -7.387)"/>
            <path id="Path_1160578" data-name="Path 1160578" d="M78.495,15.186H77.131V13.823a1.023,1.023,0,0,0-2.045,0v1.363H73.723a1.023,1.023,0,1,0,0,2.045h1.363v1.363a1.023,1.023,0,0,0,2.045,0V17.231h1.363a1.023,1.023,0,0,0,0-2.045Z" transform="translate(-28.319 -7.482)"/>
            <path id="Path_1160579" data-name="Path 1160579" d="M25.3,37.2H18.823A1.048,1.048,0,0,0,17.8,38.223V44.7a1.048,1.048,0,0,0,1.023,1.023H25.3A1.048,1.048,0,0,0,26.322,44.7V38.223A1,1,0,0,0,25.3,37.2Zm-1.023,6.477H19.845V39.245h4.431Z" transform="translate(-10.846 -15.248)"/>
            <path id="Path_1160580" data-name="Path 1160580" d="M25.3,55.4H18.823A1.048,1.048,0,0,0,17.8,56.423V62.9a1.048,1.048,0,0,0,1.023,1.023H25.3A1.048,1.048,0,0,0,26.322,62.9V56.423A.966.966,0,0,0,25.3,55.4Zm-1.023,6.408H19.845V57.377h4.431Z" transform="translate(-10.846 -21.04)"/>
            <path id="Path_1160581" data-name="Path 1160581" d="M25.3,73.5H18.823A1.048,1.048,0,0,0,17.8,74.523V81a1.048,1.048,0,0,0,1.023,1.023H25.3A1.048,1.048,0,0,0,26.322,81V74.523A1,1,0,0,0,25.3,73.5Zm-1.023,6.477H19.845V75.545h4.431Z" transform="translate(-10.846 -26.801)"/>
          </g>
        </g>
      </g>
    </g>
  </g>
</svg>
