<svg xmlns="http://www.w3.org/2000/svg" xmlns:xlink="http://www.w3.org/1999/xlink" width="103" height="103" viewBox="0 0 103 103">
  <defs>
    <filter id="Path_978624" x="0" y="0" width="103" height="103" filterUnits="userSpaceOnUse">
      <feOffset dy="3" input="SourceAlpha"/>
      <feGaussianBlur stdDeviation="3" result="blur"/>
      <feFlood flood-opacity="0.161"/>
      <feComposite operator="in" in2="blur"/>
      <feComposite in="SourceGraphic"/>
    </filter>
  </defs>
  <g id="Group_1225049" data-name="Group 1225049" transform="translate(-618 -3170)">
    <g id="Group_1224923" data-name="Group 1224923">
      <g id="Group_1224368" data-name="Group 1224368" transform="translate(627 3176)">
        <g id="Group_1223780" data-name="Group 1223780" transform="translate(0 0)">
          <g id="Group_1220479" data-name="Group 1220479">
            <g id="Group_1214503" data-name="Group 1214503">
              <g id="Group_1211421" data-name="Group 1211421">
                <g id="Group_1208651" data-name="Group 1208651">
                  <g id="Group_1178144" data-name="Group 1178144">
                    <g id="Group_1177896" data-name="Group 1177896">
                      <g id="Group_1176881" data-name="Group 1176881">
                        <g id="Group_1175148" data-name="Group 1175148">
                          <g id="Group_1173798" data-name="Group 1173798">
                            <g id="Group_1171925" data-name="Group 1171925">
                              <g id="Group_1164524" data-name="Group 1164524">
                                <g id="Group_1144123" data-name="Group 1144123">
                                  <g transform="matrix(1, 0, 0, 1, -9, -6)" filter="url(#Path_978624)">
                                    <g id="Path_978624-2" data-name="Path 978624" transform="translate(9 6)" fill="#e8fcf6">
                                      <path d="M 42.5000114440918 83.5 C 36.96438980102539 83.5 31.59514045715332 82.41618347167969 26.54142379760742 80.27864074707031 C 21.65935325622559 78.21369934082031 17.27448272705078 75.25722503662109 13.50863456726074 71.49137878417969 C 9.742775917053223 67.72552490234375 6.786317348480225 63.34066390991211 4.721375942230225 58.45859146118164 C 2.583834886550903 53.40487289428711 1.500011444091797 48.03562545776367 1.500011444091797 42.50000381469727 C 1.500011444091797 36.96438217163086 2.583834886550903 31.59513282775879 4.721375942230225 26.54141616821289 C 6.786317348480225 21.65934562683105 9.742775917053223 17.27447509765625 13.50863456726074 13.50862693786621 C 17.27448272705078 9.742768287658691 21.65935325622559 6.786309719085693 26.54142379760742 4.721368312835693 C 31.59514045715332 2.583827257156372 36.96438980102539 1.500003814697266 42.5000114440918 1.500003814697266 C 48.0356330871582 1.500003814697266 53.40488052368164 2.583827257156372 58.45859909057617 4.721368312835693 C 63.34067153930664 6.786309719085693 67.72554016113281 9.742768287658691 71.49138641357422 13.50862693786621 C 75.25724792480469 17.27447509765625 78.21370697021484 21.65934562683105 80.27864837646484 26.54141616821289 C 82.41619110107422 31.59513282775879 83.50001525878906 36.96438217163086 83.50001525878906 42.50000381469727 C 83.50001525878906 48.03562545776367 82.41619110107422 53.40487289428711 80.27864837646484 58.45859146118164 C 78.21370697021484 63.34066390991211 75.25724792480469 67.72552490234375 71.49138641357422 71.49137878417969 C 67.72554016113281 75.25722503662109 63.34067153930664 78.21369934082031 58.45859909057617 80.27864074707031 C 53.40488052368164 82.41618347167969 48.0356330871582 83.5 42.5000114440918 83.5 Z" stroke="none"/>
                                      <path d="M 42.5000114440918 3.000007629394531 C 37.16622543334961 3.000007629394531 31.99357223510742 4.043960571289062 27.1257438659668 6.102882385253906 C 22.42247772216797 8.092193603515625 18.19786834716797 10.94071197509766 14.56929016113281 14.56928253173828 C 10.94071960449219 18.19786071777344 8.092201232910156 22.42247009277344 6.102890014648438 27.12573623657227 C 4.043968200683594 31.99356460571289 3.000007629394531 37.16621780395508 3.000007629394531 42.50000381469727 C 3.000007629394531 47.83378982543945 4.043968200683594 53.00644302368164 6.102890014648438 57.87425994873047 C 8.092201232910156 62.57753753662109 10.94071960449219 66.80213928222656 14.56929016113281 70.43072509765625 C 18.1978759765625 74.05929565429688 22.42247772216797 76.90781402587891 27.1257438659668 78.89712524414062 C 31.99357223510742 80.95604705810547 37.16622543334961 82 42.5000114440918 82 C 47.83379745483398 82 53.00645065307617 80.95604705810547 57.8742790222168 78.89712524414062 C 62.57754516601562 76.90781402587891 66.80214691162109 74.05929565429688 70.43073272705078 70.43072509765625 C 74.05930328369141 66.80213928222656 76.90782165527344 62.57753753662109 78.89713287353516 57.87425994873047 C 80.9560546875 53.00644302368164 82.00001525878906 47.83378982543945 82.00001525878906 42.50000381469727 C 82.00001525878906 37.16621780395508 80.9560546875 31.99356460571289 78.89713287353516 27.12573623657227 C 76.90782165527344 22.42247009277344 74.05930328369141 18.19786071777344 70.43073272705078 14.56928253173828 C 66.80215454101562 10.94071197509766 62.57754516601562 8.092193603515625 57.8742790222168 6.102882385253906 C 53.00645065307617 4.043960571289062 47.83379745483398 3.000007629394531 42.5000114440918 3.000007629394531 M 42.5000114440918 7.62939453125e-06 C 65.97212219238281 7.62939453125e-06 85.00001525878906 19.02790069580078 85.00001525878906 42.50000381469727 C 85.00001525878906 65.97209930419922 65.97212219238281 85 42.5000114440918 85 C 19.02790832519531 85 7.62939453125e-06 65.97209930419922 7.62939453125e-06 42.50000381469727 C 7.62939453125e-06 19.02790069580078 19.02790832519531 7.62939453125e-06 42.5000114440918 7.62939453125e-06 Z" stroke="none" fill="#157d60"/>
                                    </g>
                                  </g>
                                </g>
                              </g>
                            </g>
                          </g>
                        </g>
                      </g>
                    </g>
                  </g>
                </g>
              </g>
            </g>
          </g>
        </g>
      </g>
      <g id="asistente-de-ai_1_" data-name="asistente-de-ai (1)" transform="translate(641.929 3191.035)">
        <g id="Group_1224921" data-name="Group 1224921" transform="translate(0.924 0.805)">
          <g id="Group_1224920" data-name="Group 1224920">
            <g id="Group_1224894" data-name="Group 1224894" transform="translate(11.422)">
              <g id="Group_1224892" data-name="Group 1224892">
                <g id="Group_1224891" data-name="Group 1224891">
                  <path id="Path_1177348" data-name="Path 1177348" d="M139.705,60.82h-20.8a4.828,4.828,0,0,1-4.828-4.828V12.328A4.828,4.828,0,0,1,118.91,7.5h20.8a4.828,4.828,0,0,1,4.828,4.828V55.992A4.828,4.828,0,0,1,139.705,60.82Z" transform="translate(-114.082 -7.5)" fill="#f9f7f8"/>
                </g>
              </g>
              <g id="Group_1224893" data-name="Group 1224893" transform="translate(0.109 0.076)">
                <path id="Path_1177349" data-name="Path 1177349" d="M141.459,8.209v45.68a3.755,3.755,0,0,1-3.755,3.755H115.1a4.829,4.829,0,0,0,4.719,3.809h20.8a4.828,4.828,0,0,0,4.828-4.828V12.961A4.828,4.828,0,0,0,141.459,8.209Z" transform="translate(-115.095 -8.209)" fill="#efedef"/>
              </g>
            </g>
            <g id="Group_1224898" data-name="Group 1224898" transform="translate(18.181 22.378)">
              <g id="Group_1224897" data-name="Group 1224897">
                <g id="Group_1224895" data-name="Group 1224895" transform="translate(0 0)">
                  <path id="Path_1177350" data-name="Path 1177350" d="M177.084,231.147V217.954a1.87,1.87,0,0,1,1.87-1.87h13.192a1.87,1.87,0,0,1,1.87,1.87v13.192a1.87,1.87,0,0,1-1.87,1.87H178.954A1.87,1.87,0,0,1,177.084,231.147Z" transform="translate(-177.084 -216.084)" fill="#b9acac"/>
                </g>
                <g id="Group_1224896" data-name="Group 1224896">
                  <path id="Path_1177351" data-name="Path 1177351" d="M192.147,216.084h-.5v13.491a1.073,1.073,0,0,1-1.073,1.073H177.084v.5a1.87,1.87,0,0,0,1.87,1.87h13.192a1.87,1.87,0,0,0,1.87-1.87V217.954A1.87,1.87,0,0,0,192.147,216.084Z" transform="translate(-177.084 -216.084)" fill="#9e9797"/>
                </g>
              </g>
            </g>
            <g id="Group_1224916" data-name="Group 1224916" transform="translate(0 3.58)">
              <g id="Group_1224906" data-name="Group 1224906" transform="translate(39.843)">
                <g id="Group_1224899" data-name="Group 1224899">
                  <circle id="Ellipse_12521" data-name="Ellipse 12521" cx="6.726" cy="6.726" r="6.726" fill="#ffdfcf"/>
                </g>
                <g id="Group_1224900" data-name="Group 1224900" transform="translate(1.894 0.455)">
                  <path id="Path_1177352" data-name="Path 1177352" d="M403.916,45.1a6.725,6.725,0,0,1-7.262,10.947A6.725,6.725,0,1,0,403.916,45.1Z" transform="translate(-396.654 -45.104)" fill="#ffcebf"/>
                </g>
                <g id="Group_1224905" data-name="Group 1224905" transform="translate(2.599 3.447)">
                  <g id="Group_1224901" data-name="Group 1224901" transform="translate(0 6.127)">
                    <path id="Path_1177353" data-name="Path 1177353" d="M407.351,133.988a6.7,6.7,0,0,0,4.127-1.417,3.4,3.4,0,0,0-2.689-2.46,3.181,3.181,0,0,1-2.876,0,3.4,3.4,0,0,0-2.689,2.46A6.7,6.7,0,0,0,407.351,133.988Z" transform="translate(-403.224 -130.111)" fill="#fe5694"/>
                  </g>
                  <g id="Group_1224902" data-name="Group 1224902" transform="translate(0 6.432)">
                    <path id="Path_1177354" data-name="Path 1177354" d="M409.713,132.948a6.725,6.725,0,0,1-6.363,1.785,3.362,3.362,0,0,0-.125.371,6.718,6.718,0,0,0,8.254,0A3.4,3.4,0,0,0,409.713,132.948Z" transform="translate(-403.224 -132.948)" fill="#fd3581"/>
                  </g>
                  <g id="Group_1224903" data-name="Group 1224903" transform="translate(0.848)">
                    <circle id="Ellipse_12522" data-name="Ellipse 12522" cx="3.279" cy="3.279" r="3.279" fill="#d78878"/>
                  </g>
                  <g id="Group_1224904" data-name="Group 1224904" transform="translate(1.286 0.034)">
                    <path id="Path_1177355" data-name="Path 1177355" d="M418.52,73.309a3.278,3.278,0,0,1-2.841,4.915,3.3,3.3,0,0,1-.467-.034,3.279,3.279,0,1,0,3.308-4.882Z" transform="translate(-415.212 -73.309)" fill="#c96e59"/>
                  </g>
                </g>
              </g>
              <g id="Group_1224915" data-name="Group 1224915" transform="translate(0 32.709)">
                <g id="Group_1224907" data-name="Group 1224907">
                  <circle id="Ellipse_12523" data-name="Ellipse 12523" cx="6.726" cy="6.726" r="6.726" fill="#0593fc"/>
                </g>
                <g id="Group_1224908" data-name="Group 1224908">
                  <circle id="Ellipse_12524" data-name="Ellipse 12524" cx="6.726" cy="6.726" r="6.726" fill="#0593fc"/>
                </g>
                <g id="Group_1224909" data-name="Group 1224909" transform="translate(1.928 0.431)">
                  <path id="Path_1177356" data-name="Path 1177356" d="M32.759,349.771a6.726,6.726,0,0,1-7.169,11.006,6.725,6.725,0,1,0,7.169-11.006Z" transform="translate(-25.59 -349.771)" fill="#0182fc"/>
                </g>
                <g id="Group_1224914" data-name="Group 1224914" transform="translate(2.599 3.447)">
                  <g id="Group_1224910" data-name="Group 1224910" transform="translate(0 6.127)">
                    <path id="Path_1177357" data-name="Path 1177357" d="M35.97,438.872a6.7,6.7,0,0,0,4.127-1.417,3.4,3.4,0,0,0-2.689-2.46,3.181,3.181,0,0,1-2.876,0,3.4,3.4,0,0,0-2.689,2.46A6.694,6.694,0,0,0,35.97,438.872Z" transform="translate(-31.843 -434.995)" fill="#ffd15b"/>
                  </g>
                  <g id="Group_1224911" data-name="Group 1224911" transform="translate(0 6.427)">
                    <path id="Path_1177358" data-name="Path 1177358" d="M38.322,437.791a6.721,6.721,0,0,1-6.361,1.806,3.371,3.371,0,0,0-.119.354,6.718,6.718,0,0,0,8.254,0,3.4,3.4,0,0,0-1.774-2.16Z" transform="translate(-31.843 -437.791)" fill="#ffc344"/>
                  </g>
                  <g id="Group_1224912" data-name="Group 1224912" transform="translate(0.848)">
                    <circle id="Ellipse_12525" data-name="Ellipse 12525" cx="3.279" cy="3.279" r="3.279" fill="#ffdfcf"/>
                  </g>
                  <g id="Group_1224913" data-name="Group 1224913" transform="translate(1.299 0.024)">
                    <path id="Path_1177359" data-name="Path 1177359" d="M47.165,378.1a3.278,3.278,0,0,1-2.828,4.938,3.3,3.3,0,0,1-.388-.024,3.279,3.279,0,1,0,3.215-4.914Z" transform="translate(-43.95 -378.1)" fill="#ffcebf"/>
                  </g>
                </g>
              </g>
            </g>
            <g id="Group_1224919" data-name="Group 1224919" transform="translate(17.104 8.81)">
              <g id="Group_1224917" data-name="Group 1224917" transform="translate(0 0)">
                <path id="Path_1177360" data-name="Path 1177360" d="M182.938,89.62H170.248a3.2,3.2,0,0,0,0,6.4h4.364a.446.446,0,0,1,.313.128l1.356,1.329a.447.447,0,0,0,.625,0l1.356-1.329a.446.446,0,0,1,.313-.128h4.364a3.2,3.2,0,0,0,0-6.4Z" transform="translate(-167.05 -89.62)" fill="#00f2a6"/>
              </g>
              <g id="Group_1224918" data-name="Group 1224918" transform="translate(0.032)">
                <path id="Path_1177361" data-name="Path 1177361" d="M183.205,89.62h-.048a3.2,3.2,0,0,1-3.166,3.647H167.349a3.2,3.2,0,0,0,3.166,2.749h4.364a.446.446,0,0,1,.313.128l1.356,1.329a.446.446,0,0,0,.625,0l1.356-1.329a.446.446,0,0,1,.313-.128h4.364a3.2,3.2,0,1,0,0-6.4Z" transform="translate(-167.349 -89.62)" fill="#05e39c"/>
              </g>
            </g>
          </g>
        </g>
        <g id="Group_1224922" data-name="Group 1224922" transform="translate(0.119)">
          <path id="Path_1177362" data-name="Path 1177362" d="M216.1,30.967a.8.8,0,1,0,0-1.609h-9.07a.8.8,0,1,0,0,1.609Z" transform="translate(-184.114 -26.208)"/>
          <path id="Path_1177363" data-name="Path 1177363" d="M226.659,456.5a.8.8,0,1,0,0,1.609h4.859a.8.8,0,1,0,0-1.609Z" transform="translate(-201.636 -407.525)"/>
          <path id="Path_1177364" data-name="Path 1177364" d="M149.3,204.756a.8.8,0,1,0,0,1.609h1.561A2.685,2.685,0,0,0,152.7,208.2v1.561a.8.8,0,0,0,1.609,0V208.3h2.742v1.457a.8.8,0,1,0,1.609,0V208.3H161.4v1.457a.8.8,0,1,0,1.609,0V208.3h2.742v1.457a.8.8,0,0,0,1.609,0V208.2a2.685,2.685,0,0,0,1.835-1.835h1.561a.8.8,0,1,0,0-1.609H169.3v-2.742h1.457a.8.8,0,1,0,0-1.609H169.3v-2.742h1.457a.8.8,0,0,0,0-1.609H169.3V193.31h1.457a.8.8,0,1,0,0-1.609H169.2a2.685,2.685,0,0,0-1.835-1.835V188.3a.8.8,0,0,0-1.609,0v1.457h-2.742V188.3a.8.8,0,1,0-1.609,0v1.457h-2.742V188.3a.8.8,0,1,0-1.609,0v1.457H154.31V188.3a.8.8,0,1,0-1.609,0v1.561a2.685,2.685,0,0,0-1.835,1.835H149.3a.8.8,0,1,0,0,1.609h1.457v2.742H149.3a.8.8,0,0,0,0,1.609h1.457V200.4H149.3a.8.8,0,1,0,0,1.609h1.457v2.742H149.3Zm3.067-12.319a1.067,1.067,0,0,1,1.066-1.066h13.193a1.067,1.067,0,0,1,1.066,1.066v13.193a1.067,1.067,0,0,1-1.066,1.066H153.437a1.067,1.067,0,0,1-1.066-1.066Z" transform="translate(-132.581 -167.384)"/>
          <path id="Path_1177365" data-name="Path 1177365" d="M206.669,261.251a.8.8,0,0,0,1.038-.465l.513-1.347h3.472l.507,1.345a.8.8,0,1,0,1.506-.568l-2.826-7.489-.009-.022a.973.973,0,0,0-.9-.605h0a.974.974,0,0,0-.9.607l-.007.018-2.852,7.489A.8.8,0,0,0,206.669,261.251Zm3.3-6.392,1.121,2.97h-2.252Z" transform="translate(-184.047 -225.052)"/>
          <path id="Path_1177366" data-name="Path 1177366" d="M286.812,261.3a.8.8,0,0,0,.8-.8v-7.6a.8.8,0,0,0-1.609,0v7.6A.8.8,0,0,0,286.812,261.3Z" transform="translate(-255.336 -225.052)"/>
          <path id="Path_1177367" data-name="Path 1177367" d="M142.534,3.58a7.483,7.483,0,0,0-3.968,1.134A5.641,5.641,0,0,0,133.01,0h-20.8a5.639,5.639,0,0,0-5.632,5.632V10.3a.8.8,0,0,0,1.609,0V5.632a4.028,4.028,0,0,1,4.023-4.023h20.8a4.028,4.028,0,0,1,4.023,4.023v.343a7.511,7.511,0,0,0,0,10.27V40.982a.8.8,0,0,0,1.609,0V23.79h2.282a2.417,2.417,0,0,0,2.414-2.414V18.6a7.53,7.53,0,0,0-.8-15.017Zm-.8,17.8a.805.805,0,0,1-.8.8h-2.282V17.555a7.477,7.477,0,0,0,3.087,1.042Zm.8-4.345a5.884,5.884,0,0,1-3.151-.912,2.623,2.623,0,0,1,1.5-1.276,4.069,4.069,0,0,0,3.3,0,2.622,2.622,0,0,1,1.5,1.276,5.883,5.883,0,0,1-3.151.912Zm-2.474-5.921a2.474,2.474,0,1,1,2.474,2.474A2.477,2.477,0,0,1,140.059,11.11Zm6.877,3.955a4.165,4.165,0,0,0-1.3-1.305,4.083,4.083,0,1,0-6.207,0,4.176,4.176,0,0,0-1.3,1.305,5.921,5.921,0,1,1,8.8,0Z" transform="translate(-95.16)"/>
          <path id="Path_1177368" data-name="Path 1177368" d="M159.55,86.122a4.007,4.007,0,0,0,4,4h4.218l1.251,1.227a1.258,1.258,0,0,0,1.752,0l1.251-1.227h4.218a4,4,0,1,0,0-8H163.552A4.007,4.007,0,0,0,159.55,86.122Zm19.086,0a2.4,2.4,0,0,1-2.393,2.393h-4.364a1.244,1.244,0,0,0-.876.358L169.9,89.956l-1.105-1.084a1.244,1.244,0,0,0-.876-.358h-4.364a2.393,2.393,0,1,1,0-4.786h12.69A2.4,2.4,0,0,1,178.636,86.122Z" transform="translate(-142.446 -73.31)"/>
          <path id="Path_1177369" data-name="Path 1177369" d="M292.651,113.534h1.5a.8.8,0,1,0,0-1.609h-1.5a.8.8,0,1,0,0,1.609Z" transform="translate(-260.549 -99.917)"/>
          <path id="Path_1177370" data-name="Path 1177370" d="M191.218,112.73a.8.8,0,0,0,.8.8h7.755a.8.8,0,1,0,0-1.609h-7.755A.8.8,0,0,0,191.218,112.73Z" transform="translate(-170.716 -99.917)"/>
          <path id="Path_1177371" data-name="Path 1177371" d="M42.8,154.183a.8.8,0,0,0-.8.8v4.56a4.028,4.028,0,0,1-4.023,4.023h-20.8a4.028,4.028,0,0,1-4.023-4.023V159.2a7.511,7.511,0,0,0,0-10.27V124.3a.8.8,0,1,0-1.609,0V141.39H9.258A2.417,2.417,0,0,0,6.845,143.8v2.779a7.53,7.53,0,1,0,4.772,13.883,5.641,5.641,0,0,0,5.556,4.714h20.8a5.639,5.639,0,0,0,5.632-5.632v-4.56A.8.8,0,0,0,42.8,154.183ZM8.454,143.8a.805.805,0,0,1,.8-.8h2.282v4.626a7.477,7.477,0,0,0-3.087-1.042Zm-.8,16.187a5.884,5.884,0,0,1-3.151-.912A2.624,2.624,0,0,1,6,157.8a4.069,4.069,0,0,0,3.3,0,2.623,2.623,0,0,1,1.5,1.276,5.884,5.884,0,0,1-3.151.912ZM5.175,154.07a2.474,2.474,0,1,1,2.474,2.474,2.477,2.477,0,0,1-2.474-2.474Zm5.578,2.649a4.083,4.083,0,1,0-6.207,0,4.176,4.176,0,0,0-1.3,1.305,5.921,5.921,0,1,1,8.8,0,4.168,4.168,0,0,0-1.3-1.305Z" transform="translate(-0.119 -110.251)"/>
        </g>
      </g>
    </g>
  </g>
</svg>
