<svg xmlns="http://www.w3.org/2000/svg" xmlns:xlink="http://www.w3.org/1999/xlink" width="113" height="113" viewBox="0 0 113 113">
  <defs>
    <filter id="Path_982547" x="0" y="0" width="113" height="113" filterUnits="userSpaceOnUse">
      <feOffset dy="3" input="SourceAlpha"/>
      <feGaussianBlur stdDeviation="3" result="blur"/>
      <feFlood flood-opacity="0.161"/>
      <feComposite operator="in" in2="blur"/>
      <feComposite in="SourceGraphic"/>
    </filter>
  </defs>
  <g id="Group_1220867" data-name="Group 1220867" transform="translate(-1215.68 -989.9)">
    <g id="Group_1220767" data-name="Group 1220767" transform="translate(0 -16)">
      <g id="Group_1220476" data-name="Group 1220476" transform="translate(-0.32 62.918)">
        <g id="Group_1219642" data-name="Group 1219642" transform="translate(0.575 -5515.518)">
          <g id="Group_1203675" data-name="Group 1203675" transform="translate(-0.575 557.5)">
            <g id="Group_1202435" data-name="Group 1202435" transform="translate(-0.56 1255.486)">
              <g id="Group_1202052" data-name="Group 1202052" transform="translate(1225.561 4651.514)">
                <g id="Group_1172010" data-name="Group 1172010" transform="translate(0)">
                  <g id="Group_1171046" data-name="Group 1171046">
                    <g id="Group_1148525" data-name="Group 1148525">
                      <g transform="matrix(1, 0, 0, 1, -9, -6)" filter="url(#Path_982547)">
                        <g id="Path_982547-2" data-name="Path 982547" transform="translate(9 6)" fill="#fdecc1">
                          <path d="M 47.5 93.5 C 41.28937149047852 93.5 35.26533508300781 92.28397369384766 29.59518623352051 89.88570404052734 C 24.11771965026855 87.56893157958984 19.19813346862793 84.25196075439453 14.97309303283691 80.02691650390625 C 10.74804019927979 75.80186462402344 7.431066513061523 70.88229370117188 5.114293098449707 65.40481567382812 C 2.716026782989502 59.73468017578125 1.5 53.71062850952148 1.5 47.5 C 1.5 41.28937149047852 2.716026782989502 35.26533508300781 5.114293098449707 29.59518623352051 C 7.431066513061523 24.11771965026855 10.74804019927979 19.19813346862793 14.97309303283691 14.97309303283691 C 19.19813346862793 10.74804019927979 24.11771965026855 7.431066513061523 29.59518623352051 5.114293098449707 C 35.26533508300781 2.716026782989502 41.28937149047852 1.5 47.5 1.5 C 53.71062850952148 1.5 59.73468017578125 2.716026782989502 65.40481567382812 5.114293098449707 C 70.88229370117188 7.431066513061523 75.80186462402344 10.74804019927979 80.02691650390625 14.97309303283691 C 84.25196075439453 19.19813346862793 87.56893157958984 24.11771965026855 89.88570404052734 29.59518623352051 C 92.28397369384766 35.26533508300781 93.5 41.28937149047852 93.5 47.5 C 93.5 53.71062850952148 92.28397369384766 59.73468017578125 89.88570404052734 65.40481567382812 C 87.56893157958984 70.88229370117188 84.25196075439453 75.80186462402344 80.02691650390625 80.02691650390625 C 75.80186462402344 84.25196075439453 70.88229370117188 87.56893157958984 65.40481567382812 89.88570404052734 C 59.73468017578125 92.28397369384766 53.71062850952148 93.5 47.5 93.5 Z" stroke="none"/>
                          <path d="M 47.5 3 C 41.49121475219727 3 35.66376876831055 4.176155090332031 30.17950439453125 6.495796203613281 C 24.88084411621094 8.736953735351562 20.12152099609375 11.94598388671875 16.03375244140625 16.03375244140625 C 11.94598388671875 20.12152099609375 8.736953735351562 24.88084411621094 6.495796203613281 30.17950439453125 C 4.176155090332031 35.66376876831055 3 41.49121475219727 3 47.5 C 3 53.50878524780273 4.176155090332031 59.33623123168945 6.495796203613281 64.82049560546875 C 8.736953735351562 70.11915588378906 11.94598388671875 74.87847900390625 16.03375244140625 78.96624755859375 C 20.12152099609375 83.05401611328125 24.88084411621094 86.26304626464844 30.17950439453125 88.50419616699219 C 35.66376876831055 90.82384490966797 41.49121475219727 92 47.5 92 C 53.50878524780273 92 59.33623123168945 90.82384490966797 64.82049560546875 88.50419616699219 C 70.11915588378906 86.26304626464844 74.87847900390625 83.05401611328125 78.96624755859375 78.96624755859375 C 83.05401611328125 74.87847900390625 86.26304626464844 70.11915588378906 88.50419616699219 64.82049560546875 C 90.82384490966797 59.33623123168945 92 53.50878524780273 92 47.5 C 92 41.49121475219727 90.82384490966797 35.66376876831055 88.50419616699219 30.17950439453125 C 86.26304626464844 24.88084411621094 83.05401611328125 20.12152099609375 78.96624755859375 16.03375244140625 C 74.87847900390625 11.94598388671875 70.11915588378906 8.736953735351562 64.82049560546875 6.495796203613281 C 59.33623123168945 4.176155090332031 53.50878524780273 3 47.5 3 M 47.5 0 C 73.7335205078125 0 95 21.2664794921875 95 47.5 C 95 73.7335205078125 73.7335205078125 95 47.5 95 C 21.2664794921875 95 0 73.7335205078125 0 47.5 C 0 21.2664794921875 21.2664794921875 0 47.5 0 Z" stroke="none" fill="#f8c234"/>
                        </g>
                      </g>
                    </g>
                  </g>
                </g>
              </g>
            </g>
          </g>
        </g>
      </g>
      <g id="curriculum_17643497" transform="translate(1232.354 1028)">
        <path id="Path_1160606" data-name="Path 1160606" d="M115.3,43.543H73.888v48.8H115.3Z" transform="translate(-53.696 -38.202)" fill="#b7cfe8" fill-rule="evenodd"/>
        <path id="Path_1160607" data-name="Path 1160607" d="M80.6,78.268H39.192V127.06H80.6Z" transform="translate(-23.256 -68.668)" fill="#d5e3f2" fill-rule="evenodd"/>
        <path id="Path_1160608" data-name="Path 1160608" d="M89.567,116.953a9.5,9.5,0,1,0,0,13.431,9.5,9.5,0,0,0,0-13.431Z" transform="translate(-53.224 -100.166)" fill="#69a7ff" fill-rule="evenodd"/>
        <path id="Path_1160609" data-name="Path 1160609" d="M111.794,215.633c-.5-2.587-2.305-4.7-4.955-4.7h-2.768c-2.649,0-4.457,2.117-4.955,4.7a9.5,9.5,0,0,0,12.677,0Z" transform="translate(-75.831 -185.057)" fill="#fb4455" fill-rule="evenodd"/>
        <path id="Path_1160610" data-name="Path 1160610" d="M122.758,148.078a3.437,3.437,0,0,1,6.874,0C129.632,154.336,122.758,154.336,122.758,148.078Z" transform="translate(-96.572 -126.9)" fill="#faba7b" fill-rule="evenodd"/>
        <path id="Path_1160611" data-name="Path 1160611" d="M28.059,445.139H65.93a4.185,4.185,0,0,0,0-8.369H28.059l-8.369,4.186Z" transform="translate(-6.146 -383.196)" fill="#2eb851" fill-rule="evenodd"/>
        <path id="Path_1160612" data-name="Path 1160612" d="M392.049,445.138h.563a4.185,4.185,0,1,0,0-8.369h-.567Z" transform="translate(-332.832 -383.195)" fill="#fb4455" fill-rule="evenodd"/>
        <path id="Path_1160613" data-name="Path 1160613" d="M357.58,436.765h4.228v8.369H357.58Z" transform="translate(-302.591 -383.192)" fill="#d5e3f2"/>
        <path id="Path_1160614" data-name="Path 1160614" d="M28.059,445.134v-8.369l-8.369,4.186Z" transform="translate(-6.146 -383.192)" fill="#ffab02" fill-rule="evenodd"/>
        <path id="Path_1160615" data-name="Path 1160615" d="M24.871,449.776l-5.181,2.59,5.181,2.59Z" transform="translate(-6.146 -394.607)" fill="#4d6c8f" fill-rule="evenodd"/>
        <path id="Path_1160616" data-name="Path 1160616" d="M73.35,295.09H84.372v4.232H73.35Z" transform="translate(-53.224 -258.895)" fill="#2eb851"/>
        <path id="Path_1160617" data-name="Path 1160617" d="M73.35,364.085H84.372v4.228H73.35Z" transform="translate(-53.224 -319.427)" fill="#ffab02"/>
        <g id="Group_1220766" data-name="Group 1220766" transform="translate(13.544 0.859)">
          <path id="Path_1160618" data-name="Path 1160618" d="M296.823,24.891l17.027,4.562-2.424,9.054c-1.053,3.932-18.223-.111-17.03-4.562Z" transform="translate(-260.648 -22.697)" fill="#4d6c8f" fill-rule="evenodd"/>
          <path id="Path_1160619" data-name="Path 1160619" d="M289.38,7.005l12.082,8.268-14.6,1.12L274.78,8.125Z" transform="translate(-243.491 -7.005)" fill="#3b5c82" fill-rule="evenodd"/>
          <path id="Path_1160620" data-name="Path 1160620" d="M463.468,105.172l.967.261a.442.442,0,0,1,.33.442l-.076,2.514a.43.43,0,0,1-.177.344.436.436,0,0,1-.379.073l-2.086-.56a.443.443,0,0,1-.278-.64l1.193-2.215A.445.445,0,0,1,463.468,105.172Z" transform="translate(-407.496 -93.117)" fill="#ffab02" fill-rule="evenodd"/>
          <path id="Path_1160621" data-name="Path 1160621" d="M40.85,124.4V78.268H39.192v46.963Z" transform="translate(-36.8 -69.527)" fill="#b7cfe8" fill-rule="evenodd"/>
          <path id="Path_1160622" data-name="Path 1160622" d="M75.546,47.8V43.543H73.888V47.8Z" transform="translate(-67.24 -39.061)" fill="#9fb7d1" fill-rule="evenodd"/>
          <path id="Path_1160623" data-name="Path 1160623" d="M76.911,129.337a9.5,9.5,0,0,1,6.77-15.142A9.5,9.5,0,0,0,73.4,122.536a9.306,9.306,0,0,0,0,2.243,9.448,9.448,0,0,0,2.716,5.594c.125.125.25.243.379.358a7.422,7.422,0,0,1,.414-1.394Z" transform="translate(-66.755 -101.014)" fill="#4c8fed" fill-rule="evenodd"/>
          <path id="Path_1160624" data-name="Path 1160624" d="M100.278,216.527c.553-2.5,2.333-4.506,4.916-4.506h2.764a4.494,4.494,0,0,1,2.625.821,4.62,4.62,0,0,0-3.745-1.912h-2.767a4.92,4.92,0,0,0-4.541,3.31,7.422,7.422,0,0,0-.414,1.394A9.384,9.384,0,0,0,100.278,216.527Z" transform="translate(-89.374 -185.916)" fill="#e82e41" fill-rule="evenodd"/>
          <path id="Path_1160625" data-name="Path 1160625" d="M123.817,148.066a3.451,3.451,0,0,1,2.907-3.4,3.286,3.286,0,0,0-.529-.042,3.449,3.449,0,0,0-3.439,3.439c0,3.129,1.721,4.694,3.439,4.694a2.988,2.988,0,0,0,.529-.049c-1.523-.292-2.907-1.84-2.907-4.645Z" transform="translate(-110.115 -127.746)" fill="#f5ad65" fill-rule="evenodd"/>
          <path id="Path_1160626" data-name="Path 1160626" d="M75.753,368.313v-4.228h-2.4v4.228h2.4Z" transform="translate(-66.768 -320.286)" fill="#ed9e00" fill-rule="evenodd"/>
          <path id="Path_1160627" data-name="Path 1160627" d="M73.416,299.321h2.337V295.09h-2.4v4.231Z" transform="translate(-66.768 -259.754)" fill="#1ca63e" fill-rule="evenodd"/>
          <path id="Path_1160628" data-name="Path 1160628" d="M24.871,451.574v-1.8l-1.13.567-1.658.827-2.392,1.2,1.8.9.591-.292Z" transform="translate(-19.69 -395.466)" fill="#3b5c82" fill-rule="evenodd"/>
          <path id="Path_1160629" data-name="Path 1160629" d="M61.926,438.361v1.8l3.188-1.592v-1.8l-1.123.563Z" transform="translate(-56.745 -384.051)" fill="#ed9e00" fill-rule="evenodd"/>
          <path id="Path_1160630" data-name="Path 1160630" d="M87.92,437.328v1.238H121v-1.8H87.92Z" transform="translate(-79.551 -384.051)" fill="#1ca63e" fill-rule="evenodd"/>
          <path id="Path_1160631" data-name="Path 1160631" d="M357.58,437.328v1.238h4.228v-1.8H357.58Z" transform="translate(-316.135 -384.051)" fill="#b7cfe8" fill-rule="evenodd"/>
          <path id="Path_1160632" data-name="Path 1160632" d="M392.046,437.33v1.238h.567a4.222,4.222,0,0,1,4.1,3.282,4.206,4.206,0,0,0-4.1-5.083h-.567Z" transform="translate(-346.373 -384.053)" fill="#e82e41" fill-rule="evenodd"/>
        </g>
        <path id="Path_1160633" data-name="Path 1160633" d="M22.728,31.228l.018.015a10.352,10.352,0,0,0,13.756,0l.019-.016c.145-.13.288-.263.427-.4a10.358,10.358,0,1,0-14.648,0c.139.139.283.273.428.4Zm6.9.916a8.576,8.576,0,0,1-5.385-1.884c.473-1.724,1.744-3.531,4-3.531h2.768c2.253,0,3.526,1.807,4,3.531a8.577,8.577,0,0,1-5.385,1.883ZM27.042,21.178a2.58,2.58,0,1,1,5.16,0c0,2.636-1.337,3.837-2.58,3.837s-2.58-1.2-2.58-3.837Zm-3.53-3.786a8.642,8.642,0,0,1,12.85,11.521,6.08,6.08,0,0,0-3.744-3.653,6.239,6.239,0,0,0,1.3-4.082,4.294,4.294,0,1,0-8.589,0,6.3,6.3,0,0,0,1.27,4.066l.018.021a6.075,6.075,0,0,0-3.731,3.647,8.638,8.638,0,0,1,.628-11.519ZM42,19.272a.857.857,0,0,1,.857-.857H53.154a.857.857,0,1,1,0,1.714H42.862A.857.857,0,0,1,42,19.272ZM31.147,35.338H20.124a.857.857,0,0,0-.857.857v4.232a.857.857,0,0,0,.857.857H31.147A.857.857,0,0,0,32,40.427V36.2A.857.857,0,0,0,31.147,35.338ZM30.29,39.57H20.981V37.053H30.29ZM54.011,27.732a.857.857,0,0,1-.857.857H42.862a.857.857,0,1,1,0-1.714H53.154a.857.857,0,0,1,.857.858ZM31.147,43.8H20.124a.857.857,0,0,0-.857.857v4.228a.857.857,0,0,0,.857.857H31.147A.857.857,0,0,0,32,48.888V44.659a.857.857,0,0,0-.857-.857ZM30.29,48.03H20.981V45.516H30.29ZM54.011,31.964a.857.857,0,0,1-.857.857H42.862a.857.857,0,0,1,0-1.714H53.154A.857.857,0,0,1,54.011,31.964Zm0-8.464a.857.857,0,0,1-.857.857H42.862a.857.857,0,1,1,0-1.714H53.154a.857.857,0,0,1,.857.857Zm0,12.7a.857.857,0,0,1-.857.857H34.594a.857.857,0,1,1,0-1.714H53.154A.857.857,0,0,1,54.011,36.2Zm0,4.232a.857.857,0,0,1-.857.857H34.594a.857.857,0,1,1,0-1.714H53.154A.857.857,0,0,1,54.011,40.427Zm0,8.46a.857.857,0,0,1-.857.857H34.594a.857.857,0,1,1,0-1.714H53.154a.857.857,0,0,1,.857.857Zm0-4.228a.857.857,0,0,1-.857.857H34.594a.857.857,0,1,1,0-1.714H53.154A.857.857,0,0,1,54.011,44.659ZM72,8.418,59.915.149A.859.859,0,0,0,59.365,0l-14.6,1.12a.857.857,0,0,0-.419,1.562l2.633,1.8H20.19a.857.857,0,0,0-.857.857v3.4h-3.4a.857.857,0,0,0-.857.857V56.035l-1.919.96a.857.857,0,0,0,0,1.533l5.15,2.574.044.022,3.177,1.588a.857.857,0,0,0,.383.09h37.87a5.033,5.033,0,0,0,2.676-9.315V18.921c.123-.026.245-.053.361-.085a2.892,2.892,0,0,0,2.333-1.947l1.756-6.55L69.9,10.11l-.517,1.933a1.311,1.311,0,0,0-1.12.672l-.006.011-1.2,2.221a1.3,1.3,0,0,0,.814,1.868l2.091.561a1.3,1.3,0,0,0,1.1-.209l.01-.008a1.292,1.292,0,0,0,.52-1l.073-2.51a1.294,1.294,0,0,0-.63-1.156l.676-2.528A.857.857,0,0,0,72,8.418ZM21.047,6.2H47.986l-.681,2.542H21.047ZM17.866,58.964l-2.407-1.2.872-.436.015-.007,1.521-.76Zm3.189,1.594-1.475-.737V55.7l1.474-.738Zm.474-7.75-4.737,2.369V10.456H46.846l-.383,1.428a2.762,2.762,0,0,0,.44,2.3H42.862a.857.857,0,1,0,0,1.714h5.88a22.523,22.523,0,0,0,7.746,2.841V52.718H21.912a.856.856,0,0,0-.383.091Zm32.6,8.28H22.769V58.619H54.13Zm0-4.183H22.769V54.432H54.13Zm4.232,4.183H55.844V54.432h2.517Zm1.714-.014V54.445a3.329,3.329,0,0,1,1.115.3.872.872,0,0,0,.083.039,3.319,3.319,0,0,1-1.2,6.289Zm.668-8.263a5.051,5.051,0,0,0-.962-.093H58.2V19a18.687,18.687,0,0,0,2.077.125c.158,0,.312,0,.465-.008ZM63.5,16.446c-.109.407-.749.635-1.12.735a6.2,6.2,0,0,1-.8.154.871.871,0,0,0-.154.019,15.369,15.369,0,0,1-3.855-.165.859.859,0,0,0-.174-.027c-3.392-.544-7.119-1.906-8.66-3.448-.513-.513-.719-.98-.61-1.387l1.6-5.969,6.714,4.595a.857.857,0,0,0,.484.15l.066,0,8.113-.622ZM57.152,9.368,49.676,4.252l-.016-.011-2.332-1.6L59.2,1.735l9.827,6.723ZM69.9,15.582l-1.077-.289.791-1.468.137.037.033.011.025,0,.141.038Z"/>
      </g>
    </g>
  </g>
</svg>
