<svg xmlns="http://www.w3.org/2000/svg" xmlns:xlink="http://www.w3.org/1999/xlink" width="103" height="103" viewBox="0 0 103 103">
  <defs>
    <filter id="Path_978624" x="0" y="0" width="103" height="103" filterUnits="userSpaceOnUse">
      <feOffset dy="3" input="SourceAlpha"/>
      <feGaussianBlur stdDeviation="3" result="blur"/>
      <feFlood flood-opacity="0.161"/>
      <feComposite operator="in" in2="blur"/>
      <feComposite in="SourceGraphic"/>
    </filter>
  </defs>
  <g id="Group_1220881" data-name="Group 1220881" transform="translate(-163.301 -2947)">
    <g id="Group_1220772" data-name="Group 1220772" transform="translate(0 23)">
      <g id="Group_1220517" data-name="Group 1220517" transform="translate(-46 -305)">
        <g id="Group_1214503" data-name="Group 1214503" transform="translate(218.301 3235)">
          <g id="Group_1211421" data-name="Group 1211421">
            <g id="Group_1208651" data-name="Group 1208651">
              <g id="Group_1178144" data-name="Group 1178144">
                <g id="Group_1177896" data-name="Group 1177896">
                  <g id="Group_1176881" data-name="Group 1176881">
                    <g id="Group_1175148" data-name="Group 1175148">
                      <g id="Group_1173798" data-name="Group 1173798">
                        <g id="Group_1171925" data-name="Group 1171925">
                          <g id="Group_1164524" data-name="Group 1164524">
                            <g id="Group_1144123" data-name="Group 1144123">
                              <g transform="matrix(1, 0, 0, 1, -9, -6)" filter="url(#Path_978624)">
                                <g id="Path_978624-2" data-name="Path 978624" transform="translate(9 6)" fill="#f8ecfd">
                                  <path d="M 42.5 83.5 C 36.96437835693359 83.5 31.59512901306152 82.41617584228516 26.54141235351562 80.27863311767578 C 21.65934181213379 78.21369171142578 17.27447128295898 75.25723266601562 13.50862312316895 71.49137878417969 C 9.742764472961426 67.72553253173828 6.786305904388428 63.34066009521484 4.721364498138428 58.45858764648438 C 2.583823442459106 53.40486907958984 1.5 48.03562164306641 1.5 42.5 C 1.5 36.96437835693359 2.583823442459106 31.59512901306152 4.721364498138428 26.54141235351562 C 6.786305904388428 21.65934181213379 9.742764472961426 17.27447128295898 13.50862312316895 13.50862312316895 C 17.27447128295898 9.742764472961426 21.65934181213379 6.786305904388428 26.54141235351562 4.721364498138428 C 31.59512901306152 2.583823442459106 36.96437835693359 1.5 42.5 1.5 C 48.03562164306641 1.5 53.40486907958984 2.583823442459106 58.45858764648438 4.721364498138428 C 63.34066009521484 6.786305904388428 67.72553253173828 9.742764472961426 71.49137878417969 13.50862312316895 C 75.25723266601562 17.27447128295898 78.21369171142578 21.65934181213379 80.27863311767578 26.54141235351562 C 82.41617584228516 31.59512901306152 83.5 36.96437835693359 83.5 42.5 C 83.5 48.03562164306641 82.41617584228516 53.40486907958984 80.27863311767578 58.45858764648438 C 78.21369171142578 63.34066009521484 75.25723266601562 67.72553253173828 71.49137878417969 71.49137878417969 C 67.72553253173828 75.25723266601562 63.34066009521484 78.21369171142578 58.45858764648438 80.27863311767578 C 53.40486907958984 82.41617584228516 48.03562164306641 83.5 42.5 83.5 Z" stroke="none"/>
                                  <path d="M 42.5 3 C 37.16621398925781 3 31.99356079101562 4.043960571289062 27.125732421875 6.102882385253906 C 22.42246627807617 8.092185974121094 18.19785308837891 10.94070434570312 14.56928253173828 14.56928253173828 C 10.94070434570312 18.19785308837891 8.092185974121094 22.42246627807617 6.102882385253906 27.125732421875 C 4.043960571289062 31.99356079101562 3 37.16621398925781 3 42.5 C 3 47.83378601074219 4.043960571289062 53.00643920898438 6.102882385253906 57.87425231933594 C 8.092185974121094 62.57753372192383 10.94070434570312 66.80213165283203 14.56928253173828 70.43071746826172 C 18.19786834716797 74.05929565429688 22.42246627807617 76.90781402587891 27.125732421875 78.89711761474609 C 31.99356079101562 80.95603942871094 37.16621398925781 82 42.5 82 C 47.83378601074219 82 53.00642395019531 80.95603942871094 57.87425231933594 78.89711761474609 C 62.57753372192383 76.90781402587891 66.80213165283203 74.05929565429688 70.43071746826172 70.43071746826172 C 74.05929565429688 66.80213165283203 76.90781402587891 62.57753372192383 78.89711761474609 57.87425231933594 C 80.95603942871094 53.00642395019531 82 47.83378601074219 82 42.5 C 82 37.16621398925781 80.95603942871094 31.99356079101562 78.89711761474609 27.125732421875 C 76.90781402587891 22.42246627807617 74.05929565429688 18.19786834716797 70.43071746826172 14.56928253173828 C 66.80213165283203 10.94070434570312 62.57753372192383 8.092185974121094 57.87425231933594 6.102882385253906 C 53.00643920898438 4.043960571289062 47.83378601074219 3 42.5 3 M 42.5 0 C 65.97209167480469 0 85 19.02789306640625 85 42.5 C 85 65.97209167480469 65.97209167480469 85 42.5 85 C 19.02789306640625 85 0 65.97209167480469 0 42.5 C 0 19.02789306640625 19.02789306640625 0 42.5 0 Z" stroke="none" fill="#c252f0"/>
                                </g>
                              </g>
                            </g>
                          </g>
                        </g>
                      </g>
                    </g>
                  </g>
                </g>
              </g>
            </g>
          </g>
        </g>
      </g>
      <g id="online-shop_1130668" transform="translate(189.38 2947.079)">
        <path id="Path_1160648" data-name="Path 1160648" d="M53.332,224H56.51v6.355H53.332Zm0,0" transform="translate(-48.036 -201.757)" fill="#f1f2f2"/>
        <path id="Path_1160649" data-name="Path 1160649" d="M276.575,203.651a2.125,2.125,0,0,1,2.118,2.119v10.592a2.125,2.125,0,0,1-2.118,2.119h-12.52a2.1,2.1,0,0,1-1.854-1.091l-2.044-3.675-5.391-5.391a1.853,1.853,0,0,1-.35-.477,2.092,2.092,0,0,1,.35-2.51l.72-.72a2.686,2.686,0,0,1,.329-.275,2.119,2.119,0,0,1,2.659.275l3.273,3.273v-13.77a2.118,2.118,0,1,1,4.237,0v9.533Zm0,0" transform="translate(-228.91 -172.934)" fill="#fed0a2"/>
        <path id="Path_1160650" data-name="Path 1160650" d="M374.319,458.668V462.9H362.668v-4.237Zm0,0" transform="translate(-326.655 -413.122)" fill="#fa5c66"/>
        <path id="Path_1160651" data-name="Path 1160651" d="M189.734,458.668V462.9H170.668v-2.118a2.125,2.125,0,0,1,2.118-2.118Zm0,0" transform="translate(-153.72 -413.122)" fill="#d0d7df"/>
        <path id="Path_1160652" data-name="Path 1160652" d="M206.225,399.932a2.1,2.1,0,0,0,1.854,1.091H192v-6.355h10.592l1.589,1.589Zm0,0" transform="translate(-172.934 -355.477)" fill="#a4b0c0"/>
        <path id="Path_1160653" data-name="Path 1160653" d="M39.267,337.023H12.786a2.125,2.125,0,0,1-2.118-2.119v-4.237H30.433l4.6,2.118.085-.042a1.853,1.853,0,0,0,.35.477Zm0,0" transform="translate(-9.609 -297.832)" fill="#d0d7df"/>
        <path id="Path_1160654" data-name="Path 1160654" d="M18.082,38.208V31.853H14.9v6.355ZM21.26,22.32V36.852a2.119,2.119,0,0,0,1.229,1.928l7.944,3.665H10.668V12.787a2.125,2.125,0,0,1,2.118-2.118H35.03L14.9,19.142,21.44,21.9Zm0,0" transform="translate(-9.609 -9.609)" fill="#fa5c66"/>
        <path id="Path_1160655" data-name="Path 1160655" d="M280.362,12.786V42.445a2.125,2.125,0,0,0-2.118-2.119H267.651V30.793a2.118,2.118,0,0,0-4.237,0v13.77l-3.273-3.273a2.119,2.119,0,0,0-2.659-.275L256,38.208V27.615l20.125-8.474L256,10.668h22.243a2.125,2.125,0,0,1,2.118,2.118Zm0,0" transform="translate(-230.579 -9.609)" fill="#fa5c66"/>
        <path id="Path_1160656" data-name="Path 1160656" d="M131.536,143.848a2.092,2.092,0,0,0-.35,2.51l-.085.042-4.6-2.118-7.944-3.665a2.119,2.119,0,0,1-1.229-1.928V124.158l.18-.424,13.59,5.72v10.592l1.483,2.807a2.686,2.686,0,0,0-.329.275Zm0,0" transform="translate(-105.681 -111.447)" fill="#f6b445"/>
        <path id="Path_1160657" data-name="Path 1160657" d="M93.582,19.141,73.457,27.615,59.867,21.9l-6.536-2.754,20.125-8.474Zm0,0" transform="translate(-48.036 -9.609)" fill="#fed049"/>
        <path id="Path_1160658" data-name="Path 1160658" d="M47.665,0H3.178A3.178,3.178,0,0,0,0,3.178V37.072A3.178,3.178,0,0,0,3.178,40.25H18.007v4.432a3.178,3.178,0,0,0-2.118,2.983v1.059H13.77v2.118H47.665a1.059,1.059,0,0,0,1.059-1.059V46.411a3.177,3.177,0,0,0,2.118-2.983V3.178A3.178,3.178,0,0,0,47.665,0ZM25.421,2.208l17.4,7.325-17.4,7.325L8.025,9.533Zm-23.3.969A1.059,1.059,0,0,1,3.178,2.118h17L4.885,8.556a1.059,1.059,0,0,0-.648.977V28.6A1.059,1.059,0,0,0,5.3,29.658H8.474A1.059,1.059,0,0,0,9.533,28.6V22.243a1.059,1.059,0,0,0-1.059-1.059H6.355V11.128l4.237,1.784V27.243a3.2,3.2,0,0,0,1.844,2.889L16,31.776H2.118ZM6.355,23.3H7.415v4.237H6.355ZM3.178,38.132a1.059,1.059,0,0,1-1.059-1.059V33.895H20.594l4.282,1.976a3.206,3.206,0,0,0,.23.267L27.1,38.132ZM29.219,40.25l1.174,1.174,1.7,3.063H20.125V40.25Zm5.735,8.474H18.007V47.665a1.059,1.059,0,0,1,1.059-1.059H34.954Zm11.651,0H37.072V46.605h9.533Zm2.119-11.652v6.355a1.059,1.059,0,0,1-1.059,1.059H35.145a1.049,1.049,0,0,1-.928-.548l-2.044-3.674A1.043,1.043,0,0,0,32,40.031L26.6,34.639a.924.924,0,0,1-.177-.249,1.04,1.04,0,0,1,.177-1.24l.72-.72a1.941,1.941,0,0,1,.16-.139,1.067,1.067,0,0,1,1.329.139L32.087,35.7a1.059,1.059,0,0,0,1.808-.749V21.184a1.037,1.037,0,0,1,.324-.754,1.013,1.013,0,0,1,.735-.3,1.059,1.059,0,0,1,1.059,1.059V38.132h2.118V31.776H40.25v5.3h2.119v-5.3h2.118v5.3h2.118v-5.3h1.059a1.059,1.059,0,0,1,1.059,1.059Zm0-7.22a3.147,3.147,0,0,0-1.059-.195H38.132V21.184a3.178,3.178,0,0,0-6.355,0V32.4l-1.465-1.468a3.2,3.2,0,0,0-4.025-.383,3.581,3.581,0,0,0-.455.383l-.72.72a3.179,3.179,0,0,0-.855,1.6l-3.072-1.415v-.057H21.06L13.328,28.21a1.071,1.071,0,0,1-.618-.967V13.8L24.362,18.71V28.6H26.48V18.71l19.477-8.2a1.059,1.059,0,0,0,0-1.953L30.666,2.118h17a1.059,1.059,0,0,1,1.059,1.059Zm0,0"/>
        <path id="Path_1160659" data-name="Path 1160659" d="M234.668,85.332H238.9v2.119h-4.237Zm0,0" transform="translate(-211.365 -76.858)"/>
        <path id="Path_1160660" data-name="Path 1160660" d="M405.332,192h3.178v2.118h-3.178Zm0,0" transform="translate(-365.082 -172.934)"/>
        <path id="Path_1160661" data-name="Path 1160661" d="M387.121,143.907l2.118-2.118,1.5,1.5-2.118,2.118Zm0,0" transform="translate(-348.679 -127.709)"/>
        <path id="Path_1160662" data-name="Path 1160662" d="M397.789,239.3l1.5-1.5,2.118,2.118-1.5,1.5Zm0,0" transform="translate(-358.288 -214.184)"/>
      </g>
    </g>
  </g>
</svg>
