<svg xmlns="http://www.w3.org/2000/svg" xmlns:xlink="http://www.w3.org/1999/xlink" width="113" height="113" viewBox="0 0 113 113">
  <defs>
    <filter id="Path_982547" x="0" y="0" width="113" height="113" filterUnits="userSpaceOnUse">
      <feOffset dy="3" input="SourceAlpha"/>
      <feGaussianBlur stdDeviation="3" result="blur"/>
      <feFlood flood-opacity="0.161"/>
      <feComposite operator="in" in2="blur"/>
      <feComposite in="SourceGraphic"/>
    </filter>
  </defs>
  <g id="Group_1220864" data-name="Group 1220864" transform="translate(-271.68 -989.9)">
    <g id="Group_1220727" data-name="Group 1220727" transform="translate(0 -16)">
      <g id="Group_1220473" data-name="Group 1220473" transform="translate(0.255 62.918)">
        <g id="Group_1219621" data-name="Group 1219621" transform="translate(0 -5515.518)">
          <g id="Group_1203672" data-name="Group 1203672" transform="translate(-0.575 557.5)">
            <g id="Group_1202432" data-name="Group 1202432" transform="translate(0 1255.486)">
              <g id="Group_1202055" data-name="Group 1202055" transform="translate(0 3240.511)">
                <g id="Group_1177900" data-name="Group 1177900" transform="translate(281 1411.003)">
                  <g id="Group_1172010" data-name="Group 1172010" transform="translate(0)">
                    <g id="Group_1171046" data-name="Group 1171046">
                      <g id="Group_1148525" data-name="Group 1148525">
                        <g transform="matrix(1, 0, 0, 1, -9, -6)" filter="url(#Path_982547)">
                          <g id="Path_982547-2" data-name="Path 982547" transform="translate(9 6)" fill="#fdecc1">
                            <path d="M 47.5 93.5 C 41.28937149047852 93.5 35.26533508300781 92.28397369384766 29.59518623352051 89.88570404052734 C 24.11771965026855 87.56893157958984 19.19813346862793 84.25196075439453 14.97309303283691 80.02691650390625 C 10.74804019927979 75.80186462402344 7.431066513061523 70.88229370117188 5.114293098449707 65.40481567382812 C 2.716026782989502 59.73468017578125 1.5 53.71062850952148 1.5 47.5 C 1.5 41.28937149047852 2.716026782989502 35.26533508300781 5.114293098449707 29.59518623352051 C 7.431066513061523 24.11771965026855 10.74804019927979 19.19813346862793 14.97309303283691 14.97309303283691 C 19.19813346862793 10.74804019927979 24.11771965026855 7.431066513061523 29.59518623352051 5.114293098449707 C 35.26533508300781 2.716026782989502 41.28937149047852 1.5 47.5 1.5 C 53.71062850952148 1.5 59.73468017578125 2.716026782989502 65.40481567382812 5.114293098449707 C 70.88229370117188 7.431066513061523 75.80186462402344 10.74804019927979 80.02691650390625 14.97309303283691 C 84.25196075439453 19.19813346862793 87.56893157958984 24.11771965026855 89.88570404052734 29.59518623352051 C 92.28397369384766 35.26533508300781 93.5 41.28937149047852 93.5 47.5 C 93.5 53.71062850952148 92.28397369384766 59.73468017578125 89.88570404052734 65.40481567382812 C 87.56893157958984 70.88229370117188 84.25196075439453 75.80186462402344 80.02691650390625 80.02691650390625 C 75.80186462402344 84.25196075439453 70.88229370117188 87.56893157958984 65.40481567382812 89.88570404052734 C 59.73468017578125 92.28397369384766 53.71062850952148 93.5 47.5 93.5 Z" stroke="none"/>
                            <path d="M 47.5 3 C 41.49121475219727 3 35.66376876831055 4.176155090332031 30.17950439453125 6.495796203613281 C 24.88084411621094 8.736953735351562 20.12152099609375 11.94598388671875 16.03375244140625 16.03375244140625 C 11.94598388671875 20.12152099609375 8.736953735351562 24.88084411621094 6.495796203613281 30.17950439453125 C 4.176155090332031 35.66376876831055 3 41.49121475219727 3 47.5 C 3 53.50878524780273 4.176155090332031 59.33623123168945 6.495796203613281 64.82049560546875 C 8.736953735351562 70.11915588378906 11.94598388671875 74.87847900390625 16.03375244140625 78.96624755859375 C 20.12152099609375 83.05401611328125 24.88084411621094 86.26304626464844 30.17950439453125 88.50419616699219 C 35.66376876831055 90.82384490966797 41.49121475219727 92 47.5 92 C 53.50878524780273 92 59.33623123168945 90.82384490966797 64.82049560546875 88.50419616699219 C 70.11915588378906 86.26304626464844 74.87847900390625 83.05401611328125 78.96624755859375 78.96624755859375 C 83.05401611328125 74.87847900390625 86.26304626464844 70.11915588378906 88.50419616699219 64.82049560546875 C 90.82384490966797 59.33623123168945 92 53.50878524780273 92 47.5 C 92 41.49121475219727 90.82384490966797 35.66376876831055 88.50419616699219 30.17950439453125 C 86.26304626464844 24.88084411621094 83.05401611328125 20.12152099609375 78.96624755859375 16.03375244140625 C 74.87847900390625 11.94598388671875 70.11915588378906 8.736953735351562 64.82049560546875 6.495796203613281 C 59.33623123168945 4.176155090332031 53.50878524780273 3 47.5 3 M 47.5 0 C 73.7335205078125 0 95 21.2664794921875 95 47.5 C 95 73.7335205078125 73.7335205078125 95 47.5 95 C 21.2664794921875 95 0 73.7335205078125 0 47.5 C 0 21.2664794921875 21.2664794921875 0 47.5 0 Z" stroke="none" fill="#f8c234"/>
                          </g>
                        </g>
                      </g>
                    </g>
                  </g>
                </g>
              </g>
            </g>
          </g>
        </g>
      </g>
      <g id="specification_11705110" transform="translate(285.259 1016.58)">
        <g id="Group_1220726" data-name="Group 1220726" transform="translate(9.885 9.884)">
          <path id="Path_1160554" data-name="Path 1160554" d="M69.793,48.418a6.158,6.158,0,0,0-4.352,10.507,1.827,1.827,0,0,1,0,2.584l-3.933,3.933a1.827,1.827,0,0,1-2.584,0,6.158,6.158,0,0,0-10.507,4.352,1.827,1.827,0,0,1-1.827,1.827H41.029A1.827,1.827,0,0,1,39.2,69.793,6.155,6.155,0,0,0,28.7,65.441a1.827,1.827,0,0,1-2.584,0l-3.933-3.933a1.827,1.827,0,0,1,0-2.584,6.158,6.158,0,0,0-4.352-10.507A1.826,1.826,0,0,1,16,46.591V41.029A1.827,1.827,0,0,1,17.827,39.2,6.158,6.158,0,0,0,22.179,28.7a1.827,1.827,0,0,1,0-2.584l3.933-3.933a1.827,1.827,0,0,1,2.584,0A6.158,6.158,0,0,0,39.2,17.827,1.827,1.827,0,0,1,41.029,16h5.562a1.827,1.827,0,0,1,1.827,1.827,6.158,6.158,0,0,0,10.507,4.352,1.827,1.827,0,0,1,2.584,0l3.933,3.933a1.827,1.827,0,0,1,0,2.584A6.158,6.158,0,0,0,69.793,39.2a1.827,1.827,0,0,1,1.827,1.827v5.562A1.827,1.827,0,0,1,69.793,48.418ZM43.81,30.448A13.362,13.362,0,1,0,57.172,43.81,13.362,13.362,0,0,0,43.81,30.448Z" transform="translate(-16 -16)" fill="#fdcd56" fill-rule="evenodd"/>
          <g id="Group_1220724" data-name="Group 1220724" transform="translate(28.889 17.554)">
            <path id="Path_1160555" data-name="Path 1160555" d="M275.13,154.92H251.171l-6.54,6.64v35.194a1.266,1.266,0,0,0,1.264,1.264H275.13a1.266,1.266,0,0,0,1.264-1.264V156.184A1.266,1.266,0,0,0,275.13,154.92Z" transform="translate(-244.631 -154.92)" fill="#f4f6f8" fill-rule="evenodd"/>
            <path id="Path_1160556" data-name="Path 1160556" d="M330.721,206.261h8.35a1.266,1.266,0,0,1,1.264,1.264v7.432a1.266,1.266,0,0,1-1.264,1.264h-8.35a1.266,1.266,0,0,1-1.264-1.264v-7.432A1.266,1.266,0,0,1,330.721,206.261Z" transform="translate(-318.739 -199.774)" fill="#66d4f1" fill-rule="evenodd"/>
            <path id="Path_1160557" data-name="Path 1160557" d="M251.171,160.3V154.92l-6.54,6.64h5.276A1.266,1.266,0,0,0,251.171,160.3Z" transform="translate(-244.631 -154.92)" fill="#e4e8eb" fill-rule="evenodd"/>
          </g>
          <g id="Group_1220725" data-name="Group 1220725" transform="translate(20.34 20.408)">
            <path id="Path_1160558" data-name="Path 1160558" d="M176.97,179.831a2.32,2.32,0,1,1,4.64,0v18.058a.362.362,0,0,1-.037.163l-2.027,4.261a.379.379,0,0,1-.69-.011L177,198.047a.361.361,0,0,1-.032-.151Z" transform="translate(-176.97 -177.511)" fill="#efc7a4" fill-rule="evenodd"/>
            <path id="Path_1160559" data-name="Path 1160559" d="M181.61,226.767v-16.2h-4.64v16.208a.389.389,0,0,0,0,.041h4.635A.4.4,0,0,0,181.61,226.767Z" transform="translate(-176.97 -206.388)" fill="#66d4f1" fill-rule="evenodd"/>
            <path id="Path_1160560" data-name="Path 1160560" d="M176.97,181.688h4.64v-1.857a2.32,2.32,0,1,0-4.64,0Z" transform="translate(-176.97 -177.511)" fill="#636c77" fill-rule="evenodd"/>
          </g>
        </g>
        <path id="Path_1160561" data-name="Path 1160561" d="M66.028,54.8a.884.884,0,0,1-.884.884H44.167a.884.884,0,1,1,0-1.769H65.143A.885.885,0,0,1,66.028,54.8Zm0,4.625a.885.885,0,0,1-.884.884H44.167a.884.884,0,1,1,0-1.769H65.143A.884.884,0,0,1,66.028,59.424ZM44.167,49.291H65.143a.884.884,0,0,1,0,1.769H44.167a.884.884,0,1,1,0-1.769ZM55.54,64.047a.884.884,0,0,1-.885.884H44.167a.884.884,0,1,1,0-1.769H54.655A.885.885,0,0,1,55.54,64.047ZM50.377,34.809h9.108V43H50.377Zm-.884,9.959H60.369a.885.885,0,0,0,.885-.885V33.924a.885.885,0,0,0-.885-.885H49.493a.885.885,0,0,0-.885.885v9.959A.885.885,0,0,0,49.493,44.768ZM69.652,69.651V28.321H46.2v5.756a.885.885,0,0,1-.884.885H39.658v34.69H69.652ZM44.43,29.6v3.6H40.887Zm-11.885-.189a3.208,3.208,0,0,1,3.2,3.2V50.018a12.723,12.723,0,0,0,2.141.15V34.077a.883.883,0,0,1,.254-.621l6.216-6.311A12.477,12.477,0,0,0,29.34,46.96V32.611a3.208,3.208,0,0,1,3.2-3.2ZM33.483,51.6l-1,2.111-.92-2.111Zm-2.374-1.769V35.353H33.98V49.832Zm0-17.221a1.436,1.436,0,1,1,2.871,0v.972H31.109Zm3.805,32.007H37.89V51.936c-.065,0-.13,0-.195,0a14.254,14.254,0,0,1-2.324-.19l-2.128,4.476a.884.884,0,0,1-.8.5h-.014a.886.886,0,0,1-.8-.531l-2.219-5.091a.882.882,0,0,1-.074-.353V49.234A14.246,14.246,0,1,1,46.57,26.552H56.64a6.894,6.894,0,0,1,2.061-4.6.943.943,0,0,0,0-1.332l-3.933-3.932a.943.943,0,0,0-1.333,0A7.043,7.043,0,0,1,41.418,11.71a.943.943,0,0,0-.942-.942H34.914a.943.943,0,0,0-.942.942,7.043,7.043,0,0,1-12.017,4.978.941.941,0,0,0-1.333,0L16.689,20.62a.943.943,0,0,0,0,1.332A7.042,7.042,0,0,1,11.711,33.97a.943.943,0,0,0-.942.942v5.562a.943.943,0,0,0,.942.942,7.042,7.042,0,0,1,4.977,12.017.945.945,0,0,0,0,1.334L20.622,58.7a.944.944,0,0,0,1.333,0,7.039,7.039,0,0,1,12.017,4.977.943.943,0,0,0,.942.941ZM70.537,26.553H58.41A5.16,5.16,0,0,1,59.951,23.2a2.715,2.715,0,0,0,0-3.834l-3.933-3.933a2.711,2.711,0,0,0-3.835,0,5.273,5.273,0,0,1-9-3.727A2.714,2.714,0,0,0,40.476,9H34.914A2.715,2.715,0,0,0,32.2,11.71a5.273,5.273,0,0,1-9,3.727,2.711,2.711,0,0,0-3.835,0l-3.933,3.932a2.715,2.715,0,0,0,0,3.834,5.273,5.273,0,0,1-3.727,9A2.715,2.715,0,0,0,9,34.912v5.562a2.715,2.715,0,0,0,2.711,2.711,5.273,5.273,0,0,1,3.727,9,2.715,2.715,0,0,0,0,3.835l3.933,3.933a2.711,2.711,0,0,0,3.835,0,5.27,5.27,0,0,1,9,3.727,2.714,2.714,0,0,0,2.711,2.71H37.89v4.148a.885.885,0,0,0,.885.885H70.537a.885.885,0,0,0,.884-.885v-43.1a.885.885,0,0,0-.884-.884Z" fill-rule="evenodd"/>
      </g>
    </g>
  </g>
</svg>
