<svg xmlns="http://www.w3.org/2000/svg" xmlns:xlink="http://www.w3.org/1999/xlink" width="103" height="103" viewBox="0 0 103 103">
  <defs>
    <filter id="Path_978624" x="0" y="0" width="103" height="103" filterUnits="userSpaceOnUse">
      <feOffset dy="3" input="SourceAlpha"/>
      <feGaussianBlur stdDeviation="3" result="blur"/>
      <feFlood flood-opacity="0.161"/>
      <feComposite operator="in" in2="blur"/>
      <feComposite in="SourceGraphic"/>
    </filter>
  </defs>
  <g id="Group_1220872" data-name="Group 1220872" transform="translate(-171 -1382)">
    <g id="Group_1220771" data-name="Group 1220771" transform="translate(0 35)">
      <g id="Group_1220479" data-name="Group 1220479" transform="translate(-38.301 -1882)">
        <g id="Group_1214503" data-name="Group 1214503" transform="translate(218.301 3235)">
          <g id="Group_1211421" data-name="Group 1211421">
            <g id="Group_1208651" data-name="Group 1208651">
              <g id="Group_1178144" data-name="Group 1178144">
                <g id="Group_1177896" data-name="Group 1177896">
                  <g id="Group_1176881" data-name="Group 1176881">
                    <g id="Group_1175148" data-name="Group 1175148">
                      <g id="Group_1173798" data-name="Group 1173798">
                        <g id="Group_1171925" data-name="Group 1171925">
                          <g id="Group_1164524" data-name="Group 1164524">
                            <g id="Group_1144123" data-name="Group 1144123">
                              <g transform="matrix(1, 0, 0, 1, -9, -6)" filter="url(#Path_978624)">
                                <g id="Path_978624-2" data-name="Path 978624" transform="translate(9 6)" fill="#f8ecfd">
                                  <path d="M 42.5 83.5 C 36.96437835693359 83.5 31.59512901306152 82.41617584228516 26.54141235351562 80.27863311767578 C 21.65934181213379 78.21369171142578 17.27447128295898 75.25723266601562 13.50862312316895 71.49137878417969 C 9.742764472961426 67.72553253173828 6.786305904388428 63.34066009521484 4.721364498138428 58.45858764648438 C 2.583823442459106 53.40486907958984 1.5 48.03562164306641 1.5 42.5 C 1.5 36.96437835693359 2.583823442459106 31.59512901306152 4.721364498138428 26.54141235351562 C 6.786305904388428 21.65934181213379 9.742764472961426 17.27447128295898 13.50862312316895 13.50862312316895 C 17.27447128295898 9.742764472961426 21.65934181213379 6.786305904388428 26.54141235351562 4.721364498138428 C 31.59512901306152 2.583823442459106 36.96437835693359 1.5 42.5 1.5 C 48.03562164306641 1.5 53.40486907958984 2.583823442459106 58.45858764648438 4.721364498138428 C 63.34066009521484 6.786305904388428 67.72553253173828 9.742764472961426 71.49137878417969 13.50862312316895 C 75.25723266601562 17.27447128295898 78.21369171142578 21.65934181213379 80.27863311767578 26.54141235351562 C 82.41617584228516 31.59512901306152 83.5 36.96437835693359 83.5 42.5 C 83.5 48.03562164306641 82.41617584228516 53.40486907958984 80.27863311767578 58.45858764648438 C 78.21369171142578 63.34066009521484 75.25723266601562 67.72553253173828 71.49137878417969 71.49137878417969 C 67.72553253173828 75.25723266601562 63.34066009521484 78.21369171142578 58.45858764648438 80.27863311767578 C 53.40486907958984 82.41617584228516 48.03562164306641 83.5 42.5 83.5 Z" stroke="none"/>
                                  <path d="M 42.5 3 C 37.16621398925781 3 31.99356079101562 4.043960571289062 27.125732421875 6.102882385253906 C 22.42246627807617 8.092185974121094 18.19785308837891 10.94070434570312 14.56928253173828 14.56928253173828 C 10.94070434570312 18.19785308837891 8.092185974121094 22.42246627807617 6.102882385253906 27.125732421875 C 4.043960571289062 31.99356079101562 3 37.16621398925781 3 42.5 C 3 47.83378601074219 4.043960571289062 53.00643920898438 6.102882385253906 57.87425231933594 C 8.092185974121094 62.57753372192383 10.94070434570312 66.80213165283203 14.56928253173828 70.43071746826172 C 18.19786834716797 74.05929565429688 22.42246627807617 76.90781402587891 27.125732421875 78.89711761474609 C 31.99356079101562 80.95603942871094 37.16621398925781 82 42.5 82 C 47.83378601074219 82 53.00642395019531 80.95603942871094 57.87425231933594 78.89711761474609 C 62.57753372192383 76.90781402587891 66.80213165283203 74.05929565429688 70.43071746826172 70.43071746826172 C 74.05929565429688 66.80213165283203 76.90781402587891 62.57753372192383 78.89711761474609 57.87425231933594 C 80.95603942871094 53.00642395019531 82 47.83378601074219 82 42.5 C 82 37.16621398925781 80.95603942871094 31.99356079101562 78.89711761474609 27.125732421875 C 76.90781402587891 22.42246627807617 74.05929565429688 18.19786834716797 70.43071746826172 14.56928253173828 C 66.80213165283203 10.94070434570312 62.57753372192383 8.092185974121094 57.87425231933594 6.102882385253906 C 53.00643920898438 4.043960571289062 47.83378601074219 3 42.5 3 M 42.5 0 C 65.97209167480469 0 85 19.02789306640625 85 42.5 C 85 65.97209167480469 65.97209167480469 85 42.5 85 C 19.02789306640625 85 0 65.97209167480469 0 42.5 C 0 19.02789306640625 19.02789306640625 0 42.5 0 Z" stroke="none" fill="#c252f0"/>
                                </g>
                              </g>
                            </g>
                          </g>
                        </g>
                      </g>
                    </g>
                  </g>
                </g>
              </g>
            </g>
          </g>
        </g>
      </g>
      <g id="aprender-en-linea_1_" data-name="aprender-en-linea (1)" transform="translate(194.051 1331.5)">
        <path id="Path_1160634" data-name="Path 1160634" d="M61.176,423.056H9.056A1.556,1.556,0,0,1,7.5,421.5v-2.445A1.556,1.556,0,0,1,9.056,417.5h52.12a1.556,1.556,0,0,1,1.556,1.556V421.5A1.556,1.556,0,0,1,61.176,423.056Z" transform="translate(-6.667 -338.215)" fill="#a9dbf5"/>
        <path id="Path_1160635" data-name="Path 1160635" d="M463.834,417.5H460.5a1.556,1.556,0,0,1,1.556,1.556V421.5a1.556,1.556,0,0,1-1.556,1.556h3.334a1.556,1.556,0,0,0,1.556-1.556v-2.445A1.556,1.556,0,0,0,463.834,417.5Z" transform="translate(-409.325 -338.215)" fill="#88c3e0"/>
        <path id="Path_1160636" data-name="Path 1160636" d="M86.563,150.838H43.223A2.223,2.223,0,0,1,41,148.616V119.724a2.223,2.223,0,0,1,2.222-2.223h43.34a2.223,2.223,0,0,1,2.223,2.222v28.892A2.222,2.222,0,0,1,86.563,150.838Z" transform="translate(-36.444 -71.554)" fill="#4380a0"/>
        <path id="Path_1160637" data-name="Path 1160637" d="M426.556,148.615a2.223,2.223,0,0,1-2.223,2.223H421a2.223,2.223,0,0,0,2.223-2.223V119.723A2.222,2.222,0,0,0,421,117.5h3.328a2.222,2.222,0,0,1,2.223,2.223Z" transform="translate(-374.214 -71.554)" fill="#3b7191"/>
        <path id="Path_1160638" data-name="Path 1160638" d="M112.118,174.17H71V147.5h41.117Z" transform="translate(-63.11 -98.22)" fill="#bbf7ff"/>
        <path id="Path_1160639" data-name="Path 1160639" d="M410.995,147.5h3.334v26.67h-3.334Z" transform="translate(-365.321 -98.22)" fill="#8bf0ff"/>
        <path id="Path_1160640" data-name="Path 1160640" d="M125.336,115.825H109.623A.623.623,0,0,1,109,115.2V95.86a.623.623,0,0,1,.623-.623h15.713Z" transform="translate(-96.887 -51.765)" fill="#f75632"/>
        <path id="Path_1160641" data-name="Path 1160641" d="M271.714,115.825H256V95.237h15.714a.623.623,0,0,1,.623.623V115.2A.623.623,0,0,1,271.714,115.825Z" transform="translate(-227.551 -51.765)" fill="#e33629"/>
        <path id="Path_1160642" data-name="Path 1160642" d="M148.014,70.726,134.932,66.2a.623.623,0,0,1-.419-.588V45.123a.623.623,0,0,1,.826-.588l12.675,4.383Z" transform="translate(-119.565 -6.667)" fill="#f3f3f3"/>
        <path id="Path_1160643" data-name="Path 1160643" d="M256,70.726,269.082,66.2a.623.623,0,0,0,.419-.588V45.123a.623.623,0,0,0-.826-.588L256,48.918Z" transform="translate(-227.551 -6.667)" fill="#e4e4e4"/>
        <path id="Path_1160644" data-name="Path 1160644" d="M221.309,420.167h-7.061A1.248,1.248,0,0,1,213,418.919V417.5h9.557v1.419A1.248,1.248,0,0,1,221.309,420.167Z" transform="translate(-189.329 -338.215)" fill="#88c3e0"/>
        <g id="Group_1220770" data-name="Group 1220770" transform="translate(0 37)">
          <path id="Path_1160645" data-name="Path 1160645" d="M54.509,78.451H52.84a3.037,3.037,0,0,0,.336-1.39V48.168a3.06,3.06,0,0,0-3.056-3.056h-4.5V44.094a1.457,1.457,0,0,0-1.456-1.456H42.783V38.456a1.456,1.456,0,0,0-1.932-1.376l-2.625.908a.833.833,0,0,0,.545,1.575l2.346-.811V58.8L29.283,62.889V42.844l6.127-2.119a.833.833,0,0,0-.545-1.575l-6.416,2.219-12.4-4.289a1.456,1.456,0,0,0-1.932,1.376v4.182H12.735a1.457,1.457,0,0,0-1.456,1.456v1.019h-4.5a3.06,3.06,0,0,0-3.056,3.056v2.964a.833.833,0,0,0,1.667,0V48.169A1.391,1.391,0,0,1,6.779,46.78h4.5v1.667H7.89a.834.834,0,0,0-.833.833v26.67a.833.833,0,0,0,.833.833H49.008a.833.833,0,0,0,.833-.833V49.279a.833.833,0,0,0-.833-.833H45.619V46.779h4.5a1.391,1.391,0,0,1,1.389,1.389V77.061a1.391,1.391,0,0,1-1.389,1.389H6.78a1.391,1.391,0,0,1-1.389-1.389V54.7a.833.833,0,0,0-1.667,0V77.062a3.035,3.035,0,0,0,.335,1.389H2.389A2.392,2.392,0,0,0,0,80.84v2.445a2.392,2.392,0,0,0,2.389,2.389H35.526a.833.833,0,0,0,0-1.667H2.389a.723.723,0,0,1-.722-.722V80.84a.723.723,0,0,1,.722-.722H22.837V80.7a2.084,2.084,0,0,0,2.082,2.082H31.98A2.084,2.084,0,0,0,34.061,80.7v-.586H54.509a.723.723,0,0,1,.722.722v2.445a.723.723,0,0,1-.722.722H39.165a.833.833,0,0,0,0,1.667H54.509A2.392,2.392,0,0,0,56.9,83.285V80.84a2.392,2.392,0,0,0-2.389-2.389ZM41.8,60.323a1.457,1.457,0,0,0,.98-1.376V44.3h1.168V63.226H33.41ZM15.782,38.752l11.834,4.092V62.889L15.782,58.8ZM12.947,44.3h1.168V58.947a1.457,1.457,0,0,0,.98,1.376l8.394,2.9H12.947Zm35.227,5.808v25H8.725v-25H11.28V63.437a1.457,1.457,0,0,0,1.456,1.456H44.163a1.457,1.457,0,0,0,1.456-1.456V50.113ZM32.394,80.7a.415.415,0,0,1-.415.415H24.919A.415.415,0,0,1,24.5,80.7v-.586h7.89Z" transform="translate(0 -37)"/>
          <path id="Path_1160646" data-name="Path 1160646" d="M172.718,309.387h-21.9a.833.833,0,1,0,0,1.667h21.9a.833.833,0,1,0,0-1.667Z" transform="translate(-133.321 -279.117)"/>
          <path id="Path_1160647" data-name="Path 1160647" d="M165.022,341.2h-14.2a.833.833,0,1,0,0,1.667h14.2a.833.833,0,1,0,0-1.667Z" transform="translate(-133.321 -307.396)"/>
        </g>
      </g>
    </g>
  </g>
</svg>
