<svg xmlns="http://www.w3.org/2000/svg" xmlns:xlink="http://www.w3.org/1999/xlink" width="108" height="108" viewBox="0 0 108 108">
  <defs>
    <filter id="Fondo" x="0" y="0" width="108" height="108" filterUnits="userSpaceOnUse">
      <feOffset dy="3" input="SourceAlpha"/>
      <feGaussianBlur stdDeviation="3" result="blur"/>
      <feFlood flood-opacity="0.161"/>
      <feComposite operator="in" in2="blur"/>
      <feComposite in="SourceGraphic"/>
    </filter>
  </defs>
  <g id="Group_1220863" data-name="Group 1220863" transform="translate(-614.101 -446)">
    <g id="Group_1220723" data-name="Group 1220723" transform="translate(0 -11)">
      <g id="Group_1220472" data-name="Group 1220472" transform="translate(0 162)">
        <g id="Group_1210004" data-name="Group 1210004" transform="translate(623.101 301)">
          <g id="Group_1143757" data-name="Group 1143757" transform="translate(0)">
            <g transform="matrix(1, 0, 0, 1, -9, -6)" filter="url(#Fondo)">
              <g id="Fondo-2" data-name="Fondo" transform="translate(9 6)" fill="#e8fcf6">
                <path d="M 44.99994277954102 88.49989318847656 C 39.1268310546875 88.49989318847656 33.43019104003906 87.34996795654297 28.06826782226562 85.08206939697266 C 22.88850593566895 82.89120483398438 18.23629188537598 79.75449371337891 14.24084281921387 75.75904083251953 C 10.24540519714355 71.76360321044922 7.108680248260498 67.11138153076172 4.917830467224121 61.93161773681641 C 2.649930238723755 56.56969451904297 1.50000524520874 50.87305450439453 1.50000524520874 44.99994277954102 C 1.50000524520874 39.1268310546875 2.649930238723755 33.43019104003906 4.917830467224121 28.06826782226562 C 7.108680248260498 22.88850593566895 10.24540519714355 18.23629188537598 14.24084281921387 14.24084281921387 C 18.23629188537598 10.24540519714355 22.88850593566895 7.108680248260498 28.06826782226562 4.917830467224121 C 33.43019104003906 2.649930238723755 39.1268310546875 1.50000524520874 44.99994277954102 1.50000524520874 C 50.87305450439453 1.50000524520874 56.56969451904297 2.649930238723755 61.93161773681641 4.917830467224121 C 67.11138153076172 7.108680248260498 71.76360321044922 10.24540519714355 75.75904083251953 14.24084281921387 C 79.75449371337891 18.23629188537598 82.89120483398438 22.88850593566895 85.08206939697266 28.06826782226562 C 87.34996795654297 33.43019104003906 88.49989318847656 39.1268310546875 88.49989318847656 44.99994277954102 C 88.49989318847656 50.87305450439453 87.34996795654297 56.56969451904297 85.08206939697266 61.93161773681641 C 82.89120483398438 67.11138153076172 79.75449371337891 71.76360321044922 75.75904083251953 75.75904083251953 C 71.76360321044922 79.75449371337891 67.11138153076172 82.89120483398438 61.93161773681641 85.08206939697266 C 56.56969451904297 87.34996795654297 50.87305450439453 88.49989318847656 44.99994277954102 88.49989318847656 Z" stroke="none"/>
                <path d="M 44.99994277954102 3 C 39.32865524291992 3 33.82861328125 4.110054016113281 28.65258407592773 6.299331665039062 C 23.65162658691406 8.414558410644531 19.15966796875 11.44332885742188 15.30149841308594 15.30149841308594 C 11.44332885742188 19.15966796875 8.414558410644531 23.65162658691406 6.299331665039062 28.65258407592773 C 4.110054016113281 33.82861328125 3 39.32865524291992 3 44.99994277954102 C 3 50.67121505737305 4.110054016113281 56.17125701904297 6.299331665039062 61.34728622436523 C 8.414558410644531 66.34825897216797 11.44332885742188 70.8402099609375 15.30149841308594 74.69838714599609 C 19.15966796875 78.55655670166016 23.65162658691406 81.5853271484375 28.65258407592773 83.70055389404297 C 33.82861328125 85.88983154296875 39.32867050170898 86.99988555908203 44.99994277954102 86.99988555908203 C 50.67121505737305 86.99988555908203 56.17125701904297 85.88983154296875 61.34728622436523 83.70055389404297 C 66.34825897216797 81.5853271484375 70.8402099609375 78.55655670166016 74.69838714599609 74.69838714599609 C 78.55655670166016 70.8402099609375 81.5853271484375 66.34825897216797 83.70055389404297 61.34728622436523 C 85.88983154296875 56.17125701904297 86.99988555908203 50.67121505737305 86.99988555908203 44.99994277954102 C 86.99988555908203 39.32867050170898 85.88983154296875 33.82861328125 83.70055389404297 28.65258407592773 C 81.5853271484375 23.65162658691406 78.55655670166016 19.15966796875 74.69838714599609 15.30149841308594 C 70.8402099609375 11.44332885742188 66.34825897216797 8.414558410644531 61.34728622436523 6.299331665039062 C 56.17125701904297 4.110054016113281 50.67121505737305 3 44.99994277954102 3 M 44.99994277954102 0 C 69.85271453857422 0 89.99988555908203 20.14715576171875 89.99988555908203 44.99994277954102 C 89.99988555908203 69.85271453857422 69.85271453857422 89.99988555908203 44.99994277954102 89.99988555908203 C 20.14715576171875 89.99988555908203 0 69.85271453857422 0 44.99994277954102 C 0 20.14715576171875 20.14715576171875 0 44.99994277954102 0 Z" stroke="none" fill="#157d60"/>
              </g>
            </g>
          </g>
        </g>
      </g>
      <g id="maestro_2_" data-name="maestro (2)" transform="translate(611.883 472.075)">
        <g id="Group_1220721" data-name="Group 1220721" transform="translate(24.573 0.967)">
          <g id="Group_1220719" data-name="Group 1220719" transform="translate(0)">
            <path id="Path_1160534" data-name="Path 1160534" d="M79.667,34a4.178,4.178,0,0,0-2.611-6.427,20.369,20.369,0,0,0-40.734,0A4.178,4.178,0,0,0,33.712,34a8.256,8.256,0,0,0,4.053,14.114,5.735,5.735,0,0,0,5.161,8.231H70.453a5.735,5.735,0,0,0,5.161-8.231A8.256,8.256,0,0,0,79.667,34Z" transform="translate(-31.111 -7.496)" fill="#ffe177"/>
            <path id="Path_1160535" data-name="Path 1160535" d="M58.438,56.351H42.925a5.733,5.733,0,0,1-5.161-8.231A8.256,8.256,0,0,1,33.711,34a4.113,4.113,0,0,1-.527-1.093,4.181,4.181,0,0,1,3.137-5.334,20.389,20.389,0,0,1,25.613-19.4,20.386,20.386,0,0,0-15.121,19.4s.6,4.234.073,4.694Z" transform="translate(-31.109 -7.5)" fill="#fece85"/>
            <path id="Path_1160536" data-name="Path 1160536" d="M158.107,377.019v6.1a.857.857,0,0,1-.858.858H134.192a.859.859,0,0,1-.858-.858v-6.1a10.854,10.854,0,0,1,2.553-7.009,10.965,10.965,0,0,1,2.98-2.478,10.835,10.835,0,0,1,5.367-1.413h2.975a10.9,10.9,0,0,1,10.9,10.9Z" transform="translate(-120.142 -319.84)" fill="#f99675"/>
            <path id="Path_1160537" data-name="Path 1160537" d="M149.115,366.289a10.9,10.9,0,0,0-9,10.734v6.957H134.2a.858.858,0,0,1-.858-.858v-6.1a10.9,10.9,0,0,1,10.9-10.9h2.975A10.987,10.987,0,0,1,149.115,366.289Z" transform="translate(-120.146 -319.844)" fill="#f68157"/>
            <path id="Path_1160538" data-name="Path 1160538" d="M189.912,332.9a6.856,6.856,0,0,1-13.712,0,10.781,10.781,0,0,1,3.664-1.28V326.36H186.3v5.272A10.781,10.781,0,0,1,189.912,332.9Z" transform="translate(-157.476 -285.211)" fill="#ffdfcf"/>
            <path id="Path_1160539" data-name="Path 1160539" d="M182.33,330.91v6.353a10.954,10.954,0,0,0-3.919,4.6,6.83,6.83,0,0,1-2.21-5,10.781,10.781,0,0,1,3.664-1.28V330.91Z" transform="translate(-157.476 -289.174)" fill="#ffcebf"/>
            <path id="Path_1160540" data-name="Path 1160540" d="M107.692,176.585a4.664,4.664,0,0,1,6.628,5.436c-.716,2.473-3.731,5.386-6.206,4.67a2.766,2.766,0,0,1-.534-.218h-26.1a2.757,2.757,0,0,1-.534.218c-2.475.716-5.49-2.2-6.2-4.67a4.663,4.663,0,0,1,6.626-5.436Z" transform="translate(-68.953 -154.307)" fill="#ffcebf"/>
            <path id="Path_1160541" data-name="Path 1160541" d="M153.664,131.839v10.069a13.16,13.16,0,0,1-26.319,0v-9.582a1.1,1.1,0,0,1,1.387-1.062,19.844,19.844,0,0,0,5.1.685,18.127,18.127,0,0,0,12.484-4.86.824.824,0,0,1,1.257.179,7.192,7.192,0,0,0,5.118,3.48A1.106,1.106,0,0,1,153.664,131.839Z" transform="translate(-114.926 -111.469)" fill="#ffdfcf"/>
            <path id="Path_1160542" data-name="Path 1160542" d="M143.751,184.027a13.172,13.172,0,0,1-16.4-12.757v-9.582a1.1,1.1,0,0,1,1.387-1.062,19.843,19.843,0,0,0,5.1.685v9.959A13.164,13.164,0,0,0,143.751,184.027Z" transform="translate(-114.927 -140.831)" fill="#ffcebf"/>
          </g>
          <g id="Group_1220720" data-name="Group 1220720" transform="translate(33.447 45.482)">
            <path id="Path_1160543" data-name="Path 1160543" d="M313.772,468.706H291.418a1.12,1.12,0,0,0-1.12,1.12v.051a3.446,3.446,0,0,0,3.446,3.446h17.7a3.446,3.446,0,0,0,3.446-3.446v-.051A1.121,1.121,0,0,0,313.772,468.706Z" transform="translate(-290.297 -454.67)" fill="#deecf1"/>
            <path id="Path_1160544" data-name="Path 1160544" d="M299.982,473.327h-6.245a3.446,3.446,0,0,1-3.447-3.446v-.052a1.121,1.121,0,0,1,1.121-1.12h6.245a1.12,1.12,0,0,0-1.12,1.12v.052A3.445,3.445,0,0,0,299.982,473.327Z" transform="translate(-290.291 -454.674)" fill="#cbe5e8"/>
            <path id="Path_1160545" data-name="Path 1160545" d="M324.2,359.942H307.547a2,2,0,0,0-2,2v12.033H326.2V361.945A2,2,0,0,0,324.2,359.942Z" transform="translate(-303.576 -359.942)" fill="#deecf1"/>
            <path id="Path_1160546" data-name="Path 1160546" d="M330.545,391.761v-6.054a.764.764,0,0,1,.764-.764h12.678a.764.764,0,0,1,.764.764v6.054a.764.764,0,0,1-.764.764H331.309A.765.765,0,0,1,330.545,391.761Z" transform="translate(-325.35 -381.716)" fill="#2ed1e2"/>
          </g>
        </g>
        <g id="Group_1220722" data-name="Group 1220722" transform="translate(23.605 0)">
          <path id="Path_1160547" data-name="Path 1160547" d="M184.51,191.18v-1.707a.968.968,0,1,0-1.936,0v1.707a.968.968,0,1,0,1.936,0Z" transform="translate(-162.059 -164.179)"/>
          <path id="Path_1160548" data-name="Path 1160548" d="M262.04,192.148a.968.968,0,0,0,.968-.968v-1.707a.968.968,0,1,0-1.936,0v1.707A.968.968,0,0,0,262.04,192.148Z" transform="translate(-230.427 -164.179)"/>
          <path id="Path_1160549" data-name="Path 1160549" d="M203.848,257.675a.968.968,0,0,0-1.369-1.369,3.865,3.865,0,0,1-5.46,0,.968.968,0,1,0-1.369,1.369,5.8,5.8,0,0,0,8.2,0Z" transform="translate(-173.202 -222.984)"/>
          <path id="Path_1160550" data-name="Path 1160550" d="M198.677,445.546a.968.968,0,0,0-.968.968v1.312a.968.968,0,1,0,1.936,0v-1.312A.968.968,0,0,0,198.677,445.546Z" transform="translate(-175.241 -388.049)"/>
          <path id="Path_1160551" data-name="Path 1160551" d="M246.9,445.546a.968.968,0,0,0-.968.968v1.312a.968.968,0,1,0,1.936,0v-1.312A.968.968,0,0,0,246.9,445.546Z" transform="translate(-217.242 -388.049)"/>
          <path id="Path_1160552" data-name="Path 1160552" d="M81.616,59.524V48.453a2.974,2.974,0,0,0-2.971-2.971H70.47a6.763,6.763,0,0,0-.028-2.917q-.037-.159-.081-.316A9.248,9.248,0,0,0,76.7,33.485a9.2,9.2,0,0,0-2.37-6.171,5.15,5.15,0,0,0-.689-5.449,5.176,5.176,0,0,0-2.175-1.552,21.342,21.342,0,0,0-40.336-8.65.968.968,0,0,0,1.725.878,19.4,19.4,0,0,1,36.7,8.516.968.968,0,0,0,.771.934,3.224,3.224,0,0,1,1.824,1.1,3.209,3.209,0,0,1,.183,3.833.968.968,0,0,0,.138,1.248,7.288,7.288,0,0,1-3.577,12.46.968.968,0,0,0-.684,1.372,4.726,4.726,0,0,1,.351.993,4.812,4.812,0,0,1,.124,1.084,4.749,4.749,0,0,1-.209,1.4h-6.48a2.974,2.974,0,0,0-2.971,2.971v.4a11.943,11.943,0,0,0-1.534-1.04h0a11.734,11.734,0,0,0-3.122-1.223v-1.7a14.179,14.179,0,0,0,9.6-10.506,3.906,3.906,0,0,0,.572.043,5.742,5.742,0,0,0,3.577-1.471,8.57,8.57,0,0,0,2.758-4.01,5.632,5.632,0,0,0-6.591-7.071v-.54a2.084,2.084,0,0,0-1.811-2.051,6.259,6.259,0,0,1-4.424-3.031,1.792,1.792,0,0,0-2.73-.386,17.627,17.627,0,0,1-16.681,3.959,2.067,2.067,0,0,0-2.609,2v.054a5.632,5.632,0,0,0-6.59,7.071,8.571,8.571,0,0,0,2.758,4.01,5.74,5.74,0,0,0,3.577,1.47,3.924,3.924,0,0,0,.572-.043,14.178,14.178,0,0,0,9.651,10.523v1.672a11.724,11.724,0,0,0-3.173,1.236h0A11.815,11.815,0,0,0,41.3,48.85H36.388a4.767,4.767,0,0,1-4.29-6.84.968.968,0,0,0-.684-1.372,7.292,7.292,0,0,1-5.874-7.152,7.223,7.223,0,0,1,2.3-5.309.968.968,0,0,0,.139-1.246,3.209,3.209,0,0,1,2-4.938.968.968,0,0,0,.771-.934,19.482,19.482,0,0,1,.592-4.507.968.968,0,1,0-1.876-.476,21.378,21.378,0,0,0-.629,4.237,5.14,5.14,0,0,0-2.864,7,9.225,9.225,0,0,0,3.967,14.933,6.7,6.7,0,0,0,6.446,8.537h2.97A11.835,11.835,0,0,0,36.8,58.146v6.1a1.828,1.828,0,0,0,1.826,1.826H79.17a4.419,4.419,0,0,0,4.414-4.414v-.051a2.089,2.089,0,0,0-1.968-2.082ZM61.991,47.418H78.646a1.036,1.036,0,0,1,1.035,1.035V59.518H60.957V48.453A1.036,1.036,0,0,1,61.991,47.418ZM59.021,51.5v8.019a2.089,2.089,0,0,0-1.968,2.082v.051a4.389,4.389,0,0,0,.763,2.478h-6.7V56.378a7.856,7.856,0,0,0,6.662-6.034A9.97,9.97,0,0,1,59.021,51.5Zm7.466-27.67a3.7,3.7,0,0,1,2.524,4.577,6.667,6.667,0,0,1-2.128,3.053A3.6,3.6,0,0,1,64.24,32.47q.039-.526.04-1.063V29.845a2.252,2.252,0,0,1,1.665-2.169.968.968,0,0,0-.5-1.87,4.164,4.164,0,0,0-1.164.514V23.883a3.686,3.686,0,0,1,2.207-.048ZM33.422,31.464a6.667,6.667,0,0,1-2.128-3.052,3.7,3.7,0,0,1,4.731-4.529V26.32a4.161,4.161,0,0,0-1.164-.514.968.968,0,1,0-.5,1.87,2.252,2.252,0,0,1,1.665,2.173h0v1.556q0,.536.04,1.062a3.6,3.6,0,0,1-2.642-1.006Zm4.538-.057V21.824a.127.127,0,0,1,.052-.106.123.123,0,0,1,.076-.027.135.135,0,0,1,.036.005A19.54,19.54,0,0,0,56.49,17.418a8.123,8.123,0,0,0,5.723,3.788.142.142,0,0,1,.131.133V31.407a12.192,12.192,0,1,1-24.384,0Zm.772,26.739a9.911,9.911,0,0,1,3.53-7.59c.085-.072.172-.14.259-.209a7.78,7.78,0,0,0,.746,1.99.968.968,0,1,0,1.7-.922,5.874,5.874,0,0,1-.674-2.189,9.81,9.81,0,0,1,2.815-.89.968.968,0,0,0,.818-.956V45.359a14.163,14.163,0,0,0,4.5-.009v2.039a.968.968,0,0,0,.814.955,9.8,9.8,0,0,1,2.767.88,5.893,5.893,0,0,1-8.226,4.785.968.968,0,1,0-.778,1.773,7.76,7.76,0,0,0,2.178.6v7.757H38.733V58.146Zm42.915,3.511a2.481,2.481,0,0,1-2.478,2.478h-17.7a2.481,2.481,0,0,1-2.478-2.478v-.051a.153.153,0,0,1,.153-.153H81.5a.153.153,0,0,1,.153.153Z" transform="translate(-23.605 0)"/>
          <path id="Path_1160553" data-name="Path 1160553" d="M324.777,386.96h12.679a1.734,1.734,0,0,0,1.732-1.733v-6.054a1.734,1.734,0,0,0-1.732-1.733H334.9a.968.968,0,1,0,0,1.936h2.356v5.648H324.981v-5.648h5.408a.968.968,0,1,0,0-1.936h-5.612a1.734,1.734,0,0,0-1.732,1.733v6.054A1.734,1.734,0,0,0,324.777,386.96Z" transform="translate(-284.403 -328.732)"/>
        </g>
      </g>
    </g>
  </g>
</svg>
