<svg xmlns="http://www.w3.org/2000/svg" xmlns:xlink="http://www.w3.org/1999/xlink" width="108" height="108" viewBox="0 0 108 108">
  <defs>
    <filter id="Path_904820" x="0" y="0" width="108" height="108" filterUnits="userSpaceOnUse">
      <feOffset dy="3" input="SourceAlpha"/>
      <feGaussianBlur stdDeviation="3" result="blur"/>
      <feFlood flood-opacity="0.161"/>
      <feComposite operator="in" in2="blur"/>
      <feComposite in="SourceGraphic"/>
    </filter>
  </defs>
  <g id="Group_1220886" data-name="Group 1220886" transform="translate(-620 -4365.52)">
    <g id="Group_1220783" data-name="Group 1220783" transform="translate(0 23)">
      <g id="Group_1220049" data-name="Group 1220049" transform="translate(629 4348.52)">
        <g id="Group_1219701" data-name="Group 1219701" transform="translate(0 0)">
          <g id="Group_1173585" data-name="Group 1173585">
            <g id="Group_1173428" data-name="Group 1173428">
              <g id="Group_1171958" data-name="Group 1171958">
                <g id="Group_1167341" data-name="Group 1167341">
                  <g id="Group_1166792" data-name="Group 1166792">
                    <g transform="matrix(1, 0, 0, 1, -9, -6)" filter="url(#Path_904820)">
                      <g id="Path_904820-2" data-name="Path 904820" transform="translate(9 6)" fill="#f8ecfd">
                        <path d="M 44.99999618530273 88.50001525878906 C 39.12687301635742 88.50001525878906 33.43022155761719 87.35009002685547 28.06829643249512 85.08217620849609 C 22.88852119445801 82.89132690429688 18.23629570007324 79.75460052490234 14.24084663391113 75.75914764404297 C 10.24540901184082 71.76370239257812 7.108683586120605 67.11147308349609 4.917821407318115 61.93171310424805 C 2.649921178817749 56.56977462768555 1.499996185302734 50.87313461303711 1.499996185302734 45.0000114440918 C 1.499996185302734 39.12688827514648 2.649921178817749 33.43023681640625 4.917821407318115 28.06831169128418 C 7.108683586120605 22.88853645324707 10.24540901184082 18.2363109588623 14.24084663391113 14.2408618927002 C 18.23629570007324 10.24542427062988 22.88852119445801 7.108698844909668 28.06829643249512 4.917836666107178 C 33.43022155761719 2.649936437606812 39.12687301635742 1.500011444091797 44.99999618530273 1.500011444091797 C 50.87311935424805 1.500011444091797 56.56977081298828 2.649936437606812 61.93169784545898 4.917836666107178 C 67.11147308349609 7.108698844909668 71.76369476318359 10.24542427062988 75.75914764404297 14.2408618927002 C 79.75458526611328 18.2363109588623 82.89131164550781 22.88853645324707 85.08216857910156 28.06831169128418 C 87.35007476806641 33.43023681640625 88.5 39.12688827514648 88.5 45.0000114440918 C 88.5 50.87313461303711 87.35007476806641 56.56977462768555 85.08216857910156 61.93171310424805 C 82.89131164550781 67.11147308349609 79.75458526611328 71.76370239257812 75.75914764404297 75.75914764404297 C 71.76369476318359 79.75460052490234 67.11147308349609 82.89132690429688 61.93169784545898 85.08217620849609 C 56.56977081298828 87.35009002685547 50.87311935424805 88.50001525878906 44.99999618530273 88.50001525878906 Z" stroke="none"/>
                        <path d="M 44.99999618530273 3.000007629394531 C 39.32870864868164 3.000007629394531 33.82865142822266 4.110069274902344 28.65262603759766 6.299354553222656 C 23.65165710449219 8.414581298828125 19.15968322753906 11.44335174560547 15.301513671875 15.30152893066406 C 11.44333648681641 19.15969848632812 8.414566040039062 23.65167236328125 6.299339294433594 28.65264129638672 C 4.110054016113281 33.82866668701172 2.999992370605469 39.3287239074707 2.999992370605469 45.0000114440918 C 2.999992370605469 50.67129898071289 4.110054016113281 56.17134094238281 6.299339294433594 61.34738159179688 C 8.414566040039062 66.34835815429688 11.44333648681641 70.84030914306641 15.301513671875 74.69849395751953 C 19.15968322753906 78.55667114257812 23.65165710449219 81.58544158935547 28.65262603759766 83.70066833496094 C 33.82865142822266 85.88995361328125 39.32870864868164 87.00001525878906 44.99999618530273 87.00001525878906 C 50.67128372192383 87.00001525878906 56.17134094238281 85.88995361328125 61.34736633300781 83.70066833496094 C 66.34834289550781 81.58544158935547 70.84030914306641 78.55667114257812 74.69847869873047 74.69849395751953 C 78.55665588378906 70.84030914306641 81.58542633056641 66.34835815429688 83.70065307617188 61.34738159179688 C 85.88993835449219 56.17134094238281 87 50.67129898071289 87 45.0000114440918 C 87 39.3287239074707 85.88993835449219 33.82866668701172 83.70065307617188 28.65264129638672 C 81.58542633056641 23.65167236328125 78.55665588378906 19.15969848632812 74.69847869873047 15.30152893066406 C 70.84030914306641 11.44335174560547 66.34834289550781 8.414581298828125 61.34736633300781 6.299354553222656 C 56.17134094238281 4.110069274902344 50.67128372192383 3.000007629394531 44.99999618530273 3.000007629394531 M 44.99999618530273 7.62939453125e-06 C 69.85281372070312 7.62939453125e-06 90 20.14719390869141 90 45.0000114440918 C 90 69.85281372070312 69.85281372070312 90.00001525878906 44.99999618530273 90.00001525878906 C 20.14717864990234 90.00001525878906 -7.62939453125e-06 69.85281372070312 -7.62939453125e-06 45.0000114440918 C -7.62939453125e-06 20.14719390869141 20.14717864990234 7.62939453125e-06 44.99999618530273 7.62939453125e-06 Z" stroke="none" fill="#c252f0"/>
                      </g>
                    </g>
                  </g>
                </g>
              </g>
            </g>
          </g>
        </g>
      </g>
      <g id="interactive_2861863" transform="translate(645.738 4365.258)">
        <g id="Group_1220781" data-name="Group 1220781" transform="translate(1.879 1.879)">
          <g id="Group_1220773" data-name="Group 1220773" transform="translate(0 6.156)">
            <path id="Path_1160663" data-name="Path 1160663" d="M10.794,43.3v8.794H6.4a4.384,4.384,0,0,1-4.4-4.4V9a4.4,4.4,0,0,0,4.4,4.4h4.4V43.3Z" transform="translate(-2 -9)" fill="#ffeaa7"/>
          </g>
          <g id="Group_1220774" data-name="Group 1220774" transform="translate(43.971 6.156)">
            <path id="Path_1160664" data-name="Path 1160664" d="M60.794,9V47.694a4.4,4.4,0,0,1-4.4,4.4H52V13.4h4.4a4.384,4.384,0,0,0,4.4-4.4Z" transform="translate(-52 -9)" fill="#ffeaa7"/>
          </g>
          <g id="Group_1220775" data-name="Group 1220775" transform="translate(0 1.759)">
            <path id="Path_1160665" data-name="Path 1160665" d="M50.368,4H6.4a4.4,4.4,0,1,0,0,8.794h4.4v29.9H45.971v-29.9h4.4a4.4,4.4,0,1,0,0-8.794Z" transform="translate(-2 -4)" fill="#e6e9ed"/>
          </g>
          <g id="Group_1220776" data-name="Group 1220776" transform="translate(33.418 10.553)">
            <path id="Path_1160666" data-name="Path 1160666" d="M40,14H50.553v7.035H40Z" transform="translate(-40 -14)" fill="#b4dd7f"/>
          </g>
          <g id="Group_1220777" data-name="Group 1220777" transform="translate(12.312)">
            <path id="Path_1160667" data-name="Path 1160667" d="M28.312,3.759V9.035H16V2H28.312Z" transform="translate(-16 -2)" fill="#fcd770"/>
          </g>
          <g id="Group_1220778" data-name="Group 1220778" transform="translate(20.227 15.83)">
            <path id="Path_1160668" data-name="Path 1160668" d="M33.794,24.4a4.386,4.386,0,0,1-2.638,4.028V27.035A1.764,1.764,0,0,0,29.4,25.277a1.772,1.772,0,0,0-1.759,1.759v1.389A4.4,4.4,0,0,1,29.4,20a4.34,4.34,0,0,1,2.1.536A4.392,4.392,0,0,1,33.794,24.4Z" transform="translate(-25 -20)" fill="#ff826e"/>
          </g>
          <g id="Group_1220779" data-name="Group 1220779" transform="translate(12.312 18.468)">
            <path id="Path_1160669" data-name="Path 1160669" d="M19.518,24.759v1.759H16V23h3.518Z" transform="translate(-16 -23)" fill="#ff826e"/>
          </g>
          <g id="Group_1220780" data-name="Group 1220780" transform="translate(15.83 21.106)">
            <path id="Path_1160670" data-name="Path 1160670" d="M37.588,36.553a1.772,1.772,0,0,1,1.759-1.759,1.764,1.764,0,0,1,1.759,1.759v5.8a16.029,16.029,0,0,1-.906,5.312,15.919,15.919,0,0,1-2.612,4.714v5.277H23.518V52.383A16.052,16.052,0,0,1,20,42.357V34.794a.882.882,0,0,1,.879-.879,2.635,2.635,0,0,1,2.638,2.638V41.83a1.772,1.772,0,0,0,1.759,1.759,1.764,1.764,0,0,0,1.759-1.759V27.759A1.772,1.772,0,0,1,28.794,26a1.764,1.764,0,0,1,1.759,1.759v5.277a1.772,1.772,0,0,1,1.759-1.759,1.764,1.764,0,0,1,1.759,1.759v1.759a1.772,1.772,0,0,1,1.759-1.759,1.764,1.764,0,0,1,1.759,1.759Z" transform="translate(-20 -26)" fill="#f0d0b4"/>
          </g>
        </g>
        <g id="Group_1220782" data-name="Group 1220782" transform="translate(1 1)">
          <path id="Path_1160671" data-name="Path 1160671" d="M19,5h1.759V6.759H19Z" transform="translate(-3.17 -1.482)"/>
          <path id="Path_1160672" data-name="Path 1160672" d="M23,5h3.518V6.759H23Z" transform="translate(-3.653 -1.482)"/>
          <path id="Path_1160673" data-name="Path 1160673" d="M50.247,2.759H27.383V1H13.312V2.759H6.277A5.282,5.282,0,0,0,1,8.035V46.73a5.282,5.282,0,0,0,5.277,5.277h5.277V43.212H17.29a16.987,16.987,0,0,0,3.057,6.46v5.852h15.83V49.672a16.987,16.987,0,0,0,3.057-6.46h5.737v8.794h5.277a5.282,5.282,0,0,0,5.277-5.277V8.035A5.282,5.282,0,0,0,50.247,2.759Zm-35.177,0H25.624V8.035H15.071ZM6.277,4.518h7.035V9.794h6.475l3.721,7.973a5.283,5.283,0,0,0-2.2,3.46H18.588V19.468H13.312v5.277h5.277V22.985h2.718a5.269,5.269,0,0,0,2.558,3.679v12.15a.879.879,0,0,1-1.759,0V33.538a3.521,3.521,0,0,0-3.518-3.518A1.761,1.761,0,0,0,16.83,31.78v6.156H11.553V36.177h3.518V34.418H11.553V11.553H6.277a3.518,3.518,0,0,1,0-7.035Zm29.9,8.794h8.794v5.277H36.177Zm8.794,7.035V37.936H39.694V36.177h3.518V34.418H39.694v-.879a2.63,2.63,0,0,0-3.62-2.445,2.616,2.616,0,0,0-3.518-1.759,2.594,2.594,0,0,0-3.416-1.79v-.879a5.258,5.258,0,0,0,.622-8.7L32.3,13.312h2.116v7.035Zm-14.95,1.759a3.512,3.512,0,0,1-.908,2.355,2.623,2.623,0,0,0-5.218,0,3.517,3.517,0,1,1,6.127-2.355ZM16.83,21.227v1.759H15.071V21.227ZM9.794,50.247H6.277A3.521,3.521,0,0,1,2.759,46.73V11.965a5.261,5.261,0,0,0,3.518,1.346H9.794Zm1.759-8.794V39.694h5.291a16.762,16.762,0,0,0,.134,1.759ZM37.936,39.34a15.23,15.23,0,0,1-3.325,9.478l-.193.241v4.706H22.106V49.059l-.193-.241a15.23,15.23,0,0,1-3.325-9.478V31.78a1.761,1.761,0,0,1,1.759,1.759v5.277a2.638,2.638,0,1,0,5.277,0V24.744a.879.879,0,0,1,1.759,0v14.95h1.759V30.021a.879.879,0,1,1,1.759,0v9.674h1.759V31.78a.879.879,0,0,1,1.759,0v7.915h1.759V33.538a.879.879,0,1,1,1.759,0Zm1.611,2.113a17,17,0,0,0,.134-1.759h5.291v1.759ZM53.765,46.73a3.521,3.521,0,0,1-3.518,3.518H46.73V13.312h3.518a5.259,5.259,0,0,0,3.518-1.346ZM50.247,11.553H31.257L28.22,17.122a5.164,5.164,0,0,0-3.118-.1l-3.374-7.23h5.655V4.518H50.247a3.518,3.518,0,0,1,0,7.035Z" transform="translate(-1 -1)"/>
          <path id="Path_1160674" data-name="Path 1160674" d="M39,25h8.794v1.759H39Z" transform="translate(-5.582 -3.894)"/>
          <path id="Path_1160675" data-name="Path 1160675" d="M43,29h5.277v1.759H43Z" transform="translate(-6.064 -4.376)"/>
          <path id="Path_1160676" data-name="Path 1160676" d="M43,17h5.277v1.759H43Z" transform="translate(-6.064 -2.929)"/>
        </g>
      </g>
    </g>
  </g>
</svg>
