<svg xmlns="http://www.w3.org/2000/svg" xmlns:xlink="http://www.w3.org/1999/xlink" width="108" height="108" viewBox="0 0 108 108">
  <defs>
    <filter id="Path_904820" x="0" y="0" width="108" height="108" filterUnits="userSpaceOnUse">
      <feOffset dy="3" input="SourceAlpha"/>
      <feGaussianBlur stdDeviation="3" result="blur"/>
      <feFlood flood-opacity="0.161"/>
      <feComposite operator="in" in2="blur"/>
      <feComposite in="SourceGraphic"/>
    </filter>
  </defs>
  <g id="Group_1220898" data-name="Group 1220898" transform="translate(-617 -7232.12)">
    <g id="Group_1220814" data-name="Group 1220814" transform="translate(626 7238.12)">
      <g id="Group_1220530" data-name="Group 1220530" transform="translate(0 0)">
        <g id="Group_1219701" data-name="Group 1219701">
          <g id="Group_1173585" data-name="Group 1173585">
            <g id="Group_1173428" data-name="Group 1173428">
              <g id="Group_1171958" data-name="Group 1171958">
                <g id="Group_1167341" data-name="Group 1167341">
                  <g id="Group_1166792" data-name="Group 1166792">
                    <g transform="matrix(1, 0, 0, 1, -9, -6)" filter="url(#Path_904820)">
                      <g id="Path_904820-2" data-name="Path 904820" transform="translate(9 6)" fill="#fef8e9">
                        <path d="M 44.99999618530273 88.50001525878906 C 39.12687301635742 88.50001525878906 33.43022155761719 87.35009002685547 28.06829643249512 85.08217620849609 C 22.88852119445801 82.89132690429688 18.23629570007324 79.75460052490234 14.24084663391113 75.75914764404297 C 10.24540901184082 71.76370239257812 7.108683586120605 67.11147308349609 4.917821407318115 61.93171310424805 C 2.649921178817749 56.56977462768555 1.499996185302734 50.87313461303711 1.499996185302734 45.0000114440918 C 1.499996185302734 39.12688827514648 2.649921178817749 33.43023681640625 4.917821407318115 28.06831169128418 C 7.108683586120605 22.88853645324707 10.24540901184082 18.2363109588623 14.24084663391113 14.2408618927002 C 18.23629570007324 10.24542427062988 22.88852119445801 7.108698844909668 28.06829643249512 4.917836666107178 C 33.43022155761719 2.649936437606812 39.12687301635742 1.500011444091797 44.99999618530273 1.500011444091797 C 50.87311935424805 1.500011444091797 56.56977081298828 2.649936437606812 61.93169784545898 4.917836666107178 C 67.11147308349609 7.108698844909668 71.76369476318359 10.24542427062988 75.75914764404297 14.2408618927002 C 79.75458526611328 18.2363109588623 82.89131164550781 22.88853645324707 85.08216857910156 28.06831169128418 C 87.35007476806641 33.43023681640625 88.5 39.12688827514648 88.5 45.0000114440918 C 88.5 50.87313461303711 87.35007476806641 56.56977462768555 85.08216857910156 61.93171310424805 C 82.89131164550781 67.11147308349609 79.75458526611328 71.76370239257812 75.75914764404297 75.75914764404297 C 71.76369476318359 79.75460052490234 67.11147308349609 82.89132690429688 61.93169784545898 85.08217620849609 C 56.56977081298828 87.35009002685547 50.87311935424805 88.50001525878906 44.99999618530273 88.50001525878906 Z" stroke="none"/>
                        <path d="M 44.99999618530273 3.000007629394531 C 39.32870864868164 3.000007629394531 33.82865142822266 4.110069274902344 28.65262603759766 6.299354553222656 C 23.65165710449219 8.414581298828125 19.15968322753906 11.44335174560547 15.301513671875 15.30152893066406 C 11.44333648681641 19.15969848632812 8.414566040039062 23.65167236328125 6.299339294433594 28.65264129638672 C 4.110054016113281 33.82866668701172 2.999992370605469 39.3287239074707 2.999992370605469 45.0000114440918 C 2.999992370605469 50.67129898071289 4.110054016113281 56.17134094238281 6.299339294433594 61.34738159179688 C 8.414566040039062 66.34835815429688 11.44333648681641 70.84030914306641 15.301513671875 74.69849395751953 C 19.15968322753906 78.55667114257812 23.65165710449219 81.58544158935547 28.65262603759766 83.70066833496094 C 33.82865142822266 85.88995361328125 39.32870864868164 87.00001525878906 44.99999618530273 87.00001525878906 C 50.67128372192383 87.00001525878906 56.17134094238281 85.88995361328125 61.34736633300781 83.70066833496094 C 66.34834289550781 81.58544158935547 70.84030914306641 78.55667114257812 74.69847869873047 74.69849395751953 C 78.55665588378906 70.84030914306641 81.58542633056641 66.34835815429688 83.70065307617188 61.34738159179688 C 85.88993835449219 56.17134094238281 87 50.67129898071289 87 45.0000114440918 C 87 39.3287239074707 85.88993835449219 33.82866668701172 83.70065307617188 28.65264129638672 C 81.58542633056641 23.65167236328125 78.55665588378906 19.15969848632812 74.69847869873047 15.30152893066406 C 70.84030914306641 11.44335174560547 66.34834289550781 8.414581298828125 61.34736633300781 6.299354553222656 C 56.17134094238281 4.110069274902344 50.67128372192383 3.000007629394531 44.99999618530273 3.000007629394531 M 44.99999618530273 7.62939453125e-06 C 69.85281372070312 7.62939453125e-06 90 20.14719390869141 90 45.0000114440918 C 90 69.85281372070312 69.85281372070312 90.00001525878906 44.99999618530273 90.00001525878906 C 20.14717864990234 90.00001525878906 -7.62939453125e-06 69.85281372070312 -7.62939453125e-06 45.0000114440918 C -7.62939453125e-06 20.14719390869141 20.14717864990234 7.62939453125e-06 44.99999618530273 7.62939453125e-06 Z" stroke="none" fill="#f8c234"/>
                      </g>
                    </g>
                  </g>
                </g>
              </g>
            </g>
          </g>
        </g>
      </g>
      <g id="Fill_Outline" data-name="Fill Outline" transform="translate(15 14.308)">
        <path id="Path_1160959" data-name="Path 1160959" d="M3,23V55H24a10,10,0,0,1,8,4,10,10,0,0,1,8-4H61V23Z" transform="translate(-2 -3.998)" fill="#f06e7a"/>
        <path id="Path_1160960" data-name="Path 1160960" d="M32.555,23A3.955,3.955,0,0,0,32,25a3.955,3.955,0,0,0-.555-2H5V53H23.528A18.945,18.945,0,0,1,32,55a18.946,18.946,0,0,1,8.472-2H57V23Z" transform="translate(-2 -3.998)" fill="#a7325c"/>
        <path id="Path_1160961" data-name="Path 1160961" d="M36,19a4,4,0,0,0-4,4V53a18.949,18.949,0,0,1,8.472-2H57V19Z" transform="translate(-2 -3.998)" fill="#92e5eb"/>
        <path id="Path_1160962" data-name="Path 1160962" d="M7,19V51H23.528A18.948,18.948,0,0,1,32,53V23a4,4,0,0,0-4-4Z" transform="translate(-2 -3.998)" fill="#92e5eb"/>
        <path id="Path_1160963" data-name="Path 1160963" d="M38,33V19H36a4,4,0,0,0-4,4V53a18.946,18.946,0,0,1,8.472-2H57V47H52A14,14,0,0,1,38,33Z" transform="translate(-2 -3.998)" fill="#68cbf2"/>
        <path id="Path_1160964" data-name="Path 1160964" d="M22,45A10,10,0,0,1,12,35V19H7V51H23.528A18.945,18.945,0,0,1,32,53V47a18.946,18.946,0,0,0-8.472-2Z" transform="translate(-2 -3.998)" fill="#68cbf2"/>
        <circle id="Ellipse_12644" data-name="Ellipse 12644" cx="11" cy="11" r="11" transform="translate(19 1.002)" fill="#34b2e4"/>
        <path id="Path_1160965" data-name="Path 1160965" d="M36,23A10.986,10.986,0,0,1,26.49,6.49,10.993,10.993,0,1,0,41.51,21.51,10.93,10.93,0,0,1,36,23Z" transform="translate(-2 -3.998)" fill="#2070a1"/>
        <path id="Path_1160966" data-name="Path 1160966" d="M43,16A10.994,10.994,0,0,1,32,27V24l3-2-1-3,4-5-4-2,3.81-5.34A10.968,10.968,0,0,1,43,16Z" transform="translate(-2 -3.998)" fill="#80e1b8"/>
        <path id="Path_1160967" data-name="Path 1160967" d="M26,15l3,4-2,4-2.6.95a11,11,0,0,1,.04-15.94L29,12Z" transform="translate(-2 -3.998)" fill="#80e1b8"/>
        <path id="Path_1160968" data-name="Path 1160968" d="M34.19,5.22,31,10,29.43,5.3A10.83,10.83,0,0,1,32,5a10.565,10.565,0,0,1,2.19.22Z" transform="translate(-2 -3.998)" fill="#80e1b8"/>
        <path id="Path_1160969" data-name="Path 1160969" d="M33.826,22.783,32,24v3a10.984,10.984,0,0,0,9.515-5.494,10.952,10.952,0,0,1-7.689,1.277Z" transform="translate(-2 -3.998)" fill="#3aba80"/>
        <path id="Path_1160970" data-name="Path 1160970" d="M25,12a10.98,10.98,0,0,1,.452-3.1L24.44,8.01a11,11,0,0,0-.04,15.94L27,23l1.489-2.979A10.959,10.959,0,0,1,25,12Z" transform="translate(-2 -3.998)" fill="#3aba80"/>
        <g id="Group_1220813" data-name="Group 1220813">
          <path id="Path_1160971" data-name="Path 1160971" d="M61,22a1,1,0,0,0-1,1V54H40a11.061,11.061,0,0,0-8,3.451A11.057,11.057,0,0,0,24,54H4V23a1,1,0,0,0-2,0V55a1,1,0,0,0,1,1H24a9.045,9.045,0,0,1,7.2,3.6,1,1,0,0,0,1.6,0A9.044,9.044,0,0,1,40,56H61a1,1,0,0,0,1-1V23A1,1,0,0,0,61,22Z" transform="translate(-2 -3.998)" fill="#2f2f31"/>
          <path id="Path_1160972" data-name="Path 1160972" d="M12,36a1,1,0,0,0-1,1v8a1,1,0,0,0,1,1h2a3,3,0,0,0,0-6H13V37A1,1,0,0,0,12,36Zm3,7a1,1,0,0,1-1,1H13V42h1A1,1,0,0,1,15,43Z" transform="translate(-2 -3.998)" fill="#2f2f31"/>
          <path id="Path_1160973" data-name="Path 1160973" d="M18.1,23.553l-4,8a1,1,0,1,0,1.79.894L17.118,30h3.764L22.1,32.447a1,1,0,1,0,1.79-.894l-4-8a1.042,1.042,0,0,0-1.79,0ZM19.882,28H18.118L19,26.236Z" transform="translate(-2 -3.998)" fill="#2f2f31"/>
          <path id="Path_1160974" data-name="Path 1160974" d="M23.612,41.165a.6.6,0,0,1,.524.309,1,1,0,0,0,1.728-1.006A2.607,2.607,0,0,0,21,41.776v1.613A2.607,2.607,0,0,0,25.864,44.7a1,1,0,0,0-1.728-1.006.6.6,0,0,1-.524.309A.612.612,0,0,1,23,43.389V41.776a.612.612,0,0,1,.612-.611Z" transform="translate(-2 -3.998)" fill="#2f2f31"/>
          <path id="Path_1160975" data-name="Path 1160975" d="M38.528,44.882a1,1,0,0,0,1.027-.05l3-2a1,1,0,0,0-1.11-1.664L40,42.132V36a1,1,0,0,0-1-1H36a1,1,0,0,0,0,2h2v7a1,1,0,0,0,.528.882Z" transform="translate(-2 -3.998)" fill="#2f2f31"/>
          <path id="Path_1160976" data-name="Path 1160976" d="M39,34a1,1,0,0,0,.707-1.707l-2-2a1,1,0,1,0-1.414,1.414l2,2A1,1,0,0,0,39,34Z" transform="translate(-2 -3.998)" fill="#2f2f31"/>
          <path id="Path_1160977" data-name="Path 1160977" d="M53,28a1,1,0,0,0,0-2H44a1,1,0,0,0,0,2h2.867l-.25,2H44a1,1,0,0,0,0,2h2.367l-.359,2.876a.852.852,0,0,0,.009.124H44a1,1,0,0,0,0,2h9a1,1,0,0,0,0-2H52V31a1,1,0,0,0-1-1H48.633l.25-2Zm-3,4v3H48.008l.375-3Z" transform="translate(-2 -3.998)" fill="#2f2f31"/>
          <path id="Path_1160978" data-name="Path 1160978" d="M53,47a1,1,0,0,0,1-1V40a1,1,0,0,0-1-1H45a1,1,0,0,0-1,1v6a1,1,0,0,0,2,0V45h6v1A1,1,0,0,0,53,47Zm-7-4V41h6v2Z" transform="translate(-2 -3.998)" fill="#2f2f31"/>
          <path id="Path_1160979" data-name="Path 1160979" d="M7,40a1,1,0,0,0,1-1V20h9.425a1,1,0,0,0,0-2H7a1,1,0,0,0-1,1V39A1,1,0,0,0,7,40Z" transform="translate(-2 -3.998)" fill="#2f2f31"/>
          <path id="Path_1160980" data-name="Path 1160980" d="M7,52H23.528a18.023,18.023,0,0,1,8.025,1.9c.013.006.029,0,.043.01A1.018,1.018,0,0,0,32,54a1,1,0,0,0,.4-.1c.015-.006.031,0,.046-.01A18.023,18.023,0,0,1,40.472,52H57a1,1,0,0,0,1-1V19a1,1,0,0,0-1-1H46.575a1,1,0,0,0,0,2H56V50H40.472A20.05,20.05,0,0,0,33,51.462V31a1,1,0,0,0-2,0V51.453A20.061,20.061,0,0,0,23.528,50H8V43a1,1,0,0,0-2,0v8a1,1,0,0,0,1,1Z" transform="translate(-2 -3.998)" fill="#2f2f31"/>
          <path id="Path_1160981" data-name="Path 1160981" d="M32,28A11.937,11.937,0,0,0,43.824,14.02a1,1,0,1,0-1.972.328A9.936,9.936,0,0,1,33,25.949V24.535l2.555-1.7a1,1,0,0,0,.394-1.148L35.121,19.2l3.66-4.575a1,1,0,0,0-.334-1.52l-2.975-1.487a1,1,0,1,0-.9,1.789l1.869.935-3.227,4.033a1,1,0,0,0-.168.941l.759,2.276L31.44,23.168A1,1,0,0,0,31,24v1.949a9.921,9.921,0,0,1-4.6-1.666l.939-.344a1,1,0,0,0,.552-.492l2-4A1,1,0,0,0,29.8,18.4l-2.48-3.306,2.387-2.387a1,1,0,0,0-.048-1.46L25.984,8.031a10.013,10.013,0,0,1,2.805-1.493l1.262,3.778a1,1,0,0,0,1.781.239l2.8-4.193a10.063,10.063,0,0,1,5.979,4.571,1,1,0,1,0,1.723-1.016A12,12,0,1,0,32,28Zm.447-21.97L31.3,7.746l-.554-1.659A9.945,9.945,0,0,1,32,6c.15,0,.3.023.447.03ZM24.508,9.4l3.029,2.65-2.244,2.244A1,1,0,0,0,25.2,15.6l2.629,3.5L26.283,22.2l-1.608.588A9.942,9.942,0,0,1,24.508,9.4Z" transform="translate(-2 -3.998)" fill="#2f2f31"/>
        </g>
      </g>
    </g>
  </g>
</svg>
