<svg xmlns="http://www.w3.org/2000/svg" xmlns:xlink="http://www.w3.org/1999/xlink" width="103" height="103" viewBox="0 0 103 103">
  <defs>
    <filter id="Path_978624" x="0" y="0" width="103" height="103" filterUnits="userSpaceOnUse">
      <feOffset dy="3" input="SourceAlpha"/>
      <feGaussianBlur stdDeviation="3" result="blur"/>
      <feFlood flood-opacity="0.161"/>
      <feComposite operator="in" in2="blur"/>
      <feComposite in="SourceGraphic"/>
    </filter>
  </defs>
  <g id="Group_1220902" data-name="Group 1220902" transform="translate(-163.301 -8377.74)">
    <g id="Group_1220901" data-name="Group 1220901">
      <g id="Group_1220826" data-name="Group 1220826" transform="translate(0 -44.88)">
        <g id="Group_1220561" data-name="Group 1220561" transform="translate(-46 5193.62)">
          <g id="Group_1214503" data-name="Group 1214503" transform="translate(218.301 3235)">
            <g id="Group_1211421" data-name="Group 1211421">
              <g id="Group_1208651" data-name="Group 1208651">
                <g id="Group_1178144" data-name="Group 1178144">
                  <g id="Group_1177896" data-name="Group 1177896">
                    <g id="Group_1176881" data-name="Group 1176881">
                      <g id="Group_1175148" data-name="Group 1175148">
                        <g id="Group_1173798" data-name="Group 1173798">
                          <g id="Group_1171925" data-name="Group 1171925">
                            <g id="Group_1164524" data-name="Group 1164524">
                              <g id="Group_1144123" data-name="Group 1144123">
                                <g transform="matrix(1, 0, 0, 1, -9, -6)" filter="url(#Path_978624)">
                                  <g id="Path_978624-2" data-name="Path 978624" transform="translate(9 6)" fill="#e8fcf6">
                                    <path d="M 42.5 83.5 C 36.96437835693359 83.5 31.59512901306152 82.41617584228516 26.54141235351562 80.27863311767578 C 21.65934181213379 78.21369171142578 17.27447128295898 75.25723266601562 13.50862312316895 71.49137878417969 C 9.742764472961426 67.72553253173828 6.786305904388428 63.34066009521484 4.721364498138428 58.45858764648438 C 2.583823442459106 53.40486907958984 1.5 48.03562164306641 1.5 42.5 C 1.5 36.96437835693359 2.583823442459106 31.59512901306152 4.721364498138428 26.54141235351562 C 6.786305904388428 21.65934181213379 9.742764472961426 17.27447128295898 13.50862312316895 13.50862312316895 C 17.27447128295898 9.742764472961426 21.65934181213379 6.786305904388428 26.54141235351562 4.721364498138428 C 31.59512901306152 2.583823442459106 36.96437835693359 1.5 42.5 1.5 C 48.03562164306641 1.5 53.40486907958984 2.583823442459106 58.45858764648438 4.721364498138428 C 63.34066009521484 6.786305904388428 67.72553253173828 9.742764472961426 71.49137878417969 13.50862312316895 C 75.25723266601562 17.27447128295898 78.21369171142578 21.65934181213379 80.27863311767578 26.54141235351562 C 82.41617584228516 31.59512901306152 83.5 36.96437835693359 83.5 42.5 C 83.5 48.03562164306641 82.41617584228516 53.40486907958984 80.27863311767578 58.45858764648438 C 78.21369171142578 63.34066009521484 75.25723266601562 67.72553253173828 71.49137878417969 71.49137878417969 C 67.72553253173828 75.25723266601562 63.34066009521484 78.21369171142578 58.45858764648438 80.27863311767578 C 53.40486907958984 82.41617584228516 48.03562164306641 83.5 42.5 83.5 Z" stroke="none"/>
                                    <path d="M 42.5 3 C 37.16621398925781 3 31.99356079101562 4.043960571289062 27.125732421875 6.102882385253906 C 22.42246627807617 8.092185974121094 18.19785308837891 10.94070434570312 14.56928253173828 14.56928253173828 C 10.94070434570312 18.19785308837891 8.092185974121094 22.42246627807617 6.102882385253906 27.125732421875 C 4.043960571289062 31.99356079101562 3 37.16621398925781 3 42.5 C 3 47.83378601074219 4.043960571289062 53.00643920898438 6.102882385253906 57.87425231933594 C 8.092185974121094 62.57753372192383 10.94070434570312 66.80213165283203 14.56928253173828 70.43071746826172 C 18.19786834716797 74.05929565429688 22.42246627807617 76.90781402587891 27.125732421875 78.89711761474609 C 31.99356079101562 80.95603942871094 37.16621398925781 82 42.5 82 C 47.83378601074219 82 53.00642395019531 80.95603942871094 57.87425231933594 78.89711761474609 C 62.57753372192383 76.90781402587891 66.80213165283203 74.05929565429688 70.43071746826172 70.43071746826172 C 74.05929565429688 66.80213165283203 76.90781402587891 62.57753372192383 78.89711761474609 57.87425231933594 C 80.95603942871094 53.00642395019531 82 47.83378601074219 82 42.5 C 82 37.16621398925781 80.95603942871094 31.99356079101562 78.89711761474609 27.125732421875 C 76.90781402587891 22.42246627807617 74.05929565429688 18.19786834716797 70.43071746826172 14.56928253173828 C 66.80213165283203 10.94070434570312 62.57753372192383 8.092185974121094 57.87425231933594 6.102882385253906 C 53.00643920898438 4.043960571289062 47.83378601074219 3 42.5 3 M 42.5 0 C 65.97209167480469 0 85 19.02789306640625 85 42.5 C 85 65.97209167480469 65.97209167480469 85 42.5 85 C 19.02789306640625 85 0 65.97209167480469 0 42.5 C 0 19.02789306640625 19.02789306640625 0 42.5 0 Z" stroke="none" fill="#157d60"/>
                                  </g>
                                </g>
                              </g>
                            </g>
                          </g>
                        </g>
                      </g>
                    </g>
                  </g>
                </g>
              </g>
            </g>
          </g>
        </g>
        <g id="lista-de-verificacion" transform="translate(159.98 8441.663)">
          <g id="Group_1220822" data-name="Group 1220822" transform="translate(34.868 0.848)">
            <g id="Group_1220821" data-name="Group 1220821" transform="translate(0)">
              <g id="Group_1220818" data-name="Group 1220818">
                <g id="Group_1220815" data-name="Group 1220815">
                  <path id="Path_1160982" data-name="Path 1160982" d="M79.4,99.983H43.592a2.077,2.077,0,0,1-2.077-2.077V50.468a2.077,2.077,0,0,1,2.077-2.077H79.4a2.077,2.077,0,0,1,2.077,2.077V97.906A2.077,2.077,0,0,1,79.4,99.983Z" transform="translate(-41.515 -43.766)" fill="#ffc250"/>
                  <path id="Path_1160983" data-name="Path 1160983" d="M321.976,48.39h-6.95a2.077,2.077,0,0,1,2.077,2.077V97.9a2.077,2.077,0,0,1-2.077,2.077h6.95a2.077,2.077,0,0,0,2.077-2.077V50.467a2.077,2.077,0,0,0-2.077-2.077Z" transform="translate(-284.088 -43.765)" fill="#eab14d"/>
                  <path id="Path_1160984" data-name="Path 1160984" d="M71.522,122.459V79.14a.742.742,0,0,1,.742-.742h31.691a.742.742,0,0,1,.742.742v43.319a.742.742,0,0,1-.742.742H72.264A.742.742,0,0,1,71.522,122.459Z" transform="translate(-68.128 -70.379)" fill="#f5f5f5"/>
                  <path id="Path_1160985" data-name="Path 1160985" d="M303.766,78.4h-6.95a.742.742,0,0,1,.742.742v43.319a.742.742,0,0,1-.742.742h6.95a.742.742,0,0,0,.742-.742V79.14A.742.742,0,0,0,303.766,78.4Z" transform="translate(-267.938 -70.379)" fill="#eaeaea"/>
                  <path id="Path_1160986" data-name="Path 1160986" d="M152.672,10.084V8.991A1.491,1.491,0,0,0,151.181,7.5H145.34a1.491,1.491,0,0,0-1.491,1.491v1.093a.61.61,0,0,1-.61.61h-2.431a1.464,1.464,0,0,0-1.464,1.464v3.361h17.833V12.159a1.464,1.464,0,0,0-1.464-1.464h-2.431A.61.61,0,0,1,152.672,10.084Z" transform="translate(-128.278 -7.5)" fill="#c2d0da"/>
                </g>
                <g id="Group_1220817" data-name="Group 1220817" transform="translate(7.712 12.222)">
                  <g id="Group_1220816" data-name="Group 1220816">
                    <path id="Path_1160987" data-name="Path 1160987" d="M109.694,123.4v-6.537a1.311,1.311,0,0,1,1.311-1.311h6.537a1.311,1.311,0,0,1,1.311,1.311V123.4a1.311,1.311,0,0,1-1.311,1.311h-6.537A1.311,1.311,0,0,1,109.694,123.4Z" transform="translate(-109.694 -115.548)" fill="#66b49d"/>
                    <path id="Path_1160988" data-name="Path 1160988" d="M109.694,243.8v-6.537a1.311,1.311,0,0,1,1.311-1.311h6.537a1.311,1.311,0,0,1,1.311,1.311V243.8a1.311,1.311,0,0,1-1.311,1.311h-6.537A1.311,1.311,0,0,1,109.694,243.8Z" transform="translate(-109.694 -222.335)" fill="#66b49d"/>
                    <path id="Path_1160989" data-name="Path 1160989" d="M109.694,364.209v-6.537a1.311,1.311,0,0,1,1.311-1.311h6.537a1.311,1.311,0,0,1,1.311,1.311v6.537a1.311,1.311,0,0,1-1.311,1.311h-6.537A1.311,1.311,0,0,1,109.694,364.209Z" transform="translate(-109.694 -329.121)" fill="#66b49d"/>
                  </g>
                </g>
              </g>
              <g id="Group_1220820" data-name="Group 1220820" transform="translate(21.887 13.181)">
                <g id="Group_1220819" data-name="Group 1220819" transform="translate(1.393)">
                  <path id="Path_1160990" data-name="Path 1160990" d="M269.271,177.75l-.833-1.1-3.117-1.974-1.2-.189-15.959,25.218a6.568,6.568,0,0,0-.836,1.975,5.14,5.14,0,0,1,4.556,2.885,6.567,6.567,0,0,0,1.428-1.6Z" transform="translate(-247.328 -168.782)" fill="#fc8086"/>
                  <path id="Path_1160991" data-name="Path 1160991" d="M416.653,125.229l-1.347-.853a2.249,2.249,0,0,0-3.1.7l-1.235,1.952.394.794,3.747,2.373,1.006.093,1.236-1.953A2.249,2.249,0,0,0,416.653,125.229Z" transform="translate(-392.457 -124.027)" fill="#8c9ba6"/>
                </g>
                <path id="Path_1160992" data-name="Path 1160992" d="M0,0H3.207V6.093H0Z" transform="matrix(0.535, -0.845, 0.845, 0.535, 18.19, 5.701)" fill="#c9e2e7"/>
                <path id="Path_1160993" data-name="Path 1160993" d="M240.96,417.78l-4.544,3.662a.862.862,0,0,1-1.379-.873l1.367-5.673A5.141,5.141,0,0,1,240.96,417.78Z" transform="translate(-235.011 -381.994)" fill="#7c8b96"/>
              </g>
            </g>
          </g>
          <g id="Group_1220825" data-name="Group 1220825" transform="translate(34.02 0)">
            <g id="Group_1220824" data-name="Group 1220824" transform="translate(0 0)">
              <g id="Group_1220823" data-name="Group 1220823">
                <path id="Path_1160994" data-name="Path 1160994" d="M131.65,135.5a.848.848,0,0,0-1.186.18l-1.679,2.281-.574-.789a.849.849,0,1,0-1.372,1l.991,1.36a1.184,1.184,0,0,0,.95.485h0a1.183,1.183,0,0,0,.95-.48l2.1-2.851A.849.849,0,0,0,131.65,135.5Z" transform="translate(-116.196 -120.03)"/>
                <path id="Path_1160995" data-name="Path 1160995" d="M131.65,258.531a.848.848,0,0,0-1.186.18l-1.679,2.281-.574-.789a.849.849,0,1,0-1.372,1l.991,1.361a1.183,1.183,0,0,0,.95.485h0a1.184,1.184,0,0,0,.95-.48l2.1-2.851A.849.849,0,0,0,131.65,258.531Z" transform="translate(-116.195 -229.141)"/>
                <path id="Path_1160996" data-name="Path 1160996" d="M131.65,376.315a.848.848,0,0,0-1.186.18l-1.679,2.281-.574-.789a.849.849,0,1,0-1.372,1l.991,1.361a1.183,1.183,0,0,0,.95.485h0a1.184,1.184,0,0,0,.95-.48l2.1-2.851A.849.849,0,0,0,131.65,376.315Z" transform="translate(-116.195 -333.602)"/>
                <path id="Path_1160997" data-name="Path 1160997" d="M221.374,134.564h10.487a.849.849,0,1,0,0-1.7H221.374a.849.849,0,1,0,0,1.7Z" transform="translate(-199.429 -117.838)"/>
                <path id="Path_1160998" data-name="Path 1160998" d="M221.374,165.905h5.244a.849.849,0,0,0,0-1.7h-5.244a.849.849,0,0,0,0,1.7Z" transform="translate(-199.429 -145.634)"/>
                <path id="Path_1160999" data-name="Path 1160999" d="M221.374,254.969h7.036a.849.849,0,1,0,0-1.7h-7.036a.849.849,0,1,0,0,1.7Z" transform="translate(-199.429 -224.624)"/>
                <path id="Path_1161000" data-name="Path 1161000" d="M226.617,286.311a.849.849,0,0,0,0-1.7h-5.244a.849.849,0,0,0,0,1.7Z" transform="translate(-199.429 -252.421)"/>
                <path id="Path_1161001" data-name="Path 1161001" d="M110.894,108.047h-6.537a2.163,2.163,0,0,0-2.16,2.16v6.537a2.163,2.163,0,0,0,2.16,2.16h6.537a2.163,2.163,0,0,0,2.16-2.16v-6.537A2.162,2.162,0,0,0,110.894,108.047Zm.463,8.7a.463.463,0,0,1-.463.463h-6.537a.463.463,0,0,1-.463-.463v-6.537a.463.463,0,0,1,.463-.463h6.537a.463.463,0,0,1,.463.463Z" transform="translate(-94.485 -95.826)"/>
                <path id="Path_1161002" data-name="Path 1161002" d="M110.894,228.453h-6.537a2.163,2.163,0,0,0-2.16,2.16v6.537a2.163,2.163,0,0,0,2.16,2.16h6.537a2.163,2.163,0,0,0,2.16-2.16v-6.537A2.162,2.162,0,0,0,110.894,228.453Zm.463,8.7a.463.463,0,0,1-.463.463h-6.537a.463.463,0,0,1-.463-.463v-6.537a.463.463,0,0,1,.463-.463h6.537a.463.463,0,0,1,.463.463Z" transform="translate(-94.485 -202.612)"/>
                <path id="Path_1161003" data-name="Path 1161003" d="M110.894,348.857h-6.537a2.163,2.163,0,0,0-2.16,2.16v6.537a2.163,2.163,0,0,0,2.16,2.16h6.537a2.163,2.163,0,0,0,2.16-2.16v-6.537A2.162,2.162,0,0,0,110.894,348.857Zm.463,8.7a.463.463,0,0,1-.463.463h-6.537a.463.463,0,0,1-.463-.463v-6.537a.463.463,0,0,1,.463-.463h6.537a.463.463,0,0,1,.463.463Z" transform="translate(-94.485 -309.397)"/>
                <path id="Path_1161004" data-name="Path 1161004" d="M82.8,14.514l-1.347-.853a3.1,3.1,0,0,0-4.275.961l-1.235,1.951-1.715,2.71-1.939,3.064V9.61A1.593,1.593,0,0,0,70.7,8.019h-6.08v-1.7h8.14A1.229,1.229,0,0,1,73.984,7.55V14.9a.849.849,0,1,0,1.7,0V7.55a2.929,2.929,0,0,0-2.925-2.925H64.44A2.316,2.316,0,0,0,62.3,3.194H60.111V2.34A2.342,2.342,0,0,0,57.771,0H51.93a2.342,2.342,0,0,0-2.34,2.34v.855H47.4a2.316,2.316,0,0,0-2.137,1.431H36.945A2.928,2.928,0,0,0,34.02,7.55V54.989a2.929,2.929,0,0,0,2.925,2.925H72.756a2.929,2.929,0,0,0,2.925-2.925V35.962a.849.849,0,1,0-1.7,0V54.988a1.229,1.229,0,0,1-1.228,1.228H36.945a1.229,1.229,0,0,1-1.228-1.228V7.55a1.229,1.229,0,0,1,1.228-1.228h8.14v1.7H39A1.593,1.593,0,0,0,37.414,9.61V52.929A1.593,1.593,0,0,0,39,54.519H70.7a1.593,1.593,0,0,0,1.591-1.591V36.915L80.808,23.45h0l1.714-2.709,1.236-1.953a3.1,3.1,0,0,0-.96-4.274Zm-3.311.4a1.39,1.39,0,0,1,1.057.183l1.347.853a1.4,1.4,0,0,1,.434,1.933l-.782,1.235-3.714-2.352.781-1.235a1.391,1.391,0,0,1,.877-.618ZM63.415,47.761a5.712,5.712,0,0,1-.537.717,5.965,5.965,0,0,0-.9-.966L77.788,22.543l1.133.717Zm-5.794,5.061a.114.114,0,0,0-.016-.006h0l1.2-4.979a4.272,4.272,0,0,1,2.8,1.774c-4.493,3.621-3.919,3.152-3.983,3.21ZM76.921,18.2l3.714,2.352-.807,1.275-3.714-2.352ZM46.783,5.526c0-.01,0-.021,0-.031s0-.007,0-.011a.616.616,0,0,1,.615-.593h2.431a1.46,1.46,0,0,0,1.458-1.458V2.34A.643.643,0,0,1,51.93,1.7h5.841a.643.643,0,0,1,.643.643V3.433a1.46,1.46,0,0,0,1.458,1.458H62.3a.616.616,0,0,1,.615.593s0,.007,0,.011,0,.021,0,.031V8.019H46.783Zm-7.671,4.19H70.59V25.029L61.709,39.063a.849.849,0,1,0,1.434.908L75.206,20.908l1.147.727L60.542,46.6a5.959,5.959,0,0,0-1.258-.4,5.738,5.738,0,0,1,.418-.792l1.319-2.084a.849.849,0,1,0-1.434-.908L58.268,44.5a7.4,7.4,0,0,0-.944,2.23h0L55.956,52.4a1.761,1.761,0,0,0-.049.418h-16.8ZM70.59,52.822H60.325l2.912-2.347a7.4,7.4,0,0,0,1.612-1.807L70.59,39.6Z" transform="translate(-34.02 0)"/>
              </g>
            </g>
          </g>
        </g>
      </g>
    </g>
  </g>
</svg>
