<svg xmlns="http://www.w3.org/2000/svg" xmlns:xlink="http://www.w3.org/1999/xlink" width="103" height="103" viewBox="0 0 103 103">
  <defs>
    <filter id="Path_978624" x="0" y="0" width="103" height="103" filterUnits="userSpaceOnUse">
      <feOffset dy="3" input="SourceAlpha"/>
      <feGaussianBlur stdDeviation="3" result="blur"/>
      <feFlood flood-opacity="0.161"/>
      <feComposite operator="in" in2="blur"/>
      <feComposite in="SourceGraphic"/>
    </filter>
  </defs>
  <g id="Group_1220913" data-name="Group 1220913" transform="translate(-156 -1074.061)">
    <g id="Group_1220829" data-name="Group 1220829" transform="translate(0 19)">
      <g id="Group_1220602" data-name="Group 1220602" transform="translate(165 1054.061)">
        <g id="Group_1214503" data-name="Group 1214503" transform="translate(0 7)">
          <g id="Group_1211421" data-name="Group 1211421">
            <g id="Group_1208651" data-name="Group 1208651">
              <g id="Group_1178144" data-name="Group 1178144">
                <g id="Group_1177896" data-name="Group 1177896">
                  <g id="Group_1176881" data-name="Group 1176881">
                    <g id="Group_1175148" data-name="Group 1175148">
                      <g id="Group_1173798" data-name="Group 1173798">
                        <g id="Group_1171925" data-name="Group 1171925">
                          <g id="Group_1164524" data-name="Group 1164524">
                            <g id="Group_1144123" data-name="Group 1144123">
                              <g transform="matrix(1, 0, 0, 1, -9, -6)" filter="url(#Path_978624)">
                                <g id="Path_978624-2" data-name="Path 978624" transform="translate(9 6)" fill="#f5f7fb">
                                  <path d="M 42.5 83.5 C 36.96437835693359 83.5 31.59512901306152 82.41617584228516 26.54141235351562 80.27863311767578 C 21.65934181213379 78.21369171142578 17.27447128295898 75.25723266601562 13.50862312316895 71.49137878417969 C 9.742764472961426 67.72553253173828 6.786305904388428 63.34066009521484 4.721364498138428 58.45858764648438 C 2.583823442459106 53.40486907958984 1.5 48.03562164306641 1.5 42.5 C 1.5 36.96437835693359 2.583823442459106 31.59512901306152 4.721364498138428 26.54141235351562 C 6.786305904388428 21.65934181213379 9.742764472961426 17.27447128295898 13.50862312316895 13.50862312316895 C 17.27447128295898 9.742764472961426 21.65934181213379 6.786305904388428 26.54141235351562 4.721364498138428 C 31.59512901306152 2.583823442459106 36.96437835693359 1.5 42.5 1.5 C 48.03562164306641 1.5 53.40486907958984 2.583823442459106 58.45858764648438 4.721364498138428 C 63.34066009521484 6.786305904388428 67.72553253173828 9.742764472961426 71.49137878417969 13.50862312316895 C 75.25723266601562 17.27447128295898 78.21369171142578 21.65934181213379 80.27863311767578 26.54141235351562 C 82.41617584228516 31.59512901306152 83.5 36.96437835693359 83.5 42.5 C 83.5 48.03562164306641 82.41617584228516 53.40486907958984 80.27863311767578 58.45858764648438 C 78.21369171142578 63.34066009521484 75.25723266601562 67.72553253173828 71.49137878417969 71.49137878417969 C 67.72553253173828 75.25723266601562 63.34066009521484 78.21369171142578 58.45858764648438 80.27863311767578 C 53.40486907958984 82.41617584228516 48.03562164306641 83.5 42.5 83.5 Z" stroke="none"/>
                                  <path d="M 42.5 3 C 37.16621398925781 3 31.99356079101562 4.043960571289062 27.125732421875 6.102882385253906 C 22.42246627807617 8.092185974121094 18.19785308837891 10.94070434570312 14.56928253173828 14.56928253173828 C 10.94070434570312 18.19785308837891 8.092185974121094 22.42246627807617 6.102882385253906 27.125732421875 C 4.043960571289062 31.99356079101562 3 37.16621398925781 3 42.5 C 3 47.83378601074219 4.043960571289062 53.00643920898438 6.102882385253906 57.87425231933594 C 8.092185974121094 62.57753372192383 10.94070434570312 66.80213165283203 14.56928253173828 70.43071746826172 C 18.19786834716797 74.05929565429688 22.42246627807617 76.90781402587891 27.125732421875 78.89711761474609 C 31.99356079101562 80.95603942871094 37.16621398925781 82 42.5 82 C 47.83378601074219 82 53.00642395019531 80.95603942871094 57.87425231933594 78.89711761474609 C 62.57753372192383 76.90781402587891 66.80213165283203 74.05929565429688 70.43071746826172 70.43071746826172 C 74.05929565429688 66.80213165283203 76.90781402587891 62.57753372192383 78.89711761474609 57.87425231933594 C 80.95603942871094 53.00642395019531 82 47.83378601074219 82 42.5 C 82 37.16621398925781 80.95603942871094 31.99356079101562 78.89711761474609 27.125732421875 C 76.90781402587891 22.42246627807617 74.05929565429688 18.19786834716797 70.43071746826172 14.56928253173828 C 66.80213165283203 10.94070434570312 62.57753372192383 8.092185974121094 57.87425231933594 6.102882385253906 C 53.00643920898438 4.043960571289062 47.83378601074219 3 42.5 3 M 42.5 0 C 65.97209167480469 0 85 19.02789306640625 85 42.5 C 85 65.97209167480469 65.97209167480469 85 42.5 85 C 19.02789306640625 85 0 65.97209167480469 0 42.5 C 0 19.02789306640625 19.02789306640625 0 42.5 0 Z" stroke="none" fill="#586577"/>
                                </g>
                              </g>
                            </g>
                          </g>
                        </g>
                      </g>
                    </g>
                  </g>
                </g>
              </g>
            </g>
          </g>
        </g>
      </g>
      <g id="training_943398" transform="translate(179.544 1073.605)">
        <path id="Path_1161005" data-name="Path 1161005" d="M32,179.465V152.11a4.094,4.094,0,0,1,4.094-4.094H76.826a4.1,4.1,0,0,1,4.095,4.094v27.354" transform="translate(-28.503 -131.853)" fill="#c9f3ff"/>
        <g id="Group_1220827" data-name="Group 1220827" transform="translate(1.092 16.163)">
          <path id="Path_1161006" data-name="Path 1161006" d="M196.346,148.016H180.87a2.87,2.87,0,0,0-2.87,2.87h0v19.657h0a2.87,2.87,0,0,1,2.87-2.87h15.476Z" transform="translate(-159.654 -148.016)" fill="#fff"/>
          <path id="Path_1161007" data-name="Path 1161007" d="M10,148.016H25.476a2.87,2.87,0,0,1,2.87,2.87h0v19.657h0a2.87,2.87,0,0,0-2.87-2.87H10Z" transform="translate(-10 -148.016)" fill="#fff"/>
        </g>
        <rect id="Rectangle_421110" data-name="Rectangle 421110" width="36.692" height="4.26" transform="translate(1.092 35.819)" fill="#ffb954"/>
        <path id="Path_1161008" data-name="Path 1161008" d="M44.305,436H63.728v1.966a5.242,5.242,0,0,1-5.242,5.242H15.242A5.242,5.242,0,0,1,10,437.966V436H44.305Z" transform="translate(-8.908 -388.388)" fill="#d8d8e4"/>
        <g id="Group_1220828" data-name="Group 1220828" transform="translate(25.129 20.431)">
          <path id="Path_1161009" data-name="Path 1161009" d="M284.873,187.1v5.691a9.379,9.379,0,0,1-9.379,9.379h0a9.379,9.379,0,0,1-9.379-9.379V187.1Z" transform="translate(-262.184 -187.096)" fill="#ffcdac"/>
          <path id="Path_1161010" data-name="Path 1161010" d="M232.662,197.948h1.384v-5.094h-1.384a2.547,2.547,0,0,0-2.547,2.547h0A2.547,2.547,0,0,0,232.662,197.948Z" transform="translate(-230.115 -192.225)" fill="#ffcdac"/>
          <path id="Path_1161011" data-name="Path 1161011" d="M439.27,192.854h-1.384v5.094h1.384a2.547,2.547,0,0,0,2.547-2.547h0A2.547,2.547,0,0,0,439.27,192.854Z" transform="translate(-415.197 -192.225)" fill="#ffcdac"/>
        </g>
        <path id="Path_1161012" data-name="Path 1161012" d="M284.873,115.438v7.21l-9.379,4.126-9.379-4.126v-7.21Z" transform="translate(-237.054 -102.832)" fill="#5a54e0"/>
        <path id="Path_1161013" data-name="Path 1161013" d="M234.761,17.906,218.38,25.811,202,17.906,218.38,10Z" transform="translate(-179.941 -8.908)" fill="#7d9bff"/>
        <path id="Path_1161014" data-name="Path 1161014" d="M230.082,459h-4.823a1.092,1.092,0,0,0,0,2.184h4.823a1.092,1.092,0,0,0,0-2.184Z" transform="translate(-199.687 -408.876)"/>
        <path id="Path_1161015" data-name="Path 1161015" d="M343.865,74.254a1.091,1.091,0,1,0-.772.32A1.1,1.1,0,0,0,343.865,74.254Z" transform="translate(-304.653 -64.485)"/>
        <path id="Path_1161016" data-name="Path 1161016" d="M55.311,8.023l-.016-.009L38.914.108a1.092,1.092,0,0,0-.949,0L21.584,8.014a1.092,1.092,0,0,0,0,1.967l6.384,3.081v6.754a1.09,1.09,0,0,0,.011.152h-.3a3.639,3.639,0,0,0,0,7.278h.353a10.478,10.478,0,0,0,4.453,7.482H22.309a3.939,3.939,0,0,0-1.778.422V19.033a1.78,1.78,0,0,1,1.778-1.778h2.821a1.092,1.092,0,1,0,0-2.184H22.309a3.95,3.95,0,0,0-2.87,1.235,3.95,3.95,0,0,0-2.87-1.235H1.092A1.092,1.092,0,0,0,0,16.163V40.08a1.092,1.092,0,0,0,1.092,1.092H2.4V46.52H1.092A1.092,1.092,0,0,0,0,47.612v1.966a6.341,6.341,0,0,0,6.334,6.334H49.578a6.341,6.341,0,0,0,6.334-6.334V47.612A1.092,1.092,0,0,0,54.82,46.52H53.509V30.467a1.092,1.092,0,1,0-2.184,0V46.52H4.586V41.172h33.2a1.092,1.092,0,0,0,1.092-1.092v-3.5a10.487,10.487,0,0,0,9.974-9.338H49.2a3.639,3.639,0,0,0,0-7.278h-.3a1.089,1.089,0,0,0,.011-.152V13.062l4.818-2.325v4.987a1.092,1.092,0,0,0,2.184,0V9A1.091,1.091,0,0,0,55.311,8.023ZM53.728,49.578a4.154,4.154,0,0,1-4.15,4.15H6.334a4.154,4.154,0,0,1-4.15-4.15V48.7H53.728ZM38.44,2.3l11.605,5.6H41.511a1.092,1.092,0,0,0,0,2.184h8.534L38.44,15.69,24.572,9Zm-12.218,21.3a1.457,1.457,0,0,1,1.455-1.455h.292v2.91h-.292A1.457,1.457,0,0,1,26.221,23.607ZM2.184,17.255H16.568a1.78,1.78,0,0,1,1.778,1.778V35.15a3.938,3.938,0,0,0-1.778-.422H2.184Zm0,19.657H16.568a1.78,1.78,0,0,1,1.778,1.778,1.091,1.091,0,0,0,.042.3H2.184Zm18.3,2.076a1.088,1.088,0,0,0,.042-.3,1.78,1.78,0,0,1,1.778-1.778H36.692v2.076h-16.2ZM38.44,34.409a8.3,8.3,0,0,1-8.287-8.287V21.49L38,24.942a1.092,1.092,0,0,0,.88,0l7.847-3.452v4.632A8.3,8.3,0,0,1,38.44,34.409Zm12.218-10.8A1.457,1.457,0,0,1,49.2,25.062h-.292v-2.91H49.2A1.457,1.457,0,0,1,50.658,23.607Zm-3.931-4.5L38.44,22.75,30.153,19.1V14.116l7.812,3.77a1.092,1.092,0,0,0,.949,0l7.812-3.77V19.1Z" transform="translate(0 0)"/>
        <path id="Path_1161017" data-name="Path 1161017" d="M493.092,178.59a1.093,1.093,0,1,0,.772.32A1.1,1.1,0,0,0,493.092,178.59Z" transform="translate(-438.272 -159.088)"/>
        <path id="Path_1161018" data-name="Path 1161018" d="M117.9,252a1.092,1.092,0,1,0,.772.32A1.1,1.1,0,0,0,117.9,252Z" transform="translate(-104.054 -224.482)"/>
        <path id="Path_1161019" data-name="Path 1161019" d="M51.587,252.018H48.092a1.092,1.092,0,1,0,0,2.184h3.495a1.092,1.092,0,1,0,0-2.184Z" transform="translate(-41.867 -224.497)"/>
        <path id="Path_1161020" data-name="Path 1161020" d="M48.092,206.2h7.623a1.092,1.092,0,1,0,0-2.184H48.092a1.092,1.092,0,1,0,0,2.184Z" transform="translate(-41.867 -181.734)"/>
      </g>
    </g>
  </g>
</svg>
