<svg xmlns="http://www.w3.org/2000/svg" xmlns:xlink="http://www.w3.org/1999/xlink" width="108" height="108" viewBox="0 0 108 108">
  <defs>
    <filter id="Fondo" x="0" y="0" width="108" height="108" filterUnits="userSpaceOnUse">
      <feOffset dy="3" input="SourceAlpha"/>
      <feGaussianBlur stdDeviation="3" result="blur"/>
      <feFlood flood-opacity="0.161"/>
      <feComposite operator="in" in2="blur"/>
      <feComposite in="SourceGraphic"/>
    </filter>
  </defs>
  <g id="Group_1225042" data-name="Group 1225042" transform="translate(-618.421 -458)">
    <g id="Group_1224820" data-name="Group 1224820">
      <g id="Group_1224330" data-name="Group 1224330" transform="translate(0 -1085)">
        <g id="Group_1221210" data-name="Group 1221210" transform="translate(0 960)">
          <g id="Group_1220768" data-name="Group 1220768" transform="translate(5.32 126)">
            <g id="Group_1220472" data-name="Group 1220472" transform="translate(-1 162)">
              <g id="Group_1210004" data-name="Group 1210004" transform="translate(623.101 301)">
                <g id="Group_1143757" data-name="Group 1143757" transform="translate(0)">
                  <g transform="matrix(1, 0, 0, 1, -9, -6)" filter="url(#Fondo)">
                    <g id="Fondo-2" data-name="Fondo" transform="translate(9 6)" fill="#e8fcf6">
                      <path d="M 44.99994277954102 88.49989318847656 C 39.1268310546875 88.49989318847656 33.43019104003906 87.34996795654297 28.06826782226562 85.08206939697266 C 22.88850593566895 82.89120483398438 18.23629188537598 79.75449371337891 14.24084281921387 75.75904083251953 C 10.24540519714355 71.76360321044922 7.108680248260498 67.11138153076172 4.917830467224121 61.93161773681641 C 2.649930238723755 56.56969451904297 1.50000524520874 50.87305450439453 1.50000524520874 44.99994277954102 C 1.50000524520874 39.1268310546875 2.649930238723755 33.43019104003906 4.917830467224121 28.06826782226562 C 7.108680248260498 22.88850593566895 10.24540519714355 18.23629188537598 14.24084281921387 14.24084281921387 C 18.23629188537598 10.24540519714355 22.88850593566895 7.108680248260498 28.06826782226562 4.917830467224121 C 33.43019104003906 2.649930238723755 39.1268310546875 1.50000524520874 44.99994277954102 1.50000524520874 C 50.87305450439453 1.50000524520874 56.56969451904297 2.649930238723755 61.93161773681641 4.917830467224121 C 67.11138153076172 7.108680248260498 71.76360321044922 10.24540519714355 75.75904083251953 14.24084281921387 C 79.75449371337891 18.23629188537598 82.89120483398438 22.88850593566895 85.08206939697266 28.06826782226562 C 87.34996795654297 33.43019104003906 88.49989318847656 39.1268310546875 88.49989318847656 44.99994277954102 C 88.49989318847656 50.87305450439453 87.34996795654297 56.56969451904297 85.08206939697266 61.93161773681641 C 82.89120483398438 67.11138153076172 79.75449371337891 71.76360321044922 75.75904083251953 75.75904083251953 C 71.76360321044922 79.75449371337891 67.11138153076172 82.89120483398438 61.93161773681641 85.08206939697266 C 56.56969451904297 87.34996795654297 50.87305450439453 88.49989318847656 44.99994277954102 88.49989318847656 Z" stroke="none"/>
                      <path d="M 44.99994277954102 3 C 39.32865524291992 3 33.82861328125 4.110054016113281 28.65258407592773 6.299331665039062 C 23.65162658691406 8.414558410644531 19.15966796875 11.44332885742188 15.30149841308594 15.30149841308594 C 11.44332885742188 19.15966796875 8.414558410644531 23.65162658691406 6.299331665039062 28.65258407592773 C 4.110054016113281 33.82861328125 3 39.32865524291992 3 44.99994277954102 C 3 50.67121505737305 4.110054016113281 56.17125701904297 6.299331665039062 61.34728622436523 C 8.414558410644531 66.34825897216797 11.44332885742188 70.8402099609375 15.30149841308594 74.69838714599609 C 19.15966796875 78.55655670166016 23.65162658691406 81.5853271484375 28.65258407592773 83.70055389404297 C 33.82861328125 85.88983154296875 39.32867050170898 86.99988555908203 44.99994277954102 86.99988555908203 C 50.67121505737305 86.99988555908203 56.17125701904297 85.88983154296875 61.34728622436523 83.70055389404297 C 66.34825897216797 81.5853271484375 70.8402099609375 78.55655670166016 74.69838714599609 74.69838714599609 C 78.55655670166016 70.8402099609375 81.5853271484375 66.34825897216797 83.70055389404297 61.34728622436523 C 85.88983154296875 56.17125701904297 86.99988555908203 50.67121505737305 86.99988555908203 44.99994277954102 C 86.99988555908203 39.32867050170898 85.88983154296875 33.82861328125 83.70055389404297 28.65258407592773 C 81.5853271484375 23.65162658691406 78.55655670166016 19.15966796875 74.69838714599609 15.30149841308594 C 70.8402099609375 11.44332885742188 66.34825897216797 8.414558410644531 61.34728622436523 6.299331665039062 C 56.17125701904297 4.110054016113281 50.67121505737305 3 44.99994277954102 3 M 44.99994277954102 0 C 69.85271453857422 0 89.99988555908203 20.14715576171875 89.99988555908203 44.99994277954102 C 89.99988555908203 69.85271453857422 69.85271453857422 89.99988555908203 44.99994277954102 89.99988555908203 C 20.14715576171875 89.99988555908203 0 69.85271453857422 0 44.99994277954102 C 0 20.14715576171875 20.14715576171875 0 44.99994277954102 0 Z" stroke="none" fill="#157d60"/>
                    </g>
                  </g>
                </g>
              </g>
            </g>
          </g>
        </g>
      </g>
      <g id="aprender-en-linea_2_" data-name="aprender-en-linea (2)" transform="translate(643.614 446.357)">
        <path id="Path_1177213" data-name="Path 1177213" d="M61.849,423.126H9.075A1.575,1.575,0,0,1,7.5,421.551v-2.476A1.575,1.575,0,0,1,9.075,417.5H61.849a1.575,1.575,0,0,1,1.575,1.575v2.476A1.575,1.575,0,0,1,61.849,423.126Z" transform="translate(-6.656 -337.684)" fill="#a9dbf5"/>
        <path id="Path_1177214" data-name="Path 1177214" d="M463.876,417.5H460.5a1.575,1.575,0,0,1,1.575,1.575v2.476a1.575,1.575,0,0,1-1.575,1.575h3.376a1.575,1.575,0,0,0,1.575-1.575v-2.476A1.575,1.575,0,0,0,463.876,417.5Z" transform="translate(-408.682 -337.684)" fill="#88c3e0"/>
        <path id="Path_1177215" data-name="Path 1177215" d="M87.135,151.256H43.251a2.25,2.25,0,0,1-2.25-2.25V119.752a2.25,2.25,0,0,1,2.25-2.25H87.134a2.25,2.25,0,0,1,2.25,2.25v29.255A2.25,2.25,0,0,1,87.135,151.256Z" transform="translate(-36.386 -71.442)" fill="#4380a0"/>
        <path id="Path_1177216" data-name="Path 1177216" d="M426.626,149.006a2.251,2.251,0,0,1-2.251,2.251H421a2.251,2.251,0,0,0,2.25-2.251V119.75A2.25,2.25,0,0,0,421,117.5h3.37a2.25,2.25,0,0,1,2.25,2.251Z" transform="translate(-373.627 -71.442)" fill="#3b7191"/>
        <path id="Path_1177217" data-name="Path 1177217" d="M112.634,174.5H71v-27h41.633Z" transform="translate(-63.011 -98.066)" fill="#bbf7ff"/>
        <path id="Path_1177218" data-name="Path 1177218" d="M410.995,147.5h3.376v27h-3.376Z" transform="translate(-364.748 -98.066)" fill="#8bf0ff"/>
        <path id="Path_1177219" data-name="Path 1177219" d="M125.541,116.084H109.63a.63.63,0,0,1-.63-.63V95.867a.63.63,0,0,1,.63-.63h15.911Z" transform="translate(-96.735 -51.684)" fill="#f75632"/>
        <path id="Path_1177220" data-name="Path 1177220" d="M271.911,116.084H256V95.237h15.911a.63.63,0,0,1,.63.63v19.586A.63.63,0,0,1,271.911,116.084Z" transform="translate(-227.194 -51.684)" fill="#e33629"/>
        <path id="Path_1177221" data-name="Path 1177221" d="M148.183,71.056l-13.246-4.581a.63.63,0,0,1-.424-.6V45.131a.631.631,0,0,1,.837-.6l12.834,4.438Z" transform="translate(-119.377 -6.656)" fill="#f3f3f3"/>
        <path id="Path_1177222" data-name="Path 1177222" d="M256,71.056l13.246-4.581a.63.63,0,0,0,.424-.6V45.131a.63.63,0,0,0-.837-.6L256,48.973Z" transform="translate(-227.194 -6.656)" fill="#e4e4e4"/>
        <path id="Path_1177223" data-name="Path 1177223" d="M221.413,420.2h-7.15A1.264,1.264,0,0,1,213,418.937V417.5h9.677v1.437A1.264,1.264,0,0,1,221.413,420.2Z" transform="translate(-189.032 -337.684)" fill="#88c3e0"/>
        <g id="Group_1224819" data-name="Group 1224819" transform="translate(0 37)">
          <path id="Path_1177224" data-name="Path 1177224" d="M55.193,78.971H53.5a3.075,3.075,0,0,0,.34-1.408V48.308a3.1,3.1,0,0,0-3.094-3.094H46.191V44.183a1.476,1.476,0,0,0-1.474-1.474h-1.4V38.474a1.474,1.474,0,0,0-1.956-1.393L38.706,38a.844.844,0,1,0,.552,1.6l2.375-.821v20.3L29.65,63.215v-20.3l6.2-2.146a.844.844,0,1,0-.552-1.6l-6.5,2.247L16.248,37.081a1.474,1.474,0,0,0-1.956,1.393v4.235H12.9a1.476,1.476,0,0,0-1.474,1.474v1.032H6.864A3.1,3.1,0,0,0,3.77,48.309v3a.844.844,0,1,0,1.688,0v-3A1.408,1.408,0,0,1,6.864,46.9h4.557V48.59H7.989a.844.844,0,0,0-.844.844V76.44a.844.844,0,0,0,.844.844H49.623a.844.844,0,0,0,.844-.844V49.433a.844.844,0,0,0-.844-.844H46.191V46.9h4.556a1.408,1.408,0,0,1,1.407,1.407V77.564a1.408,1.408,0,0,1-1.407,1.407H6.865a1.408,1.408,0,0,1-1.407-1.407V54.922a.844.844,0,1,0-1.688,0V77.565a3.073,3.073,0,0,0,.34,1.407H2.419A2.422,2.422,0,0,0,0,81.391v2.476a2.422,2.422,0,0,0,2.419,2.419H35.972a.844.844,0,1,0,0-1.688H2.419a.732.732,0,0,1-.731-.731V81.391a.732.732,0,0,1,.731-.731h20.7v.593a2.11,2.11,0,0,0,2.108,2.108h7.15a2.11,2.11,0,0,0,2.108-2.108v-.593h20.7a.732.732,0,0,1,.731.731v2.476a.732.732,0,0,1-.731.731H39.657a.844.844,0,1,0,0,1.688H55.193a2.422,2.422,0,0,0,2.419-2.419V81.391a2.422,2.422,0,0,0-2.419-2.419ZM42.328,60.616a1.475,1.475,0,0,0,.992-1.393V44.4H44.5V63.555H33.829ZM15.98,38.774l11.982,4.144v20.3L15.98,59.071ZM13.109,44.4h1.183V59.223a1.475,1.475,0,0,0,.992,1.393l8.5,2.939H13.109Zm35.669,5.881V75.595H8.834V50.278h2.588V63.769A1.476,1.476,0,0,0,12.9,65.243H44.717a1.476,1.476,0,0,0,1.474-1.474V50.277ZM32.8,81.252a.42.42,0,0,1-.42.42h-7.15a.42.42,0,0,1-.42-.42v-.593H32.8Z" transform="translate(0 -37)"/>
          <path id="Path_1177225" data-name="Path 1177225" d="M173,309.387h-22.17a.844.844,0,1,0,0,1.688H173a.844.844,0,0,0,0-1.688Z" transform="translate(-133.112 -278.737)"/>
          <path id="Path_1177226" data-name="Path 1177226" d="M165.211,341.2H150.833a.844.844,0,1,0,0,1.688h14.378a.844.844,0,0,0,0-1.688Z" transform="translate(-133.112 -306.972)"/>
        </g>
      </g>
    </g>
  </g>
</svg>
