<svg xmlns="http://www.w3.org/2000/svg" xmlns:xlink="http://www.w3.org/1999/xlink" width="108" height="108" viewBox="0 0 108 108">
  <defs>
    <filter id="Fondo" x="0" y="0" width="108" height="108" filterUnits="userSpaceOnUse">
      <feOffset dy="3" input="SourceAlpha"/>
      <feGaussianBlur stdDeviation="3" result="blur"/>
      <feFlood flood-opacity="0.161"/>
      <feComposite operator="in" in2="blur"/>
      <feComposite in="SourceGraphic"/>
    </filter>
  </defs>
  <g id="Group_1225036" data-name="Group 1225036" transform="translate(-201.421 -836)">
    <g id="Group_1224818" data-name="Group 1224818">
      <g id="Group_1224326" data-name="Group 1224326" transform="translate(210.421 842)">
        <g id="Group_1221210" data-name="Group 1221210" transform="translate(0 0)">
          <g id="Group_1220768" data-name="Group 1220768">
            <g id="Group_1220472" data-name="Group 1220472">
              <g id="Group_1210004" data-name="Group 1210004">
                <g id="Group_1143757" data-name="Group 1143757" transform="translate(0)">
                  <g transform="matrix(1, 0, 0, 1, -9, -6)" filter="url(#Fondo)">
                    <g id="Fondo-2" data-name="Fondo" transform="translate(9 6)" fill="#f8ecfd">
                      <path d="M 44.99995422363281 88.49989318847656 C 39.1268424987793 88.49989318847656 33.43019104003906 87.34996795654297 28.06826591491699 85.08206939697266 C 22.88850402832031 82.89122009277344 18.23629188537598 79.75449371337891 14.24084186553955 75.75905609130859 C 10.24540424346924 71.76361083984375 7.108679294586182 67.11139678955078 4.917829036712646 61.93163299560547 C 2.649929285049438 56.56970977783203 1.500004172325134 50.8730583190918 1.500004172325134 44.99994659423828 C 1.500004172325134 39.12683486938477 2.649929285049438 33.43018341064453 4.917829036712646 28.06825828552246 C 7.108679294586182 22.88849639892578 10.24540424346924 18.23628425598145 14.24084186553955 14.24083423614502 C 18.23629188537598 10.24539661407471 22.88850402832031 7.10867166519165 28.06826591491699 4.917821407318115 C 33.43019104003906 2.649921655654907 39.1268424987793 1.499996542930603 44.99995422363281 1.499996542930603 C 50.87306594848633 1.499996542930603 56.56971740722656 2.649921655654907 61.931640625 4.917821407318115 C 67.11140441894531 7.10867166519165 71.76361846923828 10.24539661407471 75.75906372070312 14.24083423614502 C 79.75450134277344 18.23628425598145 82.89122772216797 22.88849639892578 85.08207702636719 28.06825828552246 C 87.3499755859375 33.43018341064453 88.49990081787109 39.12683486938477 88.49990081787109 44.99994659423828 C 88.49990081787109 50.8730583190918 87.3499755859375 56.56970977783203 85.08207702636719 61.93163299560547 C 82.89122772216797 67.11139678955078 79.75450134277344 71.76361083984375 75.75906372070312 75.75905609130859 C 71.76361846923828 79.75449371337891 67.11140441894531 82.89122009277344 61.931640625 85.08206939697266 C 56.56971740722656 87.34996795654297 50.87306594848633 88.49989318847656 44.99995422363281 88.49989318847656 Z" stroke="none"/>
                      <path d="M 44.99995422363281 3 C 39.32866668701172 3 33.8286247253418 4.110061645507812 28.65259552001953 6.299331665039062 C 23.65164184570312 8.414558410644531 19.15968322753906 11.44332885742188 15.301513671875 15.30150604248047 C 11.44333648681641 19.15967559814453 8.414566040039062 23.65163421630859 6.299339294433594 28.652587890625 C 4.110069274902344 33.82861709594727 3.000007629394531 39.32865905761719 3.000007629394531 44.99994659423828 C 3.000007629394531 50.67123413085938 4.110069274902344 56.1712760925293 6.299339294433594 61.34730529785156 C 8.414566040039062 66.34825897216797 11.44333648681641 70.84021759033203 15.301513671875 74.69838714599609 C 19.15968322753906 78.55656433105469 23.65164184570312 81.58533477783203 28.65259552001953 83.7005615234375 C 33.8286247253418 85.88983154296875 39.32866668701172 86.99989318847656 44.99995422363281 86.99989318847656 C 50.67124176025391 86.99989318847656 56.17128372192383 85.88983154296875 61.34731292724609 83.7005615234375 C 66.3482666015625 81.58533477783203 70.84022521972656 78.55656433105469 74.69839477539062 74.69838714599609 C 78.55656433105469 70.84021759033203 81.58534240722656 66.34825897216797 83.70056915283203 61.34730529785156 C 85.88983917236328 56.1712760925293 86.99989318847656 50.67123413085938 86.99989318847656 44.99994659423828 C 86.99989318847656 39.32865905761719 85.88983917236328 33.82861709594727 83.70056915283203 28.652587890625 C 81.58534240722656 23.65163421630859 78.55656433105469 19.15967559814453 74.69839477539062 15.30150604248047 C 70.84022521972656 11.44332885742188 66.3482666015625 8.414558410644531 61.34731292724609 6.299331665039062 C 56.17128372192383 4.110061645507812 50.67124176025391 3 44.99995422363281 3 M 44.99995422363281 0 C 69.85273742675781 0 89.99990081787109 20.14716339111328 89.99990081787109 44.99994659423828 C 89.99990081787109 69.85272979736328 69.85273742675781 89.99989318847656 44.99995422363281 89.99989318847656 C 20.14717102050781 89.99989318847656 7.62939453125e-06 69.85272979736328 7.62939453125e-06 44.99994659423828 C 7.62939453125e-06 20.14716339111328 20.14717102050781 0 44.99995422363281 0 Z" stroke="none" fill="#c252f0"/>
                    </g>
                  </g>
                </g>
              </g>
            </g>
          </g>
        </g>
      </g>
      <g id="vr" transform="translate(223.879 814.605)">
        <path id="Path_1177200" data-name="Path 1177200" d="M185.773,318.125H162.81v7.654c0,3.171,5.14,5.741,11.482,5.741s11.482-2.57,11.482-5.741v-7.654Z" transform="translate(-142.75 -238.076)" fill="#00366d"/>
        <path id="Path_1177201" data-name="Path 1177201" d="M68.735,67.489c0,2.054-.025,5.914-1.914,7.654-1.126,1.037-3.58.087-5.249.957-5.616-2.925-14.039-4.784-23.454-4.784S20.279,73.175,14.662,76.1c-1.669-.87-4.123.08-5.249-.957C7.525,73.4,7.5,69.544,7.5,67.489c0-7.4,13.707-13.4,30.618-13.4S68.735,60.091,68.735,67.489Z" transform="translate(-6.576 -6.576)" fill="#80d261"/>
        <path id="Path_1177202" data-name="Path 1177202" d="M422.793,162.814v17.222c0,3.879-3.769,7.373-9.793,9.82a1.231,1.231,0,0,1-1.689-1.144V174.134a1.228,1.228,0,0,1,.791-1.15C416.919,171.165,422.793,167.766,422.793,162.814Z" transform="translate(-360.633 -101.901)" fill="#68ca44"/>
        <path id="Path_1177203" data-name="Path 1177203" d="M18.981,174.133v14.578a1.231,1.231,0,0,1-1.689,1.144c-6.023-2.446-9.792-5.94-9.792-9.819V162.814c0,4.952,5.876,8.354,10.689,10.169a1.228,1.228,0,0,1,.792,1.151Z" transform="translate(-6.576 -101.901)" fill="#68ca44"/>
        <path id="Path_1177204" data-name="Path 1177204" d="M146.354,225.139l-13.982,8.739a1.327,1.327,0,0,0,0,2.25l13.982,8.739a1.327,1.327,0,0,0,1.406,0l13.982-8.739a1.327,1.327,0,0,0,0-2.25l-13.982-8.739A1.327,1.327,0,0,0,146.354,225.139Z" transform="translate(-115.515 -156.37)" fill="#0055a3"/>
        <path id="Path_1177205" data-name="Path 1177205" d="M248.938,233.878l-13.982-8.739a1.327,1.327,0,0,0-1.406,0l-1.17.731,7.579,4.737a4.312,4.312,0,0,1,0,7.314L231.2,243.4l2.352,1.47a1.327,1.327,0,0,0,1.406,0l13.982-8.739A1.327,1.327,0,0,0,248.938,233.878Z" transform="translate(-202.711 -156.37)" fill="#004281"/>
        <path id="Path_1177206" data-name="Path 1177206" d="M53.562,50.595c-5.9-2.58-13.717-4-22.02-4a63.328,63.328,0,0,0-16.513,2.078.924.924,0,1,0,.49,1.782,61.461,61.461,0,0,1,16.024-2.012c8.054,0,15.611,1.366,21.279,3.846,5.347,2.339,8.414,5.483,8.414,8.626,0,3.356-3.234,5.907-6.265,7.561-5.948-2.964-14.447-4.658-23.428-4.658S14.06,65.51,8.111,68.475c-3.03-1.652-6.263-4.2-6.263-7.562,0-3.433,3.553-6.777,9.747-9.174a.924.924,0,1,0-.667-1.723,23.831,23.831,0,0,0-7.85,4.632A8.64,8.64,0,0,0,0,60.913V78.136C0,82.3,3.682,86.1,10.368,88.811a2.155,2.155,0,0,0,2.961-2V72.233a2.162,2.162,0,0,0-1.39-2.015c-.481-.181-1.063-.414-1.7-.7,5.61-2.463,13.241-3.856,21.3-3.856s15.694,1.393,21.3,3.855c-.639.284-1.221.517-1.7.7a2.163,2.163,0,0,0-1.389,2.015v3.309a.924.924,0,0,0,1.848,0V72.233a.3.3,0,0,1,.194-.286c3.34-1.261,7.214-3.273,9.44-6.084V78.136c0,3.318-3.359,6.585-9.217,8.964a.293.293,0,0,1-.279-.03.3.3,0,0,1-.138-.258v-7.08a.924.924,0,0,0-1.848,0v7.08a2.155,2.155,0,0,0,2.961,2C59.4,86.1,63.083,82.3,63.083,78.136V60.913c0-3.968-3.381-7.633-9.522-10.319ZM11.481,72.233V86.811a.3.3,0,0,1-.138.258.291.291,0,0,1-.279.03c-5.857-2.378-9.215-5.645-9.215-8.963V65.867c2.219,2.8,6.076,4.812,9.438,6.08A.305.305,0,0,1,11.481,72.233Z" transform="translate(0)"/>
        <path id="Path_1177207" data-name="Path 1177207" d="M155.655,226.535,141.673,217.8a2.265,2.265,0,0,0-2.386,0L125.3,226.535a2.251,2.251,0,0,0,0,3.818l2.769,1.731v5.431c0,3.737,5.449,6.665,12.406,6.665a21.068,21.068,0,0,0,6.73-1.035v3.938a.924.924,0,0,0,1.848,0v-4.712c2.37-1.207,3.827-2.923,3.827-4.856v-5.431l2.769-1.731a2.251,2.251,0,0,0,0-3.818Zm-4.617,10.979a3.59,3.59,0,0,1-1.979,2.738v-5.776l1.979-1.237Zm3.638-8.729-6.48,4.05-7.144-5.616a.924.924,0,0,0-1.142,1.453l6.62,5.2-5.836,3.647a.405.405,0,0,1-.427,0l-4.368-2.73a.924.924,0,0,0-.98,1.567l4.368,2.73a2.265,2.265,0,0,0,2.386,0l5.537-3.461v5.549a18.752,18.752,0,0,1-6.73,1.152,17.659,17.659,0,0,1-7.706-1.584c-1.813-.906-2.852-2.085-2.852-3.233v-4.276l1.214.759a.924.924,0,0,0,.98-1.567l-5.831-3.644a.4.4,0,0,1,0-.683l13.982-8.739a.405.405,0,0,1,.427,0l13.982,8.739a.4.4,0,0,1,0,.683Z" transform="translate(-108.939 -149.811)"/>
        <path id="Path_1177208" data-name="Path 1177208" d="M138.567,93.188H129a.924.924,0,0,0-.924.924v3.51l-2.25-2.25a.924.924,0,0,0-1.307,1.307l3.827,3.827a.924.924,0,0,0,1.577-.654V95.036h8.644a.924.924,0,1,0,0-1.848Z" transform="translate(-108.94 -40.853)"/>
        <path id="Path_1177209" data-name="Path 1177209" d="M326.424,116.037a.924.924,0,0,0,1.307,0l5.741-5.741a.924.924,0,0,0-1.307-1.307l-5.741,5.741A.924.924,0,0,0,326.424,116.037Z" transform="translate(-285.968 -54.471)"/>
        <circle id="Ellipse_12509" data-name="Ellipse 12509" cx="0.924" cy="0.924" r="0.924" transform="translate(40.185 54.248)"/>
        <circle id="Ellipse_12510" data-name="Ellipse 12510" cx="0.924" cy="0.924" r="0.924" transform="translate(45.926 59.989)"/>
        <path id="Path_1177210" data-name="Path 1177210" d="M62.232,124.738a.924.924,0,0,0,.046.949l1.572,2.358L62.278,130.4a.924.924,0,0,0,.769,1.437h3.827a.924.924,0,1,0,0-1.848h-2.1l.956-1.434a.924.924,0,0,0,0-1.025l-.956-1.434h2.1a.924.924,0,0,0,0-1.848H63.047A.924.924,0,0,0,62.232,124.738Z" transform="translate(-54.469 -68.088)"/>
        <path id="Path_1177211" data-name="Path 1177211" d="M245.428,123.579a.924.924,0,0,0-1.307,0l-1.376,1.376-1.376-1.376a.924.924,0,0,0-1.307,1.307l1.376,1.376-1.376,1.376a.924.924,0,0,0,1.307,1.307l1.376-1.376,1.376,1.376a.924.924,0,0,0,1.307-1.307l-1.376-1.376,1.376-1.376A.924.924,0,0,0,245.428,123.579Z" transform="translate(-210.247 -67.262)"/>
        <path id="Path_1177212" data-name="Path 1177212" d="M415.371,139.781a.924.924,0,0,0-.924.924v1.946H412.5a.924.924,0,0,0,0,1.848h1.946v1.946a.924.924,0,0,0,1.848,0V144.5h1.946a.924.924,0,0,0,0-1.848h-1.946v-1.946A.924.924,0,0,0,415.371,139.781Z" transform="translate(-360.866 -81.705)"/>
      </g>
    </g>
  </g>
</svg>
