<svg xmlns="http://www.w3.org/2000/svg" xmlns:xlink="http://www.w3.org/1999/xlink" width="108" height="108" viewBox="0 0 108 108">
  <defs>
    <filter id="Fondo" x="0" y="0" width="108" height="108" filterUnits="userSpaceOnUse">
      <feOffset dy="3" input="SourceAlpha"/>
      <feGaussianBlur stdDeviation="3" result="blur"/>
      <feFlood flood-opacity="0.161"/>
      <feComposite operator="in" in2="blur"/>
      <feComposite in="SourceGraphic"/>
    </filter>
  </defs>
  <g id="Group_1225060" data-name="Group 1225060" transform="translate(-723.421 -2541)">
    <g id="Group_1224942" data-name="Group 1224942">
      <g id="Group_1224394" data-name="Group 1224394" transform="translate(105 998)">
        <g id="Group_1221210" data-name="Group 1221210" transform="translate(0 960)">
          <g id="Group_1220768" data-name="Group 1220768" transform="translate(5.32 126)">
            <g id="Group_1220472" data-name="Group 1220472" transform="translate(-1 162)">
              <g id="Group_1210004" data-name="Group 1210004" transform="translate(623.101 301)">
                <g id="Group_1143757" data-name="Group 1143757" transform="translate(0)">
                  <g transform="matrix(1, 0, 0, 1, -9, -6)" filter="url(#Fondo)">
                    <g id="Fondo-2" data-name="Fondo" transform="translate(9 6)" fill="#f8ecfd">
                      <path d="M 44.99994277954102 88.49989318847656 C 39.1268310546875 88.49989318847656 33.43019104003906 87.34996795654297 28.06826782226562 85.08206939697266 C 22.88850593566895 82.89120483398438 18.23629188537598 79.75449371337891 14.24084281921387 75.75904083251953 C 10.24540519714355 71.76360321044922 7.108680248260498 67.11138153076172 4.917830467224121 61.93161773681641 C 2.649930238723755 56.56969451904297 1.50000524520874 50.87305450439453 1.50000524520874 44.99994277954102 C 1.50000524520874 39.1268310546875 2.649930238723755 33.43019104003906 4.917830467224121 28.06826782226562 C 7.108680248260498 22.88850593566895 10.24540519714355 18.23629188537598 14.24084281921387 14.24084281921387 C 18.23629188537598 10.24540519714355 22.88850593566895 7.108680248260498 28.06826782226562 4.917830467224121 C 33.43019104003906 2.649930238723755 39.1268310546875 1.50000524520874 44.99994277954102 1.50000524520874 C 50.87305450439453 1.50000524520874 56.56969451904297 2.649930238723755 61.93161773681641 4.917830467224121 C 67.11138153076172 7.108680248260498 71.76360321044922 10.24540519714355 75.75904083251953 14.24084281921387 C 79.75449371337891 18.23629188537598 82.89120483398438 22.88850593566895 85.08206939697266 28.06826782226562 C 87.34996795654297 33.43019104003906 88.49989318847656 39.1268310546875 88.49989318847656 44.99994277954102 C 88.49989318847656 50.87305450439453 87.34996795654297 56.56969451904297 85.08206939697266 61.93161773681641 C 82.89120483398438 67.11138153076172 79.75449371337891 71.76360321044922 75.75904083251953 75.75904083251953 C 71.76360321044922 79.75449371337891 67.11138153076172 82.89120483398438 61.93161773681641 85.08206939697266 C 56.56969451904297 87.34996795654297 50.87305450439453 88.49989318847656 44.99994277954102 88.49989318847656 Z" stroke="none"/>
                      <path d="M 44.99994277954102 3 C 39.32865524291992 3 33.82861328125 4.110054016113281 28.65258407592773 6.299331665039062 C 23.65162658691406 8.414558410644531 19.15966796875 11.44332885742188 15.30149841308594 15.30149841308594 C 11.44332885742188 19.15966796875 8.414558410644531 23.65162658691406 6.299331665039062 28.65258407592773 C 4.110054016113281 33.82861328125 3 39.32865524291992 3 44.99994277954102 C 3 50.67121505737305 4.110054016113281 56.17125701904297 6.299331665039062 61.34728622436523 C 8.414558410644531 66.34825897216797 11.44332885742188 70.8402099609375 15.30149841308594 74.69838714599609 C 19.15966796875 78.55655670166016 23.65162658691406 81.5853271484375 28.65258407592773 83.70055389404297 C 33.82861328125 85.88983154296875 39.32867050170898 86.99988555908203 44.99994277954102 86.99988555908203 C 50.67121505737305 86.99988555908203 56.17125701904297 85.88983154296875 61.34728622436523 83.70055389404297 C 66.34825897216797 81.5853271484375 70.8402099609375 78.55655670166016 74.69838714599609 74.69838714599609 C 78.55655670166016 70.8402099609375 81.5853271484375 66.34825897216797 83.70055389404297 61.34728622436523 C 85.88983154296875 56.17125701904297 86.99988555908203 50.67121505737305 86.99988555908203 44.99994277954102 C 86.99988555908203 39.32867050170898 85.88983154296875 33.82861328125 83.70055389404297 28.65258407592773 C 81.5853271484375 23.65162658691406 78.55655670166016 19.15966796875 74.69838714599609 15.30149841308594 C 70.8402099609375 11.44332885742188 66.34825897216797 8.414558410644531 61.34728622436523 6.299331665039062 C 56.17125701904297 4.110054016113281 50.67121505737305 3 44.99994277954102 3 M 44.99994277954102 0 C 69.85271453857422 0 89.99988555908203 20.14715576171875 89.99988555908203 44.99994277954102 C 89.99988555908203 69.85271453857422 69.85271453857422 89.99988555908203 44.99994277954102 89.99988555908203 C 20.14715576171875 89.99988555908203 0 69.85271453857422 0 44.99994277954102 C 0 20.14715576171875 20.14715576171875 0 44.99994277954102 0 Z" stroke="none" fill="#c252f0"/>
                    </g>
                  </g>
                </g>
              </g>
            </g>
          </g>
        </g>
      </g>
      <g id="graduacion_1_" data-name="graduacion (1)" transform="translate(674.505 2560.437)">
        <g id="Group_1224924" data-name="Group 1224924" transform="translate(91.024 14.225)">
          <path id="Path_1177372" data-name="Path 1177372" d="M159.69,118.73v8.2a10.754,10.754,0,1,0,21.508,0v-8.2l-10.754-3.248Z" transform="translate(-159.69 -115.482)" fill="#fed2a4"/>
        </g>
        <g id="Group_1224925" data-name="Group 1224925" transform="translate(100.557 16.735)">
          <path id="Path_1177373" data-name="Path 1177373" d="M249.06,136.6v8.2a10.755,10.755,0,0,1-10.754,10.754,10.457,10.457,0,0,1-1.22-.07,10.753,10.753,0,0,0,9.531-10.684v-8.941Z" transform="translate(-237.086 -135.858)" fill="#ffbd86"/>
        </g>
        <g id="Group_1224926" data-name="Group 1224926" transform="translate(112.532 21.058)">
          <path id="Path_1177374" data-name="Path 1177374" d="M335.2,175.812h-.91v-4.858h.91a2.429,2.429,0,0,1,0,4.858Z" transform="translate(-334.294 -170.954)" fill="#fed2a4"/>
        </g>
        <g id="Group_1224927" data-name="Group 1224927" transform="translate(87.685 21.058)">
          <path id="Path_1177375" data-name="Path 1177375" d="M135.014,175.812h.91v-4.858h-.91a2.429,2.429,0,1,0,0,4.858Z" transform="translate(-132.585 -170.954)" fill="#fed2a4"/>
        </g>
        <g id="Group_1224930" data-name="Group 1224930" transform="translate(91.024 9.204)">
          <g id="Group_1224928" data-name="Group 1224928" transform="translate(0 0)">
            <path id="Path_1177376" data-name="Path 1177376" d="M170.444,74.722H159.69v9.364l10.754-1.92,10.754,1.92V74.722Z" transform="translate(-159.69 -74.722)" fill="#8d9ca8"/>
          </g>
          <g id="Group_1224929" data-name="Group 1224929" transform="translate(19.066)">
            <path id="Path_1177377" data-name="Path 1177377" d="M316.909,74.72v9.364l-2.442-.436V74.72Z" transform="translate(-314.467 -74.72)" fill="#7a8c98"/>
          </g>
        </g>
        <g id="Group_1224931" data-name="Group 1224931" transform="translate(82.301 0.924)">
          <path id="Path_1177378" data-name="Path 1177378" d="M127.493,12.566l-17.917-4.9a4.632,4.632,0,0,0-2.445,0l-17.917,4.9a.458.458,0,0,0,0,.884l17.91,4.936a4.632,4.632,0,0,0,2.461,0l17.91-4.936A.458.458,0,0,0,127.493,12.566Z" transform="translate(-88.877 -7.499)" fill="#596c76"/>
        </g>
        <g id="Group_1224932" data-name="Group 1224932" transform="translate(98.924 0.924)">
          <path id="Path_1177379" data-name="Path 1177379" d="M245.821,13.453l-17.91,4.935a4.624,4.624,0,0,1-2.46,0l-1.623-.448,16.287-4.487a.458.458,0,0,0,0-.883L223.828,8.114l1.631-.447a4.645,4.645,0,0,1,2.445,0l17.917,4.9A.458.458,0,0,1,245.821,13.453Z" transform="translate(-223.828 -7.503)" fill="#465a61"/>
        </g>
        <g id="Group_1224933" data-name="Group 1224933" transform="translate(118.978 19.428)">
          <circle id="Ellipse_12526" data-name="Ellipse 12526" cx="2.276" cy="2.276" r="2.276" transform="translate(0)" fill="#8d9ca8"/>
        </g>
        <g id="Group_1224934" data-name="Group 1224934" transform="translate(119.263 19.442)">
          <path id="Path_1177380" data-name="Path 1177380" d="M393.207,160.1a2.276,2.276,0,0,1-4.268,1.1,2.169,2.169,0,0,0,.251.015,2.277,2.277,0,0,0,2.276-2.276,2.252,2.252,0,0,0-.285-1.1A2.275,2.275,0,0,1,393.207,160.1Z" transform="translate(-388.939 -157.835)" fill="#7a8c98"/>
        </g>
        <g id="Group_1224935" data-name="Group 1224935" transform="translate(85.519 34.059)">
          <path id="Path_1177381" data-name="Path 1177381" d="M145.441,299.832H117.075A2.076,2.076,0,0,1,115,297.756v-18.6a2.666,2.666,0,0,1,2.666-2.666h27.187a2.666,2.666,0,0,1,2.666,2.666v18.6A2.076,2.076,0,0,1,145.441,299.832Z" transform="translate(-114.999 -276.491)" fill="#c5d3dd"/>
        </g>
        <g id="Group_1224936" data-name="Group 1224936" transform="translate(112.821 34.059)">
          <path id="Path_1177382" data-name="Path 1177382" d="M341.857,279.156v18.6a2.076,2.076,0,0,1-2.076,2.077h-2.55a2.076,2.076,0,0,0,2.076-2.077v-18.6a2.665,2.665,0,0,0-2.666-2.666h2.55A2.666,2.666,0,0,1,341.857,279.156Z" transform="translate(-336.641 -276.49)" fill="#b6c4cf"/>
        </g>
        <g id="Group_1224937" data-name="Group 1224937" transform="translate(82.969 57.4)">
          <path id="Path_1177383" data-name="Path 1177383" d="M129.957,470.779h-33.7a1.96,1.96,0,0,1-1.96-1.96v-2.165a.678.678,0,0,1,.678-.678h36.263a.678.678,0,0,1,.678.678v2.165A1.96,1.96,0,0,1,129.957,470.779Z" transform="translate(-94.299 -465.977)" fill="#8d9ca8"/>
        </g>
        <g id="Group_1224938" data-name="Group 1224938" transform="translate(116.076 57.4)">
          <path id="Path_1177384" data-name="Path 1177384" d="M367.581,466.657v2.164a1.959,1.959,0,0,1-1.96,1.96h-2.55a1.959,1.959,0,0,0,1.96-1.96v-2.164a.677.677,0,0,0-.677-.677h2.55A.677.677,0,0,1,367.581,466.657Z" transform="translate(-363.071 -465.98)" fill="#7a8c98"/>
        </g>
        <g id="Group_1224939" data-name="Group 1224939" transform="translate(98.509 42.461)">
          <circle id="Ellipse_12527" data-name="Ellipse 12527" cx="3.268" cy="3.268" r="3.268" fill="#f9f7f8"/>
        </g>
        <g id="Group_1224940" data-name="Group 1224940" transform="translate(98.826 42.585)">
          <path id="Path_1177385" data-name="Path 1177385" d="M229.25,348.854a3.268,3.268,0,0,1-6.219,1.4,3.22,3.22,0,0,0,.891.124,3.269,3.269,0,0,0,3.269-3.268,3.231,3.231,0,0,0-.318-1.4A3.267,3.267,0,0,1,229.25,348.854Z" transform="translate(-223.031 -345.71)" fill="#efedef"/>
        </g>
        <g id="Group_1224941" data-name="Group 1224941" transform="translate(81.377 0)">
          <path id="Path_1177386" data-name="Path 1177386" d="M205.537,174.965a.924.924,0,0,0-.924.924v2.022a.924.924,0,1,0,1.848,0v-2.022A.924.924,0,0,0,205.537,174.965Z" transform="translate(-189.433 -153.413)"/>
          <path id="Path_1177387" data-name="Path 1177387" d="M275.295,178.835a.924.924,0,0,0,.924-.924v-2.022a.924.924,0,0,0-1.848,0v2.022A.924.924,0,0,0,275.295,178.835Z" transform="translate(-250.598 -153.413)"/>
          <path id="Path_1177388" data-name="Path 1177388" d="M224.5,225.941a.924.924,0,0,0-1.631.868,3.263,3.263,0,0,0,5.749.024.924.924,0,0,0-1.624-.882,1.415,1.415,0,0,1-2.494-.011Z" transform="translate(-205.345 -197.68)"/>
          <path id="Path_1177389" data-name="Path 1177389" d="M118.054,21.7a3.2,3.2,0,1,0,4.124-3.064V6.29a.918.918,0,0,0-.187-.555,1.371,1.371,0,0,0-.83-.635L103.244.2a5.559,5.559,0,0,0-2.932,0L82.394,5.1a1.382,1.382,0,0,0,0,2.666L90.1,9.889V20.135a3.353,3.353,0,0,0,.014,6.706h.045A11.627,11.627,0,0,0,92.8,33.135H88.184a3.594,3.594,0,0,0-3.59,3.59v2.708a.924.924,0,1,0,1.848,0V36.725a1.744,1.744,0,0,1,1.742-1.742h27.186a1.744,1.744,0,0,1,1.742,1.742v18.6a1.153,1.153,0,0,1-1.152,1.152H87.594a1.153,1.153,0,0,1-1.152-1.152v-11.6a.924.924,0,0,0-1.848,0v11.6a2.983,2.983,0,0,0,.23,1.152H83.646a1.6,1.6,0,0,0-1.6,1.6v2.165a2.887,2.887,0,0,0,2.884,2.884h25.944a.924.924,0,0,0,0-1.848H84.929a1.037,1.037,0,0,1-1.036-1.036V58.324h35.77v1.919a1.037,1.037,0,0,1-1.036,1.036h-3.495a.924.924,0,1,0,0,1.848h3.495a2.887,2.887,0,0,0,2.884-2.884V58.077a1.6,1.6,0,0,0-1.6-1.6H118.73a2.983,2.983,0,0,0,.23-1.152v-18.6a3.594,3.594,0,0,0-3.59-3.59h-4.616a11.626,11.626,0,0,0,2.641-6.294h.045a3.353,3.353,0,0,0,.014-6.706V9.889l6.875-1.895V18.64a3.205,3.205,0,0,0-2.276,3.064ZM90.1,24.993a1.505,1.505,0,0,1,0-3.011Zm23.356-3.01a1.505,1.505,0,0,1,0,3.011Zm-1.848,3.694a9.805,9.805,0,0,1-3.438,7.458H95.386a9.807,9.807,0,0,1-3.439-7.458V19.341l9.83-1.755,9.83,1.755v6.335Zm-19.66-8.212V10.4l8.354,2.3a5.556,5.556,0,0,0,2.951,0l8.354-2.3v7.066l-9.668-1.726a.922.922,0,0,0-.325,0Zm10.815-6.545a3.71,3.71,0,0,1-1.97,0L84.518,6.434,100.8,1.979a3.71,3.71,0,0,1,1.957,0l12.377,3.387H102.1a.924.924,0,1,0,0,1.848H116.21Zm18.492,9.432A1.352,1.352,0,1,1,119.9,21.7,1.354,1.354,0,0,1,121.254,20.352Z" transform="translate(-81.377 0)"/>
          <path id="Path_1177390" data-name="Path 1177390" d="M221.343,341.393a4.192,4.192,0,1,0-4.192,4.192A4.2,4.2,0,0,0,221.343,341.393Zm-6.537,0a2.345,2.345,0,1,1,2.344,2.345A2.347,2.347,0,0,1,214.807,341.393Z" transform="translate(-196.751 -295.664)"/>
        </g>
      </g>
    </g>
  </g>
</svg>
