<svg xmlns="http://www.w3.org/2000/svg" xmlns:xlink="http://www.w3.org/1999/xlink" width="103" height="103" viewBox="0 0 103 103">
  <defs>
    <filter id="Path_978624" x="0" y="0" width="103" height="103" filterUnits="userSpaceOnUse">
      <feOffset dy="3" input="SourceAlpha"/>
      <feGaussianBlur stdDeviation="3" result="blur"/>
      <feFlood flood-opacity="0.161"/>
      <feComposite operator="in" in2="blur"/>
      <feComposite in="SourceGraphic"/>
    </filter>
  </defs>
  <g id="Group_1225034" data-name="Group 1225034" transform="translate(-170.68 -1457)">
    <g id="Group_1224700" data-name="Group 1224700">
      <g id="Group_1224324" data-name="Group 1224324" transform="translate(0 -174)">
        <g id="Group_1224085" data-name="Group 1224085" transform="translate(-0.32 284)">
          <g id="Group_1220479" data-name="Group 1220479" transform="translate(-38.301 -1882)">
            <g id="Group_1214503" data-name="Group 1214503" transform="translate(218.301 3235)">
              <g id="Group_1211421" data-name="Group 1211421">
                <g id="Group_1208651" data-name="Group 1208651">
                  <g id="Group_1178144" data-name="Group 1178144">
                    <g id="Group_1177896" data-name="Group 1177896">
                      <g id="Group_1176881" data-name="Group 1176881">
                        <g id="Group_1175148" data-name="Group 1175148">
                          <g id="Group_1173798" data-name="Group 1173798">
                            <g id="Group_1171925" data-name="Group 1171925">
                              <g id="Group_1164524" data-name="Group 1164524">
                                <g id="Group_1144123" data-name="Group 1144123">
                                  <g transform="matrix(1, 0, 0, 1, -9, -6)" filter="url(#Path_978624)">
                                    <g id="Path_978624-2" data-name="Path 978624" transform="translate(9 6)" fill="#f8ecfd">
                                      <path d="M 42.5 83.5 C 36.96437835693359 83.5 31.59512901306152 82.41617584228516 26.54141235351562 80.27863311767578 C 21.65934181213379 78.21369171142578 17.27447128295898 75.25723266601562 13.50862312316895 71.49137878417969 C 9.742764472961426 67.72553253173828 6.786305904388428 63.34066009521484 4.721364498138428 58.45858764648438 C 2.583823442459106 53.40486907958984 1.5 48.03562164306641 1.5 42.5 C 1.5 36.96437835693359 2.583823442459106 31.59512901306152 4.721364498138428 26.54141235351562 C 6.786305904388428 21.65934181213379 9.742764472961426 17.27447128295898 13.50862312316895 13.50862312316895 C 17.27447128295898 9.742764472961426 21.65934181213379 6.786305904388428 26.54141235351562 4.721364498138428 C 31.59512901306152 2.583823442459106 36.96437835693359 1.5 42.5 1.5 C 48.03562164306641 1.5 53.40486907958984 2.583823442459106 58.45858764648438 4.721364498138428 C 63.34066009521484 6.786305904388428 67.72553253173828 9.742764472961426 71.49137878417969 13.50862312316895 C 75.25723266601562 17.27447128295898 78.21369171142578 21.65934181213379 80.27863311767578 26.54141235351562 C 82.41617584228516 31.59512901306152 83.5 36.96437835693359 83.5 42.5 C 83.5 48.03562164306641 82.41617584228516 53.40486907958984 80.27863311767578 58.45858764648438 C 78.21369171142578 63.34066009521484 75.25723266601562 67.72553253173828 71.49137878417969 71.49137878417969 C 67.72553253173828 75.25723266601562 63.34066009521484 78.21369171142578 58.45858764648438 80.27863311767578 C 53.40486907958984 82.41617584228516 48.03562164306641 83.5 42.5 83.5 Z" stroke="none"/>
                                      <path d="M 42.5 3 C 37.16621398925781 3 31.99356079101562 4.043960571289062 27.125732421875 6.102882385253906 C 22.42246627807617 8.092185974121094 18.19785308837891 10.94070434570312 14.56928253173828 14.56928253173828 C 10.94070434570312 18.19785308837891 8.092185974121094 22.42246627807617 6.102882385253906 27.125732421875 C 4.043960571289062 31.99356079101562 3 37.16621398925781 3 42.5 C 3 47.83378601074219 4.043960571289062 53.00643920898438 6.102882385253906 57.87425231933594 C 8.092185974121094 62.57753372192383 10.94070434570312 66.80213165283203 14.56928253173828 70.43071746826172 C 18.19786834716797 74.05929565429688 22.42246627807617 76.90781402587891 27.125732421875 78.89711761474609 C 31.99356079101562 80.95603942871094 37.16621398925781 82 42.5 82 C 47.83378601074219 82 53.00642395019531 80.95603942871094 57.87425231933594 78.89711761474609 C 62.57753372192383 76.90781402587891 66.80213165283203 74.05929565429688 70.43071746826172 70.43071746826172 C 74.05929565429688 66.80213165283203 76.90781402587891 62.57753372192383 78.89711761474609 57.87425231933594 C 80.95603942871094 53.00642395019531 82 47.83378601074219 82 42.5 C 82 37.16621398925781 80.95603942871094 31.99356079101562 78.89711761474609 27.125732421875 C 76.90781402587891 22.42246627807617 74.05929565429688 18.19786834716797 70.43071746826172 14.56928253173828 C 66.80213165283203 10.94070434570312 62.57753372192383 8.092185974121094 57.87425231933594 6.102882385253906 C 53.00643920898438 4.043960571289062 47.83378601074219 3 42.5 3 M 42.5 0 C 65.97209167480469 0 85 19.02789306640625 85 42.5 C 85 65.97209167480469 65.97209167480469 85 42.5 85 C 19.02789306640625 85 0 65.97209167480469 0 42.5 C 0 19.02789306640625 19.02789306640625 0 42.5 0 Z" stroke="none" fill="#c252f0"/>
                                    </g>
                                  </g>
                                </g>
                              </g>
                            </g>
                          </g>
                        </g>
                      </g>
                    </g>
                  </g>
                </g>
              </g>
            </g>
          </g>
        </g>
      </g>
      <g id="idea_2_" data-name="idea (2)" transform="translate(185.522 1476.25)">
        <g id="Group_1224697" data-name="Group 1224697" transform="translate(11.108 0.857)">
          <g id="Group_1224696" data-name="Group 1224696">
            <g id="Group_1224692" data-name="Group 1224692" transform="translate(5.828)">
              <g id="Group_1224688" data-name="Group 1224688">
                <path id="Path_1177115" data-name="Path 1177115" d="M150.46,42.391a2.465,2.465,0,0,0,2.226-3.526l-2.558-5.37a2.449,2.449,0,0,1-.238-1.024l-.049-3.944a20.8,20.8,0,1,0-41.6-.226,20.708,20.708,0,0,0,4.238,12.585,15.448,15.448,0,0,1,3.135,9.359v12h19.829v-5.7a2.15,2.15,0,0,1,2.462-2.127l5.987.878a3.572,3.572,0,0,0,4.09-3.534V44.841A2.45,2.45,0,0,1,150.46,42.391Z" transform="translate(-108.244 -7.504)" fill="#ffece3"/>
              </g>
              <g id="Group_1224690" data-name="Group 1224690" transform="translate(21.45 0.011)">
                <g id="Group_1224689" data-name="Group 1224689" transform="translate(1.141 46.214)">
                  <path id="Path_1177116" data-name="Path 1177116" d="M308.425,412.1a2.15,2.15,0,0,0-2.462,2.127v6.366h4.611v-5.7a2.15,2.15,0,0,1,2.311-2.144Z" transform="translate(-305.963 -412.072)" fill="#ffddce"/>
                </g>
                <path id="Path_1177117" data-name="Path 1177117" d="M318.972,38.948l-2.558-5.37a2.45,2.45,0,0,1-.238-1.024l-.049-3.944A20.954,20.954,0,0,0,295.981,7.6,21.041,21.041,0,0,1,311.516,27.94l.049,3.944a2.45,2.45,0,0,0,.238,1.024l2.558,5.37a2.465,2.465,0,0,1-2.226,3.526,2.45,2.45,0,0,0-2.474,2.45v6.926a3.572,3.572,0,0,1-3.885,3.558l4.407.646a3.572,3.572,0,0,0,4.09-3.534V44.924a2.451,2.451,0,0,1,2.474-2.45A2.465,2.465,0,0,0,318.972,38.948Z" transform="translate(-295.981 -7.597)" fill="#ffddce"/>
              </g>
              <path id="Path_1177118" data-name="Path 1177118" d="M167.014,451.3l-22.534-.022a2.026,2.026,0,0,1-2.025-2.026v-2.787a2.026,2.026,0,0,1,2.213-2.018l22.534,2.084a2.026,2.026,0,0,1,1.84,2.018v.725a2.027,2.027,0,0,1-2.028,2.026Z" transform="translate(-138.547 -394.516)" fill="#8db9c2"/>
              <g id="Group_1224691" data-name="Group 1224691" transform="translate(23.908 51.756)">
                <path id="Path_1177119" data-name="Path 1177119" d="M322.237,460.74l-2.807-.26v3a2.025,2.025,0,0,1-1.94,2.022l4.559,0a2.026,2.026,0,0,0,2.028-2.026v-.725a2.027,2.027,0,0,0-1.84-2.018Z" transform="translate(-317.489 -460.48)" fill="#7ba0b0"/>
              </g>
            </g>
            <g id="Group_1224695" data-name="Group 1224695" transform="translate(0 5.478)">
              <g id="Group_1224694" data-name="Group 1224694">
                <g id="Group_1224693" data-name="Group 1224693">
                  <path id="Path_1177120" data-name="Path 1177120" d="M123.6,313.476h-3.621a3.5,3.5,0,0,1-3.5-3.5v-4.916H127.1v4.916A3.5,3.5,0,0,1,123.6,313.476Z" transform="translate(-109.711 -276.538)" fill="#daeaef"/>
                  <path id="Path_1177121" data-name="Path 1177121" d="M145.628,305.058v4.916a3.5,3.5,0,0,1-2.989,3.464,3.536,3.536,0,0,0,.513.038h3.621a3.5,3.5,0,0,0,3.5-3.5v-4.916Z" transform="translate(-132.881 -276.538)" fill="#c9e2e7"/>
                  <path id="Path_1177122" data-name="Path 1177122" d="M81.158,67.408a11.961,11.961,0,1,0-21.177,7.624,17.714,17.714,0,0,1,4.155,11.285v.018H74.258v-.019a17.469,17.469,0,0,1,4.106-11.226A11.911,11.911,0,0,0,81.158,67.408Z" transform="translate(-57.236 -55.447)" fill="#fbe77b"/>
                  <path id="Path_1177123" data-name="Path 1177123" d="M143.608,55.448a11.876,11.876,0,0,0-2.17.231,11.962,11.962,0,0,1,6.816,19.412,17.469,17.469,0,0,0-4.106,11.226v.019h4.692v-.019a17.469,17.469,0,0,1,4.106-11.226,11.961,11.961,0,0,0-9.338-19.643Z" transform="translate(-131.817 -55.447)" fill="#fcdd2e"/>
                  <path id="Path_1177124" data-name="Path 1177124" d="M116.444,296.746H105.488a1.1,1.1,0,0,1-1.1-1.1v-4.14a1.1,1.1,0,0,1,1.1-1.1h10.955a1.1,1.1,0,0,1,1.1,1.1v4.14A1.1,1.1,0,0,1,116.444,296.746Z" transform="translate(-99.005 -263.568)" fill="#eff3f5"/>
                </g>
              </g>
              <path id="Path_1177125" data-name="Path 1177125" d="M110.346,102.451a1.072,1.072,0,0,1-.758-1.831,1.2,1.2,0,0,0,0-1.7l-.455-.455a1.2,1.2,0,0,0-1.7,0,1.072,1.072,0,0,1-1.831-.758,1.2,1.2,0,0,0-1.2-1.2h-.644a1.2,1.2,0,0,0-1.2,1.2,1.072,1.072,0,0,1-1.831.758,1.2,1.2,0,0,0-1.7,0l-.455.455a1.2,1.2,0,0,0,0,1.7,1.072,1.072,0,0,1-.758,1.831,1.2,1.2,0,0,0-1.2,1.2v.644a1.2,1.2,0,0,0,1.2,1.2,1.072,1.072,0,0,1,.758,1.831,1.2,1.2,0,0,0,0,1.7l.455.455a1.2,1.2,0,0,0,1.7,0,1.072,1.072,0,0,1,1.831.758,1.2,1.2,0,0,0,1.2,1.2h.644a1.2,1.2,0,0,0,1.2-1.2,1.072,1.072,0,0,1,1.831-.758,1.2,1.2,0,0,0,1.7,0l.455-.455a1.2,1.2,0,0,0,0-1.7,1.072,1.072,0,0,1,.758-1.831,1.2,1.2,0,0,0,1.2-1.2v-.644A1.2,1.2,0,0,0,110.346,102.451Zm-6.262,3.64a2.119,2.119,0,1,1,2.119-2.119A2.119,2.119,0,0,1,104.085,106.091Z" transform="translate(-92.124 -91.819)" fill="#d5b0ec"/>
            </g>
          </g>
          <path id="Path_1177126" data-name="Path 1177126" d="M173.835,290.414h-4.647a1.1,1.1,0,0,1,1.1,1.1v4.14a1.1,1.1,0,0,1-1.1,1.1h4.647a1.1,1.1,0,0,0,1.1-1.1v-4.14A1.1,1.1,0,0,0,173.835,290.414Z" transform="translate(-156.397 -258.089)" fill="#daeaef"/>
        </g>
        <g id="Group_1224699" data-name="Group 1224699" transform="translate(5.158 0)">
          <g id="Group_1224698" data-name="Group 1224698" transform="translate(0 0)">
            <path id="Path_1177127" data-name="Path 1177127" d="M155.273,6.3a.857.857,0,0,0,.858-.858V3.788a.858.858,0,0,0-1.715,0V5.442A.858.858,0,0,0,155.273,6.3Z" transform="translate(-137.362 -2.595)"/>
            <path id="Path_1177128" data-name="Path 1177128" d="M251.183,49.28l1.17-1.17A.857.857,0,1,0,251.14,46.9l-1.17,1.17a.857.857,0,0,0,1.213,1.213Z" transform="translate(-221.776 -41.317)"/>
            <path id="Path_1177129" data-name="Path 1177129" d="M50.295,247.741l-1.17,1.17a.857.857,0,0,0,1.213,1.213l1.17-1.17a.857.857,0,1,0-1.213-1.213Z" transform="translate(-43.879 -219.212)"/>
            <path id="Path_1177130" data-name="Path 1177130" d="M291.7,153.9a.858.858,0,0,0,0-1.715H290.05a.858.858,0,0,0,0,1.715Z" transform="translate(-256.74 -134.799)"/>
            <path id="Path_1177131" data-name="Path 1177131" d="M7.67,152.188H6.016a.858.858,0,0,0,0,1.715H7.67a.858.858,0,0,0,0-1.715Z" transform="translate(-5.158 -134.799)"/>
            <path id="Path_1177132" data-name="Path 1177132" d="M251.183,247.741a.857.857,0,1,0-1.213,1.213l1.072,1.072a.857.857,0,0,0,1.213-1.213Z" transform="translate(-221.776 -219.212)"/>
            <path id="Path_1177133" data-name="Path 1177133" d="M50.3,49.281a.857.857,0,1,0,1.213-1.213l-1.17-1.17a.857.857,0,1,0-1.213,1.213Z" transform="translate(-43.88 -41.317)"/>
            <path id="Path_1177134" data-name="Path 1177134" d="M94.692,103.434a.215.215,0,0,1,.367.152,2.059,2.059,0,0,0,2.057,2.057h.644a2.059,2.059,0,0,0,2.057-2.057.215.215,0,0,1,.367-.152,2.057,2.057,0,0,0,2.909,0l.455-.455a2.057,2.057,0,0,0,0-2.909.215.215,0,0,1,.152-.367,2.059,2.059,0,0,0,2.057-2.057V97a2.059,2.059,0,0,0-2.057-2.057.215.215,0,0,1-.152-.367,2.057,2.057,0,0,0,0-2.909l-.455-.455a2.057,2.057,0,0,0-2.909,0,.215.215,0,0,1-.367-.152,2.059,2.059,0,0,0-2.057-2.057h-.644a2.059,2.059,0,0,0-2.057,2.057.215.215,0,0,1-.367.152,2.057,2.057,0,0,0-2.909,0l-.455.455a2.057,2.057,0,0,0,0,2.909.215.215,0,0,1-.152.367A2.059,2.059,0,0,0,89.119,97v.644A2.059,2.059,0,0,0,91.176,99.7a.215.215,0,0,1,.152.367,2.057,2.057,0,0,0,0,2.909l.455.455a2.059,2.059,0,0,0,2.908,0Zm-3.516-5.446a.342.342,0,0,1-.342-.342V97a.342.342,0,0,1,.342-.342,1.93,1.93,0,0,0,1.365-3.295.342.342,0,0,1,0-.483L93,92.427a.342.342,0,0,1,.483,0,1.93,1.93,0,0,0,3.295-1.365.342.342,0,0,1,.342-.342h.644a.342.342,0,0,1,.342.342,1.93,1.93,0,0,0,3.295,1.365.342.342,0,0,1,.483,0l.455.455a.342.342,0,0,1,0,.483A1.93,1.93,0,0,0,103.7,96.66a.342.342,0,0,1,.342.342v.644a.342.342,0,0,1-.342.342,1.93,1.93,0,0,0-1.365,3.295.342.342,0,0,1,0,.483l-.455.455a.342.342,0,0,1-.483,0,1.93,1.93,0,0,0-3.295,1.365.342.342,0,0,1-.342.342h-.644a.342.342,0,0,1-.342-.342,1.929,1.929,0,0,0-3.295-1.365.342.342,0,0,1-.483,0l-.455-.455a.342.342,0,0,1,0-.483,1.93,1.93,0,0,0-1.365-3.294Z" transform="translate(-79.526 -78.836)"/>
            <path id="Path_1177135" data-name="Path 1177135" d="M138.845,141.709a2.977,2.977,0,1,0-2.977-2.977A2.98,2.98,0,0,0,138.845,141.709Zm0-4.239a1.262,1.262,0,1,1-1.262,1.262A1.263,1.263,0,0,1,138.845,137.47Z" transform="translate(-120.933 -120.244)"/>
            <path id="Path_1177136" data-name="Path 1177136" d="M177.115,31.85l-2.558-5.369a1.6,1.6,0,0,1-.155-.665l-.049-3.933A21.81,21.81,0,0,0,152.775,0H152.7a21.629,21.629,0,0,0-10.978,2.985.858.858,0,1,0,.871,1.478A19.914,19.914,0,0,1,152.7,1.715h.07a20.094,20.094,0,0,1,19.87,20.177l.049,3.944a3.331,3.331,0,0,0,.321,1.382l2.558,5.369a1.606,1.606,0,0,1-1.443,2.3,3.306,3.306,0,0,0-3.34,3.308V45.12a2.715,2.715,0,0,1-3.108,2.685l-5.987-.878a3.009,3.009,0,0,0-3.444,2.976V51.8l-18.114-1.675V47.282a.858.858,0,1,0-1.715,0v2.683l-.315-.029a2.886,2.886,0,0,0-3.15,2.872v2.787a2.888,2.888,0,0,0,2.881,2.884l22.534.021h0a2.882,2.882,0,0,0,2.884-2.884v-.725a2.871,2.871,0,0,0-2.618-2.872l-.675-.062V49.9a1.291,1.291,0,0,1,1.48-1.279l5.987.878A4.43,4.43,0,0,0,172.5,45.12V38.194a1.592,1.592,0,0,1,1.617-1.593,3.323,3.323,0,0,0,3-4.752ZM161.538,54.891v.725a1.168,1.168,0,0,1-1.169,1.169h0l-22.534-.022a1.17,1.17,0,0,1-1.168-1.169V52.807a1.168,1.168,0,0,1,1.277-1.164l1.242.115h0l21.29,1.969a1.163,1.163,0,0,1,1.061,1.164Z" transform="translate(-120.121 0)"/>
            <path id="Path_1177137" data-name="Path 1177137" d="M60.837,86.6h3.621A4.365,4.365,0,0,0,68.8,82.666a1.955,1.955,0,0,0,1.162-1.784v-4.14a1.953,1.953,0,0,0-.868-1.623,16.8,16.8,0,0,1,3.261-6.125,12.818,12.818,0,1,0-19.7-.063,17.41,17.41,0,0,1,3.3,6.194,1.952,1.952,0,0,0-.858,1.616v4.14a1.955,1.955,0,0,0,1.413,1.876A4.365,4.365,0,0,0,60.837,86.6ZM57.05,81.12a.238.238,0,0,1-.238-.238v-4.14a.238.238,0,0,1,.238-.238H68.012a.238.238,0,0,1,.231.237v4.14A.238.238,0,0,1,68,81.12Zm7.408,3.76H60.837a2.648,2.648,0,0,1-2.575-2.045h8.771A2.648,2.648,0,0,1,64.458,84.88Zm-2.09-35.222a11.118,11.118,0,0,1,8.669,18.234,18.524,18.524,0,0,0-3.636,6.9H57.642a19.121,19.121,0,0,0-3.67-6.951A11.122,11.122,0,0,1,62.369,49.658Z" transform="translate(-44.616 -42.465)"/>
          </g>
        </g>
      </g>
    </g>
  </g>
</svg>
