<svg xmlns="http://www.w3.org/2000/svg" xmlns:xlink="http://www.w3.org/1999/xlink" width="108" height="108" viewBox="0 0 108 108">
  <defs>
    <filter id="Fondo" x="0" y="0" width="108" height="108" filterUnits="userSpaceOnUse">
      <feOffset dy="3" input="SourceAlpha"/>
      <feGaussianBlur stdDeviation="3" result="blur"/>
      <feFlood flood-opacity="0.161"/>
      <feComposite operator="in" in2="blur"/>
      <feComposite in="SourceGraphic"/>
    </filter>
  </defs>
  <g id="Group_1225029" data-name="Group 1225029" transform="translate(-613.941 -545)">
    <g id="Group_1224687" data-name="Group 1224687">
      <g id="Group_1224323" data-name="Group 1224323" transform="translate(-0.16 88)">
        <g id="Group_1220472" data-name="Group 1220472" transform="translate(0 162)">
          <g id="Group_1210004" data-name="Group 1210004" transform="translate(623.101 301)">
            <g id="Group_1143757" data-name="Group 1143757" transform="translate(0)">
              <g transform="matrix(1, 0, 0, 1, -9, -6)" filter="url(#Fondo)">
                <g id="Fondo-2" data-name="Fondo" transform="translate(9 6)" fill="#fef8e9">
                  <path d="M 44.99994277954102 88.49989318847656 C 39.1268310546875 88.49989318847656 33.43019104003906 87.34996795654297 28.06826782226562 85.08206939697266 C 22.88850593566895 82.89120483398438 18.23629188537598 79.75449371337891 14.24084281921387 75.75904083251953 C 10.24540519714355 71.76360321044922 7.108680248260498 67.11138153076172 4.917830467224121 61.93161773681641 C 2.649930238723755 56.56969451904297 1.50000524520874 50.87305450439453 1.50000524520874 44.99994277954102 C 1.50000524520874 39.1268310546875 2.649930238723755 33.43019104003906 4.917830467224121 28.06826782226562 C 7.108680248260498 22.88850593566895 10.24540519714355 18.23629188537598 14.24084281921387 14.24084281921387 C 18.23629188537598 10.24540519714355 22.88850593566895 7.108680248260498 28.06826782226562 4.917830467224121 C 33.43019104003906 2.649930238723755 39.1268310546875 1.50000524520874 44.99994277954102 1.50000524520874 C 50.87305450439453 1.50000524520874 56.56969451904297 2.649930238723755 61.93161773681641 4.917830467224121 C 67.11138153076172 7.108680248260498 71.76360321044922 10.24540519714355 75.75904083251953 14.24084281921387 C 79.75449371337891 18.23629188537598 82.89120483398438 22.88850593566895 85.08206939697266 28.06826782226562 C 87.34996795654297 33.43019104003906 88.49989318847656 39.1268310546875 88.49989318847656 44.99994277954102 C 88.49989318847656 50.87305450439453 87.34996795654297 56.56969451904297 85.08206939697266 61.93161773681641 C 82.89120483398438 67.11138153076172 79.75449371337891 71.76360321044922 75.75904083251953 75.75904083251953 C 71.76360321044922 79.75449371337891 67.11138153076172 82.89120483398438 61.93161773681641 85.08206939697266 C 56.56969451904297 87.34996795654297 50.87305450439453 88.49989318847656 44.99994277954102 88.49989318847656 Z" stroke="none"/>
                  <path d="M 44.99994277954102 3 C 39.32865524291992 3 33.82861328125 4.110054016113281 28.65258407592773 6.299331665039062 C 23.65162658691406 8.414558410644531 19.15966796875 11.44332885742188 15.30149841308594 15.30149841308594 C 11.44332885742188 19.15966796875 8.414558410644531 23.65162658691406 6.299331665039062 28.65258407592773 C 4.110054016113281 33.82861328125 3 39.32865524291992 3 44.99994277954102 C 3 50.67121505737305 4.110054016113281 56.17125701904297 6.299331665039062 61.34728622436523 C 8.414558410644531 66.34825897216797 11.44332885742188 70.8402099609375 15.30149841308594 74.69838714599609 C 19.15966796875 78.55655670166016 23.65162658691406 81.5853271484375 28.65258407592773 83.70055389404297 C 33.82861328125 85.88983154296875 39.32867050170898 86.99988555908203 44.99994277954102 86.99988555908203 C 50.67121505737305 86.99988555908203 56.17125701904297 85.88983154296875 61.34728622436523 83.70055389404297 C 66.34825897216797 81.5853271484375 70.8402099609375 78.55655670166016 74.69838714599609 74.69838714599609 C 78.55655670166016 70.8402099609375 81.5853271484375 66.34825897216797 83.70055389404297 61.34728622436523 C 85.88983154296875 56.17125701904297 86.99988555908203 50.67121505737305 86.99988555908203 44.99994277954102 C 86.99988555908203 39.32867050170898 85.88983154296875 33.82861328125 83.70055389404297 28.65258407592773 C 81.5853271484375 23.65162658691406 78.55655670166016 19.15966796875 74.69838714599609 15.30149841308594 C 70.8402099609375 11.44332885742188 66.34825897216797 8.414558410644531 61.34728622436523 6.299331665039062 C 56.17125701904297 4.110054016113281 50.67121505737305 3 44.99994277954102 3 M 44.99994277954102 0 C 69.85271453857422 0 89.99988555908203 20.14715576171875 89.99988555908203 44.99994277954102 C 89.99988555908203 69.85271453857422 69.85271453857422 89.99988555908203 44.99994277954102 89.99988555908203 C 20.14715576171875 89.99988555908203 0 69.85271453857422 0 44.99994277954102 C 0 20.14715576171875 20.14715576171875 0 44.99994277954102 0 Z" stroke="none" fill="#886a1c"/>
                </g>
              </g>
            </g>
          </g>
        </g>
      </g>
      <g id="tour-virtual" transform="translate(639.035 556.547)">
        <g id="Group_1224685" data-name="Group 1224685" transform="translate(0.847 12.736)">
          <path id="Path_1177095" data-name="Path 1177095" d="M63.619,23.793c0,2.014-5.786,4.412-5.786,4.412l-2.8,23.244a136.633,136.633,0,0,0-19.478-1.234,137.016,137.016,0,0,0-19.365,1.217L13.7,30.357S8.93,26.336,7.71,24.466a1.186,1.186,0,0,1-.21-.674c0-2.432,12.563-4.4,28.059-4.4S63.619,21.36,63.619,23.793Z" transform="translate(-7.5 -19.389)" fill="#a2aee6"/>
          <path id="Path_1177096" data-name="Path 1177096" d="M437.082,58.389V89.215c0,1.213-3.129,2.313-8.191,3.109a.338.338,0,0,1-.39-.335V61.849a.34.34,0,0,1,.288-.335C433.91,60.717,437.082,59.611,437.082,58.389Z" transform="translate(-380.963 -53.985)" fill="#bec6ed"/>
          <path id="Path_1177097" data-name="Path 1177097" d="M16.194,61.866v30.14a.339.339,0,0,1-.39.335c-5.128-.8-8.3-1.9-8.3-3.127V58.389c0,1.231,3.218,2.344,8.406,3.143A.34.34,0,0,1,16.194,61.866Z" transform="translate(-7.5 -53.985)" fill="#bec6ed"/>
          <g id="Group_1224684" data-name="Group 1224684" transform="translate(8.126 7.082)">
            <path id="Path_1177098" data-name="Path 1177098" d="M147.55,222.842l-28.137-.007c-.016,0-.3.259-.311.259a1.147,1.147,0,0,1-1.1-1.132v-3.74a1.133,1.133,0,0,1,1.086-1.132c.016,0,1,.455,1.011.455l27.489-.108c.016,0,.477-.348.492-.347a1.133,1.133,0,0,1,1.086,1.132v3.74a1.133,1.133,0,0,1-1.086,1.132C148.063,223.094,147.566,222.842,147.55,222.842Z" transform="translate(-113.648 -201.848)" fill="#f5f8f9"/>
            <path id="Path_1177099" data-name="Path 1177099" d="M342.687,217.08v6H337.38v-6.006h5.307Z" transform="translate(-308.257 -201.839)" fill="#e8edf2"/>
            <path id="Path_1177100" data-name="Path 1177100" d="M127.667,217.079h5.26v6.006h-5.291c-.016,0,.016,0,0,0l-.016-6Z" transform="translate(-122.182 -201.839)" fill="#e8edf2"/>
            <path id="Path_1177101" data-name="Path 1177101" d="M134.247,389.985a6.528,6.528,0,0,0-4.537-5.129l-5.447-1.323-1.1-.74-2.109-.665h-9.081l-7.726,3.442c-2.366.712-5.089,1.99-5.513,4.425l12.159,3.648,2.04.961h7.118l2.387-.644Z" transform="translate(-96.557 -348.252)" fill="#f5f8f9"/>
            <path id="Path_1177102" data-name="Path 1177102" d="M113.053,383.809l.209-1.68h-1.293l-8.688,2.734A6.528,6.528,0,0,0,98.73,390l2.143.848h0l9.506,3.76h2.55l-.55-1.049a25.379,25.379,0,0,1-2.26-8.087.451.451,0,0,1,.313-.488l2.231-.7A.567.567,0,0,0,113.053,383.809Z" transform="translate(-96.554 -348.252)" fill="#e8edf2"/>
            <path id="Path_1177103" data-name="Path 1177103" d="M219.632,335.46l-.1,2.825.607,1.118.221,1.709a3.675,3.675,0,0,1-.77,2.732,6.788,6.788,0,0,1-9.607,0,3.548,3.548,0,0,1-.442-.705l.366-3.1.034-4.786Z" transform="translate(-194.858 -306.666)" fill="#fed2a4"/>
            <path id="Path_1177104" data-name="Path 1177104" d="M217.369,339.4l-.511-3.943-9.686-.211-.727,5.863a3.7,3.7,0,0,0,.329,2.027l1.418-.446a.567.567,0,0,0,.391-.47l.135-1.088a.563.563,0,0,1,.72-.471,9,9,0,0,0,2.58.389A10.243,10.243,0,0,0,217.369,339.4Z" transform="translate(-192.083 -306.666)" fill="#ffbd86"/>
            <path id="Path_1177105" data-name="Path 1177105" d="M157.044,122.835c0-8.125,4.132-13.47,11.174-13.47s11.174,5.345,11.174,13.47c0,4.732-.092,6.712-2.023,9.386-2.664,3.689-5.983,6.195-9.15,6.195s-6.486-2.506-9.15-6.195c-1.932-2.674-2.023-4.654-2.023-9.386Z" transform="translate(-148.284 -106.288)" fill="#fed2a4"/>
            <path id="Path_1177106" data-name="Path 1177106" d="M83.338,402.22a.339.339,0,0,1-.333-.4l.816-3.8a7.885,7.885,0,0,1,5.526-6.234l2.422-.577a1.118,1.118,0,0,1,1.438.989,4.6,4.6,0,0,0,.72,1.6,27.369,27.369,0,0,0,2.5,8.821H86.248Z" transform="translate(-82.6 -356.268)" fill="#bbf49b"/>
            <path id="Path_1177107" data-name="Path 1177107" d="M90.788,388.474l-3.949,1.242a4.246,4.246,0,0,0-2.972,3.33l-.758,4.249H79.8a.339.339,0,0,1-.333-.4l.793-4.449a7.885,7.885,0,0,1,5.526-6.234l3.334-1a1.118,1.118,0,0,1,1.439.989C90.6,386.811,90.674,387.59,90.788,388.474Z" transform="translate(-79.462 -350.943)" fill="#9be69d"/>
            <path id="Path_1177108" data-name="Path 1177108" d="M301.717,395.211l-11.647,4.618h-2.55l.55-1.049c1.821-3.473,2.337-8.3,2.475-10.208a3.29,3.29,0,0,1,.087-.553l6.548,2.063A6.525,6.525,0,0,1,301.717,395.211Z" transform="translate(-264.027 -353.477)" fill="#e8edf2"/>
            <path id="Path_1177109" data-name="Path 1177109" d="M323.587,397.295a.339.339,0,0,0,.333-.4l-.793-4.45a7.885,7.885,0,0,0-5.526-6.234l-3.335-1a1.118,1.118,0,0,0-1.438.989c-.171,2.383-.756,7.334-2.728,11.095h13.486Z" transform="translate(-284.058 -350.943)" fill="#bbf49b"/>
            <path id="Path_1177110" data-name="Path 1177110" d="M167.3,96.472a12.312,12.312,0,0,1-1.615,2.613c-.02-.145-.151-.207-2.761-1.222-1.26-.489,1.629-1.993-.565-2.258a16.81,16.81,0,0,1-5.646-.9c-3.388-.677-5.107-2.668-6.73-4.458a.564.564,0,0,0-.948.191,7.028,7.028,0,0,1-2.911,3.985c-1.762,1.036-2.786,4.665-2.786,4.665-1.014-2.325-1.745-4.046-1.745-6.4,0-3.178,1.55-6.436,4.161-7.265a10.008,10.008,0,0,1,2.486-.182,4.79,4.79,0,0,1,.5.2.227.227,0,0,0,.258-.047A11.008,11.008,0,0,1,160.5,82.732,10.823,10.823,0,0,1,167.3,96.472Z" transform="translate(-134.58 -82.111)" fill="#827e7c"/>
            <path id="Path_1177111" data-name="Path 1177111" d="M140.077,115.457a11.523,11.523,0,0,0,.664,3.955A14.625,14.625,0,0,0,139.69,122a9.652,9.652,0,0,1-2.21-6.542c0-4.154,3.324-8.532,7.111-7.3C142,109,140.077,112.3,140.077,115.457Z" transform="translate(-130.929 -105.027)" fill="#726d6a"/>
            <path id="Path_1177112" data-name="Path 1177112" d="M174.805,194.759v7.026a2.267,2.267,0,0,1-2.267,2.267h-5.25a2.5,2.5,0,0,1-2.237-1.389l-.024-.049a2.306,2.306,0,0,0-2.609-1.217,2.362,2.362,0,0,0-1.545,1.266,2.5,2.5,0,0,1-2.237,1.389h-5.25a2.267,2.267,0,0,1-2.267-2.267v-7.026a2.267,2.267,0,0,1,2.267-2.267h19.152A2.267,2.267,0,0,1,174.805,194.759Z" transform="translate(-143.029 -180.028)" fill="#f5f8f9"/>
          </g>
        </g>
        <g id="Group_1224686" data-name="Group 1224686" transform="translate(0 11.889)">
          <path id="Path_1177113" data-name="Path 1177113" d="M55.426,14.776A27.447,27.447,0,0,0,50.139,13.4a.847.847,0,0,0-.3,1.667c5.228.933,6.13,1.882,6.262,2.072-.145.209-1.214,1.329-7.845,2.332a.847.847,0,0,0-.72.837V43.818c-1.935-.267-4.068-.49-6.373-.664a3.09,3.09,0,0,0,.413-1.242h1.778a1.982,1.982,0,0,0,1.98-1.98v-3.74a1.982,1.982,0,0,0-1.98-1.98h-.778a11.5,11.5,0,0,0-.907-9.131.847.847,0,1,0-1.48.823,9.824,9.824,0,0,1,.977,7.071,3.114,3.114,0,0,0-2.685-1.54H30.658c-2.628-.7-4.189-2.424-5.652-4.054a1.41,1.41,0,0,0-2.369.465,6.252,6.252,0,0,1-2.608,3.589h-.7a3.114,3.114,0,0,0-2.651,1.483,11.249,11.249,0,0,1-.309-2.669,7.516,7.516,0,0,1,3.075-6.094,3.378,3.378,0,0,1,3.465-.186.847.847,0,0,0,.989-.178,10.26,10.26,0,0,1,13.966-.707.847.847,0,0,0,1.091-1.3,11.963,11.963,0,0,0-15.868.417,5.087,5.087,0,0,0-4.539.511,9.179,9.179,0,0,0-3.874,7.532,12.486,12.486,0,0,0,.615,3.962h-.835a1.982,1.982,0,0,0-1.98,1.98v3.74a1.982,1.982,0,0,0,1.98,1.98h1.778a3.09,3.09,0,0,0,.413,1.242c-2.26.171-4.356.388-6.26.649V20.326a.847.847,0,0,0-.722-.837C2.936,18.481,1.855,17.35,1.71,17.14c.146-.211,1.235-1.351,8.042-2.362a137.046,137.046,0,0,1,19.155-1.195,145.471,145.471,0,0,1,17.048.912.847.847,0,0,0,.2-1.681,147.183,147.183,0,0,0-17.252-.924,135.684,135.684,0,0,0-19.972,1.3,33.65,33.65,0,0,0-6.177,1.442C1.574,15.071,0,15.808,0,17.14V35.423a.847.847,0,0,0,1.694,0V19.179a24.752,24.752,0,0,0,7,1.873v29.11c-6.181-1.018-6.938-2.108-7-2.221V39.6A.847.847,0,0,0,0,39.6v8.365c0,1.122.976,2.761,9.416,4.024a.847.847,0,0,0,.972-.837v-5.64c2.3-.322,4.9-.579,7.743-.766a20.39,20.39,0,0,0,4.8,5.634l-.362,3.1-1.981.6a1.958,1.958,0,0,0-2.2-.8l-3.335,1a8.725,8.725,0,0,0-6.116,6.9l-.864,4.848a.847.847,0,0,0,1.667.3l.864-4.851A7.042,7.042,0,0,1,15.54,55.9l3.335-1a.27.27,0,0,1,.234.037.265.265,0,0,1,.116.2c.188,2.616.8,7.58,2.822,11.427a.847.847,0,1,0,1.5-.786,28.463,28.463,0,0,1-2.575-10.05l1.525-.459a4.491,4.491,0,0,0,.947,2.262,6.51,6.51,0,0,0,5.082,2.3h.032a.847.847,0,0,0,.031-1.693,4.886,4.886,0,0,1-3.825-1.669,2.844,2.844,0,0,1-.589-2.106l.338-2.894a8.746,8.746,0,0,0,4.393,1.327A8.747,8.747,0,0,0,33.3,51.466l.338,2.895a2.844,2.844,0,0,1-.589,2.106,4.063,4.063,0,0,1-1.069.931.847.847,0,1,0,.876,1.45,5.755,5.755,0,0,0,1.513-1.318,4.49,4.49,0,0,0,.95-2.286l1.524.462a28.488,28.488,0,0,1-2.577,10.071.847.847,0,1,0,1.5.786c2.017-3.847,2.634-8.811,2.822-11.427a.265.265,0,0,1,.116-.2.269.269,0,0,1,.234-.037l3.335,1a7.044,7.044,0,0,1,4.936,5.571l.864,4.848a.847.847,0,0,0,1.667-.3l-.863-4.844a8.727,8.727,0,0,0-6.116-6.9l-3.335-1a1.959,1.959,0,0,0-2.192.779l-2-.605-.358-3.069a20.179,20.179,0,0,0,4.8-5.633c2.89.19,5.526.452,7.857.781v5.607a.847.847,0,0,0,.295.642.884.884,0,0,0,.679.2c8.338-1.261,9.3-2.891,9.3-4.007V17.14c0-1.39-1.8-2.123-2.386-2.364ZM43.642,36.191v3.74a.287.287,0,0,1-.286.286H41.6V35.905h1.76A.287.287,0,0,1,43.642,36.191ZM24.063,28.863a17.879,17.879,0,0,0,2.727,2.571H22.608a9.281,9.281,0,0,0,1.455-2.571Zm-6.152,5.685a1.421,1.421,0,0,1,1.42-1.42H38.482a1.421,1.421,0,0,1,1.42,1.42v7.026a1.421,1.421,0,0,1-1.42,1.42h-5.25a1.8,1.8,0,0,1-1.5-.967,3.156,3.156,0,0,0-2.819-1.753,3.154,3.154,0,0,0-2.852,1.8,1.64,1.64,0,0,1-1.478.918H19.33a1.421,1.421,0,0,1-1.42-1.42Zm-3.74,5.383v-3.74a.287.287,0,0,1,.286-.286h1.76v4.312h-1.76a.287.287,0,0,1-.286-.286ZM28.906,51.1c-2.864.039-6.332-2.615-8.851-6.412h4.459A3.376,3.376,0,0,0,27.57,42.84a1.509,1.509,0,0,1,.99-.831,1.458,1.458,0,0,1,1.249.272,1.5,1.5,0,0,1,.435.572,3.346,3.346,0,0,0,2.988,1.835h4.524c-2.372,3.68-6.138,6.532-8.85,6.412Zm27.213-3.16c-.062.113-.811,1.19-6.888,2.2V21.034a24.465,24.465,0,0,0,6.888-1.855Z" transform="translate(0 -11.889)"/>
          <path id="Path_1177114" data-name="Path 1177114" d="M234.073,311.221a2.679,2.679,0,0,1-3.383,0,.847.847,0,1,0-1.063,1.319,4.361,4.361,0,0,0,5.509,0,.847.847,0,1,0-1.063-1.319Z" transform="translate(-203.418 -277.256)"/>
        </g>
      </g>
    </g>
  </g>
</svg>
